mtllib ear.mtl
usemtl coat
s 1
v 0.0100000 0.0000000 0.0120000
v 0.0077975 0.0000000 0.0175623
v 0.0014058 0.0000000 0.0225801
v -0.0085497 0.0000000 0.0265623
v -0.0210942 0.0000000 0.0291190
v -0.0350000 0.0000000 0.0300000
v -0.0489058 0.0000000 0.0291190
v -0.0614503 0.0000000 0.0265623
v -0.0714058 0.0000000 0.0225801
v -0.0777975 0.0000000 0.0175623
v -0.0800000 0.0000000 0.0120000
v -0.0777975 0.0000000 0.0064377
v -0.0714058 0.0000000 0.0014199
v -0.0614503 0.0000000 -0.0025623
v -0.0489058 0.0000000 -0.0051190
v -0.0350000 0.0000000 -0.0060000
v -0.0210942 0.0000000 -0.0051190
v -0.0085497 0.0000000 -0.0025623
v 0.0014058 0.0000000 0.0014199
v 0.0077975 0.0000000 0.0064377
v 0.0100000 0.0000000 0.0120000
v 0.0500000 0.0350000 0.0120000
v 0.0458398 0.0350000 0.0175623
v 0.0337664 0.0350000 0.0225801
v 0.0149617 0.0350000 0.0265623
v -0.0087336 0.0350000 0.0291190
v -0.0350000 0.0350000 0.0300000
v -0.0612664 0.0350000 0.0291190
v -0.0849617 0.0350000 0.0265623
v -0.1037664 0.0350000 0.0225801
v -0.1158398 0.0350000 0.0175623
v -0.1200000 0.0350000 0.0120000
v -0.1158398 0.0350000 0.0064377
v -0.1037664 0.0350000 0.0014199
v -0.0849617 0.0350000 -0.0025623
v -0.0612664 0.0350000 -0.0051190
v -0.0350000 0.0350000 -0.0060000
v -0.0087336 0.0350000 -0.0051190
v 0.0149617 0.0350000 -0.0025623
v 0.0337664 0.0350000 0.0014199
v 0.0458398 0.0350000 0.0064377
v 0.0500000 0.0350000 0.0120000
v 0.0800000 0.0850000 0.0120000
v 0.0743715 0.0850000 0.0175623
v 0.0580370 0.0850000 0.0225801
v 0.0325953 0.0850000 0.0265623
v 0.0005370 0.0850000 0.0291190
v -0.0350000 0.0850000 0.0300000
v -0.0705370 0.0850000 0.0291190
v -0.1025953 0.0850000 0.0265623
v -0.1280370 0.0850000 0.0225801
v -0.1443715 0.0850000 0.0175623
v -0.1500000 0.0850000 0.0120000
v -0.1443715 0.0850000 0.0064377
v -0.1280370 0.0850000 0.0014199
v -0.1025953 0.0850000 -0.0025623
v -0.0705370 0.0850000 -0.0051190
v -0.0350000 0.0850000 -0.0060000
v 0.0005370 0.0850000 -0.0051190
v 0.0325953 0.0850000 -0.0025623
v 0.0580370 0.0850000 0.0014199
v 0.0743715 0.0850000 0.0064377
v 0.0800000 0.0850000 0.0120000
v 0.0600000 0.1400000 0.0120000
v 0.0553504 0.1400000 0.0175623
v 0.0418566 0.1400000 0.0225801
v 0.0208396 0.1400000 0.0265623
v -0.0056434 0.1400000 0.0291190
v -0.0350000 0.1400000 0.0300000
v -0.0643566 0.1400000 0.0291190
v -0.0908396 0.1400000 0.0265623
v -0.1118566 0.1400000 0.0225801
v -0.1253504 0.1400000 0.0175623
v -0.1300000 0.1400000 0.0120000
v -0.1253504 0.1400000 0.0064377
v -0.1118566 0.1400000 0.0014199
v -0.0908396 0.1400000 -0.0025623
v -0.0643566 0.1400000 -0.0051190
v -0.0350000 0.1400000 -0.0060000
v -0.0056434 0.1400000 -0.0051190
v 0.0208396 0.1400000 -0.0025623
v 0.0418566 0.1400000 0.0014199
v 0.0553504 0.1400000 0.0064377
v 0.0600000 0.1400000 0.0120000
v -0.0230000 0.1900000 0.0120000
v -0.0235873 0.1900000 0.0175623
v -0.0252918 0.1900000 0.0225801
v -0.0279466 0.1900000 0.0265623
v -0.0312918 0.1900000 0.0291190
v -0.0350000 0.1900000 0.0300000
v -0.0387082 0.1900000 0.0291190
v -0.0420534 0.1900000 0.0265623
v -0.0447082 0.1900000 0.0225801
v -0.0464127 0.1900000 0.0175623
v -0.0470000 0.1900000 0.0120000
v -0.0464127 0.1900000 0.0064377
v -0.0447082 0.1900000 0.0014199
v -0.0420534 0.1900000 -0.0025623
v -0.0387082 0.1900000 -0.0051190
v -0.0350000 0.1900000 -0.0060000
v -0.0312918 0.1900000 -0.0051190
v -0.0279466 0.1900000 -0.0025623
v -0.0252918 0.1900000 0.0014199
v -0.0235873 0.1900000 0.0064377
v -0.0230000 0.1900000 0.0120000
vt 0.0000000 0.0000000
vt 0.0500000 0.0000000
vt 0.1000000 0.0000000
vt 0.1500000 0.0000000
vt 0.2000000 0.0000000
vt 0.2500000 0.0000000
vt 0.3000000 0.0000000
vt 0.3500000 0.0000000
vt 0.4000000 0.0000000
vt 0.4500000 0.0000000
vt 0.5000000 0.0000000
vt 0.5500000 0.0000000
vt 0.6000000 0.0000000
vt 0.6500000 0.0000000
vt 0.7000000 0.0000000
vt 0.7500000 0.0000000
vt 0.8000000 0.0000000
vt 0.8500000 0.0000000
vt 0.9000000 0.0000000
vt 0.9500000 0.0000000
vt 1.0000000 0.0000000
vt 0.0000000 0.2500000
vt 0.0500000 0.2500000
vt 0.1000000 0.2500000
vt 0.1500000 0.2500000
vt 0.2000000 0.2500000
vt 0.2500000 0.2500000
vt 0.3000000 0.2500000
vt 0.3500000 0.2500000
vt 0.4000000 0.2500000
vt 0.4500000 0.2500000
vt 0.5000000 0.2500000
vt 0.5500000 0.2500000
vt 0.6000000 0.2500000
vt 0.6500000 0.2500000
vt 0.7000000 0.2500000
vt 0.7500000 0.2500000
vt 0.8000000 0.2500000
vt 0.8500000 0.2500000
vt 0.9000000 0.2500000
vt 0.9500000 0.2500000
vt 1.0000000 0.2500000
vt 0.0000000 0.5000000
vt 0.0500000 0.5000000
vt 0.1000000 0.5000000
vt 0.1500000 0.5000000
vt 0.2000000 0.5000000
vt 0.2500000 0.5000000
vt 0.3000000 0.5000000
vt 0.3500000 0.5000000
vt 0.4000000 0.5000000
vt 0.4500000 0.5000000
vt 0.5000000 0.5000000
vt 0.5500000 0.5000000
vt 0.6000000 0.5000000
vt 0.6500000 0.5000000
vt 0.7000000 0.5000000
vt 0.7500000 0.5000000
vt 0.8000000 0.5000000
vt 0.8500000 0.5000000
vt 0.9000000 0.5000000
vt 0.9500000 0.5000000
vt 1.0000000 0.5000000
vt 0.0000000 0.7500000
vt 0.0500000 0.7500000
vt 0.1000000 0.7500000
vt 0.1500000 0.7500000
vt 0.2000000 0.7500000
vt 0.2500000 0.7500000
vt 0.3000000 0.7500000
vt 0.3500000 0.7500000
vt 0.4000000 0.7500000
vt 0.4500000 0.7500000
vt 0.5000000 0.7500000
vt 0.5500000 0.7500000
vt 0.6000000 0.7500000
vt 0.6500000 0.7500000
vt 0.7000000 0.7500000
vt 0.7500000 0.7500000
vt 0.8000000 0.7500000
vt 0.8500000 0.7500000
vt 0.9000000 0.7500000
vt 0.9500000 0.7500000
vt 1.0000000 0.7500000
vt 0.0000000 1.0000000
vt 0.0500000 1.0000000
vt 0.1000000 1.0000000
vt 0.1500000 1.0000000
vt 0.2000000 1.0000000
vt 0.2500000 1.0000000
vt 0.3000000 1.0000000
vt 0.3500000 1.0000000
vt 0.4000000 1.0000000
vt 0.4500000 1.0000000
vt 0.5000000 1.0000000
vt 0.5500000 1.0000000
vt 0.6000000 1.0000000
vt 0.6500000 1.0000000
vt 0.7000000 1.0000000
vt 0.7500000 1.0000000
vt 0.8000000 1.0000000
vt 0.8500000 1.0000000
vt 0.9000000 1.0000000
vt 0.9500000 1.0000000
vt 1.0000000 1.0000000
vn 0.6372002 -0.7282289 0.2523065
vn 0.5925615 -0.6554890 0.4681934
vn 0.4056775 -0.3986588 0.8224943
vn 0.2425232 -0.1861249 0.9521240
vn 0.1184954 -0.0579498 0.9912622
vn 0.0162885 -0.0057525 0.9998508
vn -0.0816272 -0.0229470 0.9963987
vn -0.1919749 -0.1117679 0.9750147
vn -0.3324270 -0.2815775 0.9001147
vn -0.5112245 -0.5289641 0.6773821
vn -0.6556838 -0.7371276 0.1634678
vn -0.5925615 -0.6554890 -0.4681934
vn -0.4056775 -0.3986588 -0.8224943
vn -0.2425232 -0.1861249 -0.9521240
vn -0.1184954 -0.0579498 -0.9912622
vn -0.0162885 -0.0057525 -0.9998508
vn 0.0816272 -0.0229470 -0.9963987
vn 0.1919749 -0.1117679 -0.9750147
vn 0.3324270 -0.2815775 -0.9001147
vn 0.5112245 -0.5289641 -0.6773821
vn 0.6237709 -0.6954356 -0.3567619
vn 0.6700993 -0.6033254 0.4323949
vn 0.5326689 -0.4069119 0.7420826
vn 0.2865472 -0.1851520 0.9400050
vn 0.1562308 -0.0735074 0.9849815
vn 0.0709645 -0.0187999 0.9973017
vn 0.0019639 -0.0028321 0.9999941
vn -0.0657200 -0.0207583 0.9976222
vn -0.1459203 -0.0747512 0.9864682
vn -0.2623644 -0.1774345 0.9485156
vn -0.4731896 -0.3689576 0.7999762
vn -0.7722050 -0.6255586 0.1112472
vn -0.5326689 -0.4069119 -0.7420826
vn -0.2865472 -0.1851520 -0.9400050
vn -0.1562308 -0.0735074 -0.9849815
vn -0.0709645 -0.0187999 -0.9973017
vn -0.0019639 -0.0028321 -0.9999941
vn 0.0657200 -0.0207583 -0.9976222
vn 0.1459203 -0.0747512 -0.9864682
vn 0.2623644 -0.1774345 -0.9485156
vn 0.4731896 -0.3689576 -0.7999762
vn 0.6669778 -0.4868033 -0.5640596
vn 0.7215640 -0.1793747 0.6687078
vn 0.4658872 -0.0310536 0.8842990
vn 0.2278337 -0.0076346 0.9736701
vn 0.1224206 0.0002720 0.9924783
vn 0.0552114 0.0019664 0.9984727
vn 0.0004239 -0.0002620 0.9999999
vn -0.0542038 -0.0056204 0.9985141
vn -0.1207801 -0.0140376 0.9925800
vn -0.2242638 -0.0268128 0.9741595
vn -0.4546702 -0.0508742 0.8892057
vn -0.9952744 -0.0932416 0.0271067
vn -0.4658872 -0.0310536 -0.8842990
vn -0.2278337 -0.0076346 -0.9736701
vn -0.1224206 0.0002720 -0.9924783
vn -0.0552114 0.0019664 -0.9984727
vn -0.0004239 -0.0002620 -0.9999999
vn 0.0542038 -0.0056204 -0.9985141
vn 0.1207801 -0.0140376 -0.9925800
vn 0.2242638 -0.0268128 -0.9741595
vn 0.4546702 -0.0508742 -0.8892057
vn 0.7238867 0.0408142 -0.6887106
vn 0.6475019 0.4938057 0.5804284
vn 0.4567029 0.4331874 0.7770271
vn 0.2604265 0.2195576 0.9401981
vn 0.1467711 0.0971134 0.9843918
vn 0.0671020 0.0292452 0.9973174
vn -0.0005304 0.0033764 0.9999942
vn -0.0696658 0.0178080 0.9974114
vn -0.1552679 0.0790111 0.9847076
vn -0.2853653 0.2089222 0.9353706
vn -0.5202863 0.4631549 0.7174884
vn -0.7148877 0.6898299 -0.1143254
vn -0.4567029 0.4331874 -0.7770271
vn -0.2604265 0.2195576 -0.9401981
vn -0.1467711 0.0971134 -0.9843918
vn -0.0671020 0.0292452 -0.9973174
vn 0.0005304 0.0033764 -0.9999942
vn 0.0696658 0.0178080 -0.9974114
vn 0.1552679 0.0790111 -0.9847076
vn 0.2853653 0.2089222 -0.9353706
vn 0.5202863 0.4631549 -0.7174884
vn 0.6043228 0.7093490 -0.3627920
vn 0.5100454 0.8259557 0.2401058
vn 0.4832039 0.7262081 0.4890151
vn 0.3973218 0.4888325 0.7766455
vn 0.2628921 0.2223137 0.9388633
vn 0.1176506 0.0480398 0.9918924
vn -0.0239486 0.0122849 0.9996377
vn -0.1745960 0.1240227 0.9767981
vn -0.3363988 0.3749918 0.8638385
vn -0.4632696 0.6612573 0.5900170
vn -0.5152618 0.8278966 0.2215683
vn -0.5168072 0.8439037 -0.1440028
vn -0.4832039 0.7262081 -0.4890151
vn -0.3973218 0.4888325 -0.7766455
vn -0.2628921 0.2223137 -0.9388633
vn -0.1176506 0.0480398 -0.9918924
vn 0.0239486 0.0122849 -0.9996377
vn 0.1745960 0.1240227 -0.9767981
vn 0.3363988 0.3749918 -0.8638385
vn 0.4632696 0.6612573 -0.5900170
vn 0.5152618 0.8278966 -0.2215683
vn 0.5152484 0.8553123 -0.0544049
f 1/1/1 22/22/22 2/2/2
f 2/2/2 22/22/22 23/23/23
f 2/2/2 23/23/23 3/3/3
f 3/3/3 23/23/23 24/24/24
f 3/3/3 24/24/24 4/4/4
f 4/4/4 24/24/24 25/25/25
f 4/4/4 25/25/25 5/5/5
f 5/5/5 25/25/25 26/26/26
f 5/5/5 26/26/26 6/6/6
f 6/6/6 26/26/26 27/27/27
f 6/6/6 27/27/27 7/7/7
f 7/7/7 27/27/27 28/28/28
f 7/7/7 28/28/28 8/8/8
f 8/8/8 28/28/28 29/29/29
f 8/8/8 29/29/29 9/9/9
f 9/9/9 29/29/29 30/30/30
f 9/9/9 30/30/30 10/10/10
f 10/10/10 30/30/30 31/31/31
f 10/10/10 31/31/31 11/11/11
f 11/11/11 31/31/31 32/32/32
f 11/11/11 32/32/32 12/12/12
f 12/12/12 32/32/32 33/33/33
f 12/12/12 33/33/33 13/13/13
f 13/13/13 33/33/33 34/34/34
f 13/13/13 34/34/34 14/14/14
f 14/14/14 34/34/34 35/35/35
f 14/14/14 35/35/35 15/15/15
f 15/15/15 35/35/35 36/36/36
f 15/15/15 36/36/36 16/16/16
f 16/16/16 36/36/36 37/37/37
f 16/16/16 37/37/37 17/17/17
f 17/17/17 37/37/37 38/38/38
f 17/17/17 38/38/38 18/18/18
f 18/18/18 38/38/38 39/39/39
f 18/18/18 39/39/39 19/19/19
f 19/19/19 39/39/39 40/40/40
f 19/19/19 40/40/40 20/20/20
f 20/20/20 40/40/40 41/41/41
f 20/20/20 41/41/41 21/21/21
f 21/21/21 41/41/41 42/42/42
f 22/22/22 43/43/43 23/23/23
f 23/23/23 43/43/43 44/44/44
f 23/23/23 44/44/44 24/24/24
f 24/24/24 44/44/44 45/45/45
f 24/24/24 45/45/45 25/25/25
f 25/25/25 45/45/45 46/46/46
f 25/25/25 46/46/46 26/26/26
f 26/26/26 46/46/46 47/47/47
f 26/26/26 47/47/47 27/27/27
f 27/27/27 47/47/47 48/48/48
f 27/27/27 48/48/48 28/28/28
f 28/28/28 48/48/48 49/49/49
f 28/28/28 49/49/49 29/29/29
f 29/29/29 49/49/49 50/50/50
f 29/29/29 50/50/50 30/30/30
f 30/30/30 50/50/50 51/51/51
f 30/30/30 51/51/51 31/31/31
f 31/31/31 51/51/51 52/52/52
f 31/31/31 52/52/52 32/32/32
f 32/32/32 52/52/52 53/53/53
f 32/32/32 53/53/53 33/33/33
f 33/33/33 53/53/53 54/54/54
f 33/33/33 54/54/54 34/34/34
f 34/34/34 54/54/54 55/55/55
f 34/34/34 55/55/55 35/35/35
f 35/35/35 55/55/55 56/56/56
f 35/35/35 56/56/56 36/36/36
f 36/36/36 56/56/56 57/57/57
f 36/36/36 57/57/57 37/37/37
f 37/37/37 57/57/57 58/58/58
f 37/37/37 58/58/58 38/38/38
f 38/38/38 58/58/58 59/59/59
f 38/38/38 59/59/59 39/39/39
f 39/39/39 59/59/59 60/60/60
f 39/39/39 60/60/60 40/40/40
f 40/40/40 60/60/60 61/61/61
f 40/40/40 61/61/61 41/41/41
f 41/41/41 61/61/61 62/62/62
f 41/41/41 62/62/62 42/42/42
f 42/42/42 62/62/62 63/63/63
f 43/43/43 64/64/64 44/44/44
f 44/44/44 64/64/64 65/65/65
f 44/44/44 65/65/65 45/45/45
f 45/45/45 65/65/65 66/66/66
f 45/45/45 66/66/66 46/46/46
f 46/46/46 66/66/66 67/67/67
f 46/46/46 67/67/67 47/47/47
f 47/47/47 67/67/67 68/68/68
f 47/47/47 68/68/68 48/48/48
f 48/48/48 68/68/68 69/69/69
f 48/48/48 69/69/69 49/49/49
f 49/49/49 69/69/69 70/70/70
f 49/49/49 70/70/70 50/50/50
f 50/50/50 70/70/70 71/71/71
f 50/50/50 71/71/71 51/51/51
f 51/51/51 71/71/71 72/72/72
f 51/51/51 72/72/72 52/52/52
f 52/52/52 72/72/72 73/73/73
f 52/52/52 73/73/73 53/53/53
f 53/53/53 73/73/73 74/74/74
f 53/53/53 74/74/74 54/54/54
f 54/54/54 74/74/74 75/75/75
f 54/54/54 75/75/75 55/55/55
f 55/55/55 75/75/75 76/76/76
f 55/55/55 76/76/76 56/56/56
f 56/56/56 76/76/76 77/77/77
f 56/56/56 77/77/77 57/57/57
f 57/57/57 77/77/77 78/78/78
f 57/57/57 78/78/78 58/58/58
f 58/58/58 78/78/78 79/79/79
f 58/58/58 79/79/79 59/59/59
f 59/59/59 79/79/79 80/80/80
f 59/59/59 80/80/80 60/60/60
f 60/60/60 80/80/80 81/81/81
f 60/60/60 81/81/81 61/61/61
f 61/61/61 81/81/81 82/82/82
f 61/61/61 82/82/82 62/62/62
f 62/62/62 82/82/82 83/83/83
f 62/62/62 83/83/83 63/63/63
f 63/63/63 83/83/83 84/84/84
f 64/64/64 85/85/85 65/65/65
f 65/65/65 85/85/85 86/86/86
f 65/65/65 86/86/86 66/66/66
f 66/66/66 86/86/86 87/87/87
f 66/66/66 87/87/87 67/67/67
f 67/67/67 87/87/87 88/88/88
f 67/67/67 88/88/88 68/68/68
f 68/68/68 88/88/88 89/89/89
f 68/68/68 89/89/89 69/69/69
f 69/69/69 89/89/89 90/90/90
f 69/69/69 90/90/90 70/70/70
f 70/70/70 90/90/90 91/91/91
f 70/70/70 91/91/91 71/71/71
f 71/71/71 91/91/91 92/92/92
f 71/71/71 92/92/92 72/72/72
f 72/72/72 92/92/92 93/93/93
f 72/72/72 93/93/93 73/73/73
f 73/73/73 93/93/93 94/94/94
f 73/73/73 94/94/94 74/74/74
f 74/74/74 94/94/94 95/95/95
f 74/74/74 95/95/95 75/75/75
f 75/75/75 95/95/95 96/96/96
f 75/75/75 96/96/96 76/76/76
f 76/76/76 96/96/96 97/97/97
f 76/76/76 97/97/97 77/77/77
f 77/77/77 97/97/97 98/98/98
f 77/77/77 98/98/98 78/78/78
f 78/78/78 98/98/98 99/99/99
f 78/78/78 99/99/99 79/79/79
f 79/79/79 99/99/99 100/100/100
f 79/79/79 100/100/100 80/80/80
f 80/80/80 100/100/100 101/101/101
f 80/80/80 101/101/101 81/81/81
f 81/81/81 101/101/101 102/102/102
f 81/81/81 102/102/102 82/82/82
f 82/82/82 102/102/102 103/103/103
f 82/82/82 103/103/103 83/83/83
f 83/83/83 103/103/103 104/104/104
f 83/83/83 104/104/104 84/84/84
f 84/84/84 104/104/104 105/105/105
