mtllib head.mtl
usemtl coat
s 1
v -0.2800000 0.0350000 0.0000000
v -0.2800000 0.0347006 0.0065263
v -0.2800000 0.0338074 0.0129410
v -0.2800000 0.0323358 0.0191342
v -0.2800000 0.0303109 0.0250000
v -0.2800000 0.0277674 0.0304381
v -0.2800000 0.0247487 0.0353553
v -0.2800000 0.0213067 0.0396677
v -0.2800000 0.0175000 0.0433013
v -0.2800000 0.0133939 0.0461940
v -0.2800000 0.0090587 0.0482963
v -0.2800000 0.0045684 0.0495722
v -0.2800000 0.0000000 0.0500000
v -0.2800000 -0.0045684 0.0495722
v -0.2800000 -0.0090587 0.0482963
v -0.2800000 -0.0133939 0.0461940
v -0.2800000 -0.0175000 0.0433013
v -0.2800000 -0.0213067 0.0396677
v -0.2800000 -0.0247487 0.0353553
v -0.2800000 -0.0277674 0.0304381
v -0.2800000 -0.0303109 0.0250000
v -0.2800000 -0.0323358 0.0191342
v -0.2800000 -0.0338074 0.0129410
v -0.2800000 -0.0347006 0.0065263
v -0.2800000 -0.0350000 0.0000000
v -0.2800000 -0.0347006 -0.0065263
v -0.2800000 -0.0338074 -0.0129410
v -0.2800000 -0.0323358 -0.0191342
v -0.2800000 -0.0303109 -0.0250000
v -0.2800000 -0.0277674 -0.0304381
v -0.2800000 -0.0247487 -0.0353553
v -0.2800000 -0.0213067 -0.0396677
v -0.2800000 -0.0175000 -0.0433013
v -0.2800000 -0.0133939 -0.0461940
v -0.2800000 -0.0090587 -0.0482963
v -0.2800000 -0.0045684 -0.0495722
v -0.2800000 -0.0000000 -0.0500000
v -0.2800000 0.0045684 -0.0495722
v -0.2800000 0.0090587 -0.0482963
v -0.2800000 0.0133939 -0.0461940
v -0.2800000 0.0175000 -0.0433013
v -0.2800000 0.0213067 -0.0396677
v -0.2800000 0.0247487 -0.0353553
v -0.2800000 0.0277674 -0.0304381
v -0.2800000 0.0303109 -0.0250000
v -0.2800000 0.0323358 -0.0191342
v -0.2800000 0.0338074 -0.0129410
v -0.2800000 0.0347006 -0.0065263
v -0.2800000 0.0350000 -0.0000000
v -0.2100000 0.1400000 0.0000000
v -0.2100000 0.1388023 0.0248000
v -0.2100000 0.1352296 0.0491756
v -0.2100000 0.1293431 0.0727099
v -0.2100000 0.1212436 0.0950000
v -0.2100000 0.1110695 0.1156647
v -0.2100000 0.0989949 0.1343503
v -0.2100000 0.0852266 0.1507371
v -0.2100000 0.0700000 0.1645448
v -0.2100000 0.0535757 0.1755371
v -0.2100000 0.0362347 0.1835259
v -0.2100000 0.0182737 0.1883745
v -0.2100000 0.0000000 0.1900000
v -0.2100000 -0.0182737 0.1883745
v -0.2100000 -0.0362347 0.1835259
v -0.2100000 -0.0535757 0.1755371
v -0.2100000 -0.0700000 0.1645448
v -0.2100000 -0.0852266 0.1507371
v -0.2100000 -0.0989949 0.1343503
v -0.2100000 -0.1110695 0.1156647
v -0.2100000 -0.1212436 0.0950000
v -0.2100000 -0.1293431 0.0727099
v -0.2100000 -0.1352296 0.0491756
v -0.2100000 -0.1388023 0.0248000
v -0.2100000 -0.1400000 0.0000000
v -0.2100000 -0.1388023 -0.0248000
v -0.2100000 -0.1352296 -0.0491756
v -0.2100000 -0.1293431 -0.0727099
v -0.2100000 -0.1212436 -0.0950000
v -0.2100000 -0.1110695 -0.1156647
v -0.2100000 -0.0989949 -0.1343503
v -0.2100000 -0.0852266 -0.1507371
v -0.2100000 -0.0700000 -0.1645448
v -0.2100000 -0.0535757 -0.1755371
v -0.2100000 -0.0362347 -0.1835259
v -0.2100000 -0.0182737 -0.1883745
v -0.2100000 -0.0000000 -0.1900000
v -0.2100000 0.0182737 -0.1883745
v -0.2100000 0.0362347 -0.1835259
v -0.2100000 0.0535757 -0.1755371
v -0.2100000 0.0700000 -0.1645448
v -0.2100000 0.0852266 -0.1507371
v -0.2100000 0.0989949 -0.1343503
v -0.2100000 0.1110695 -0.1156647
v -0.2100000 0.1212436 -0.0950000
v -0.2100000 0.1293431 -0.0727099
v -0.2100000 0.1352296 -0.0491756
v -0.2100000 0.1388023 -0.0248000
v -0.2100000 0.1400000 -0.0000000
v -0.0800000 0.2000000 0.0000000
v -0.0800000 0.1982890 0.0326315
v -0.0800000 0.1931852 0.0647048
v -0.0800000 0.1847759 0.0956709
v -0.0800000 0.1732051 0.1250000
v -0.0800000 0.1586707 0.1521904
v -0.0800000 0.1414214 0.1767767
v -0.0800000 0.1217523 0.1983383
v -0.0800000 0.1000000 0.2165064
v -0.0800000 0.0765367 0.2309699
v -0.0800000 0.0517638 0.2414815
v -0.0800000 0.0261052 0.2478612
v -0.0800000 0.0000000 0.2500000
v -0.0800000 -0.0261052 0.2478612
v -0.0800000 -0.0517638 0.2414815
v -0.0800000 -0.0765367 0.2309699
v -0.0800000 -0.1000000 0.2165064
v -0.0800000 -0.1217523 0.1983383
v -0.0800000 -0.1414214 0.1767767
v -0.0800000 -0.1586707 0.1521904
v -0.0800000 -0.1732051 0.1250000
v -0.0800000 -0.1847759 0.0956709
v -0.0800000 -0.1931852 0.0647048
v -0.0800000 -0.1982890 0.0326315
v -0.0800000 -0.2000000 0.0000000
v -0.0800000 -0.1982890 -0.0326315
v -0.0800000 -0.1931852 -0.0647048
v -0.0800000 -0.1847759 -0.0956709
v -0.0800000 -0.1732051 -0.1250000
v -0.0800000 -0.1586707 -0.1521904
v -0.0800000 -0.1414214 -0.1767767
v -0.0800000 -0.1217523 -0.1983383
v -0.0800000 -0.1000000 -0.2165064
v -0.0800000 -0.0765367 -0.2309699
v -0.0800000 -0.0517638 -0.2414815
v -0.0800000 -0.0261052 -0.2478612
v -0.0800000 -0.0000000 -0.2500000
v -0.0800000 0.0261052 -0.2478612
v -0.0800000 0.0517638 -0.2414815
v -0.0800000 0.0765367 -0.2309699
v -0.0800000 0.1000000 -0.2165064
v -0.0800000 0.1217523 -0.1983383
v -0.0800000 0.1414214 -0.1767767
v -0.0800000 0.1586707 -0.1521904
v -0.0800000 0.1732051 -0.1250000
v -0.0800000 0.1847759 -0.0956709
v -0.0800000 0.1931852 -0.0647048
v -0.0800000 0.1982890 -0.0326315
v -0.0800000 0.2000000 -0.0000000
v 0.0800000 0.2000000 0.0000000
v 0.0800000 0.1982890 0.0287158
v 0.0800000 0.1931852 0.0569402
v 0.0800000 0.1847759 0.0841904
v 0.0800000 0.1732051 0.1100000
v 0.0800000 0.1586707 0.1339275
v 0.0800000 0.1414214 0.1555635
v 0.0800000 0.1217523 0.1745377
v 0.0800000 0.1000000 0.1905256
v 0.0800000 0.0765367 0.2032535
v 0.0800000 0.0517638 0.2125037
v 0.0800000 0.0261052 0.2181179
v 0.0800000 0.0000000 0.2200000
v 0.0800000 -0.0261052 0.2181179
v 0.0800000 -0.0517638 0.2125037
v 0.0800000 -0.0765367 0.2032535
v 0.0800000 -0.1000000 0.1905256
v 0.0800000 -0.1217523 0.1745377
v 0.0800000 -0.1414214 0.1555635
v 0.0800000 -0.1586707 0.1339275
v 0.0800000 -0.1732051 0.1100000
v 0.0800000 -0.1847759 0.0841904
v 0.0800000 -0.1931852 0.0569402
v 0.0800000 -0.1982890 0.0287158
v 0.0800000 -0.2000000 0.0000000
v 0.0800000 -0.1982890 -0.0287158
v 0.0800000 -0.1931852 -0.0569402
v 0.0800000 -0.1847759 -0.0841904
v 0.0800000 -0.1732051 -0.1100000
v 0.0800000 -0.1586707 -0.1339275
v 0.0800000 -0.1414214 -0.1555635
v 0.0800000 -0.1217523 -0.1745377
v 0.0800000 -0.1000000 -0.1905256
v 0.0800000 -0.0765367 -0.2032535
v 0.0800000 -0.0517638 -0.2125037
v 0.0800000 -0.0261052 -0.2181179
v 0.0800000 -0.0000000 -0.2200000
v 0.0800000 0.0261052 -0.2181179
v 0.0800000 0.0517638 -0.2125037
v 0.0800000 0.0765367 -0.2032535
v 0.0800000 0.1000000 -0.1905256
v 0.0800000 0.1217523 -0.1745377
v 0.0800000 0.1414214 -0.1555635
v 0.0800000 0.1586707 -0.1339275
v 0.0800000 0.1732051 -0.1100000
v 0.0800000 0.1847759 -0.0841904
v 0.0800000 0.1931852 -0.0569402
v 0.0800000 0.1982890 -0.0287158
v 0.0800000 0.2000000 -0.0000000
v 0.2200000 0.1700000 -0.0200000
v 0.2200000 0.1685456 0.0008842
v 0.2200000 0.1642074 0.0214110
v 0.2200000 0.1570595 0.0412293
v 0.2200000 0.1472243 0.0600000
v 0.2200000 0.1348701 0.0774018
v 0.2200000 0.1202082 0.0931371
v 0.2200000 0.1034894 0.1069365
v 0.2200000 0.0850000 0.1185641
v 0.2200000 0.0650562 0.1278207
v 0.2200000 0.0439992 0.1345481
v 0.2200000 0.0221895 0.1386312
v 0.2200000 0.0000000 0.1400000
v 0.2200000 -0.0221895 0.1386312
v 0.2200000 -0.0439992 0.1345481
v 0.2200000 -0.0650562 0.1278207
v 0.2200000 -0.0850000 0.1185641
v 0.2200000 -0.1034894 0.1069365
v 0.2200000 -0.1202082 0.0931371
v 0.2200000 -0.1348701 0.0774018
v 0.2200000 -0.1472243 0.0600000
v 0.2200000 -0.1570595 0.0412293
v 0.2200000 -0.1642074 0.0214110
v 0.2200000 -0.1685456 0.0008842
v 0.2200000 -0.1700000 -0.0200000
v 0.2200000 -0.1685456 -0.0408842
v 0.2200000 -0.1642074 -0.0614110
v 0.2200000 -0.1570595 -0.0812293
v 0.2200000 -0.1472243 -0.1000000
v 0.2200000 -0.1348701 -0.1174018
v 0.2200000 -0.1202082 -0.1331371
v 0.2200000 -0.1034894 -0.1469365
v 0.2200000 -0.0850000 -0.1585641
v 0.2200000 -0.0650562 -0.1678207
v 0.2200000 -0.0439992 -0.1745481
v 0.2200000 -0.0221895 -0.1786312
v 0.2200000 -0.0000000 -0.1800000
v 0.2200000 0.0221895 -0.1786312
v 0.2200000 0.0439992 -0.1745481
v 0.2200000 0.0650562 -0.1678207
v 0.2200000 0.0850000 -0.1585641
v 0.2200000 0.1034894 -0.1469365
v 0.2200000 0.1202082 -0.1331371
v 0.2200000 0.1348701 -0.1174018
v 0.2200000 0.1472243 -0.1000000
v 0.2200000 0.1570595 -0.0812293
v 0.2200000 0.1642074 -0.0614110
v 0.2200000 0.1685456 -0.0408842
v 0.2200000 0.1700000 -0.0200000
v 0.3500000 0.1900000 -0.0700000
v 0.3500000 0.1883745 -0.0543369
v 0.3500000 0.1835259 -0.0389417
v 0.3500000 0.1755371 -0.0240780
v 0.3500000 0.1645448 -0.0100000
v 0.3500000 0.1507371 0.0030514
v 0.3500000 0.1343503 0.0148528
v 0.3500000 0.1156647 0.0252024
v 0.3500000 0.0950000 0.0339230
v 0.3500000 0.0727099 0.0408655
v 0.3500000 0.0491756 0.0459111
v 0.3500000 0.0248000 0.0489734
v 0.3500000 0.0000000 0.0500000
v 0.3500000 -0.0248000 0.0489734
v 0.3500000 -0.0491756 0.0459111
v 0.3500000 -0.0727099 0.0408655
v 0.3500000 -0.0950000 0.0339230
v 0.3500000 -0.1156647 0.0252024
v 0.3500000 -0.1343503 0.0148528
v 0.3500000 -0.1507371 0.0030514
v 0.3500000 -0.1645448 -0.0100000
v 0.3500000 -0.1755371 -0.0240780
v 0.3500000 -0.1835259 -0.0389417
v 0.3500000 -0.1883745 -0.0543369
v 0.3500000 -0.1900000 -0.0700000
v 0.3500000 -0.1883745 -0.0856631
v 0.3500000 -0.1835259 -0.1010583
v 0.3500000 -0.1755371 -0.1159220
v 0.3500000 -0.1645448 -0.1300000
v 0.3500000 -0.1507371 -0.1430514
v 0.3500000 -0.1343503 -0.1548528
v 0.3500000 -0.1156647 -0.1652024
v 0.3500000 -0.0950000 -0.1739230
v 0.3500000 -0.0727099 -0.1808655
v 0.3500000 -0.0491756 -0.1859111
v 0.3500000 -0.0248000 -0.1889734
v 0.3500000 -0.0000000 -0.1900000
v 0.3500000 0.0248000 -0.1889734
v 0.3500000 0.0491756 -0.1859111
v 0.3500000 0.0727099 -0.1808655
v 0.3500000 0.0950000 -0.1739230
v 0.3500000 0.1156647 -0.1652024
v 0.3500000 0.1343503 -0.1548528
v 0.3500000 0.1507371 -0.1430514
v 0.3500000 0.1645448 -0.1300000
v 0.3500000 0.1755371 -0.1159220
v 0.3500000 0.1835259 -0.1010583
v 0.3500000 0.1883745 -0.0856631
v 0.3500000 0.1900000 -0.0700000
v 0.4300000 0.1000000 -0.0900000
v 0.4300000 0.0991445 -0.0802105
v 0.4300000 0.0965926 -0.0705886
v 0.4300000 0.0923880 -0.0612987
v 0.4300000 0.0866025 -0.0525000
v 0.4300000 0.0793353 -0.0443429
v 0.4300000 0.0707107 -0.0369670
v 0.4300000 0.0608761 -0.0304985
v 0.4300000 0.0500000 -0.0250481
v 0.4300000 0.0382683 -0.0207090
v 0.4300000 0.0258819 -0.0175556
v 0.4300000 0.0130526 -0.0156416
v 0.4300000 0.0000000 -0.0150000
v 0.4300000 -0.0130526 -0.0156416
v 0.4300000 -0.0258819 -0.0175556
v 0.4300000 -0.0382683 -0.0207090
v 0.4300000 -0.0500000 -0.0250481
v 0.4300000 -0.0608761 -0.0304985
v 0.4300000 -0.0707107 -0.0369670
v 0.4300000 -0.0793353 -0.0443429
v 0.4300000 -0.0866025 -0.0525000
v 0.4300000 -0.0923880 -0.0612987
v 0.4300000 -0.0965926 -0.0705886
v 0.4300000 -0.0991445 -0.0802105
v 0.4300000 -0.1000000 -0.0900000
v 0.4300000 -0.0991445 -0.0997895
v 0.4300000 -0.0965926 -0.1094114
v 0.4300000 -0.0923880 -0.1187013
v 0.4300000 -0.0866025 -0.1275000
v 0.4300000 -0.0793353 -0.1356571
v 0.4300000 -0.0707107 -0.1430330
v 0.4300000 -0.0608761 -0.1495015
v 0.4300000 -0.0500000 -0.1549519
v 0.4300000 -0.0382683 -0.1592910
v 0.4300000 -0.0258819 -0.1624444
v 0.4300000 -0.0130526 -0.1643584
v 0.4300000 -0.0000000 -0.1650000
v 0.4300000 0.0130526 -0.1643584
v 0.4300000 0.0258819 -0.1624444
v 0.4300000 0.0382683 -0.1592910
v 0.4300000 0.0500000 -0.1549519
v 0.4300000 0.0608761 -0.1495015
v 0.4300000 0.0707107 -0.1430330
v 0.4300000 0.0793353 -0.1356571
v 0.4300000 0.0866025 -0.1275000
v 0.4300000 0.0923880 -0.1187013
v 0.4300000 0.0965926 -0.1094114
v 0.4300000 0.0991445 -0.0997895
v 0.4300000 0.1000000 -0.0900000
v 0.4700000 0.0250000 -0.0900000
v 0.4700000 0.0247861 -0.0867368
v 0.4700000 0.0241481 -0.0835295
v 0.4700000 0.0230970 -0.0804329
v 0.4700000 0.0216506 -0.0775000
v 0.4700000 0.0198338 -0.0747810
v 0.4700000 0.0176777 -0.0723223
v 0.4700000 0.0152190 -0.0701662
v 0.4700000 0.0125000 -0.0683494
v 0.4700000 0.0095671 -0.0669030
v 0.4700000 0.0064705 -0.0658519
v 0.4700000 0.0032632 -0.0652139
v 0.4700000 0.0000000 -0.0650000
v 0.4700000 -0.0032632 -0.0652139
v 0.4700000 -0.0064705 -0.0658519
v 0.4700000 -0.0095671 -0.0669030
v 0.4700000 -0.0125000 -0.0683494
v 0.4700000 -0.0152190 -0.0701662
v 0.4700000 -0.0176777 -0.0723223
v 0.4700000 -0.0198338 -0.0747810
v 0.4700000 -0.0216506 -0.0775000
v 0.4700000 -0.0230970 -0.0804329
v 0.4700000 -0.0241481 -0.0835295
v 0.4700000 -0.0247861 -0.0867368
v 0.4700000 -0.0250000 -0.0900000
v 0.4700000 -0.0247861 -0.0932632
v 0.4700000 -0.0241481 -0.0964705
v 0.4700000 -0.0230970 -0.0995671
v 0.4700000 -0.0216506 -0.1025000
v 0.4700000 -0.0198338 -0.1052190
v 0.4700000 -0.0176777 -0.1076777
v 0.4700000 -0.0152190 -0.1098338
v 0.4700000 -0.0125000 -0.1116506
v 0.4700000 -0.0095671 -0.1130970
v 0.4700000 -0.0064705 -0.1141481
v 0.4700000 -0.0032632 -0.1147861
v 0.4700000 -0.0000000 -0.1150000
v 0.4700000 0.0032632 -0.1147861
v 0.4700000 0.0064705 -0.1141481
v 0.4700000 0.0095671 -0.1130970
v 0.4700000 0.0125000 -0.1116506
v 0.4700000 0.0152190 -0.1098338
v 0.4700000 0.0176777 -0.1076777
v 0.4700000 0.0198338 -0.1052190
v 0.4700000 0.0216506 -0.1025000
v 0.4700000 0.0230970 -0.0995671
v 0.4700000 0.0241481 -0.0964705
v 0.4700000 0.0247861 -0.0932632
v 0.4700000 0.0250000 -0.0900000
vt 0.0000000 0.0000000
vt 0.0000000 0.0208333
vt 0.0000000 0.0416667
vt 0.0000000 0.0625000
vt 0.0000000 0.0833333
vt 0.0000000 0.1041667
vt 0.0000000 0.1250000
vt 0.0000000 0.1458333
vt 0.0000000 0.1666667
vt 0.0000000 0.1875000
vt 0.0000000 0.2083333
vt 0.0000000 0.2291667
vt 0.0000000 0.2500000
vt 0.0000000 0.2708333
vt 0.0000000 0.2916667
vt 0.0000000 0.3125000
vt 0.0000000 0.3333333
vt 0.0000000 0.3541667
vt 0.0000000 0.3750000
vt 0.0000000 0.3958333
vt 0.0000000 0.4166667
vt 0.0000000 0.4375000
vt 0.0000000 0.4583333
vt 0.0000000 0.4791667
vt 0.0000000 0.5000000
vt 0.0000000 0.5208333
vt 0.0000000 0.5416667
vt 0.0000000 0.5625000
vt 0.0000000 0.5833333
vt 0.0000000 0.6041667
vt 0.0000000 0.6250000
vt 0.0000000 0.6458333
vt 0.0000000 0.6666667
vt 0.0000000 0.6875000
vt 0.0000000 0.7083333
vt 0.0000000 0.7291667
vt 0.0000000 0.7500000
vt 0.0000000 0.7708333
vt 0.0000000 0.7916667
vt 0.0000000 0.8125000
vt 0.0000000 0.8333333
vt 0.0000000 0.8541667
vt 0.0000000 0.8750000
vt 0.0000000 0.8958333
vt 0.0000000 0.9166667
vt 0.0000000 0.9375000
vt 0.0000000 0.9583333
vt 0.0000000 0.9791667
vt 0.0000000 1.0000000
vt 0.1428571 0.0000000
vt 0.1428571 0.0208333
vt 0.1428571 0.0416667
vt 0.1428571 0.0625000
vt 0.1428571 0.0833333
vt 0.1428571 0.1041667
vt 0.1428571 0.1250000
vt 0.1428571 0.1458333
vt 0.1428571 0.1666667
vt 0.1428571 0.1875000
vt 0.1428571 0.2083333
vt 0.1428571 0.2291667
vt 0.1428571 0.2500000
vt 0.1428571 0.2708333
vt 0.1428571 0.2916667
vt 0.1428571 0.3125000
vt 0.1428571 0.3333333
vt 0.1428571 0.3541667
vt 0.1428571 0.3750000
vt 0.1428571 0.3958333
vt 0.1428571 0.4166667
vt 0.1428571 0.4375000
vt 0.1428571 0.4583333
vt 0.1428571 0.4791667
vt 0.1428571 0.5000000
vt 0.1428571 0.5208333
vt 0.1428571 0.5416667
vt 0.1428571 0.5625000
vt 0.1428571 0.5833333
vt 0.1428571 0.6041667
vt 0.1428571 0.6250000
vt 0.1428571 0.6458333
vt 0.1428571 0.6666667
vt 0.1428571 0.6875000
vt 0.1428571 0.7083333
vt 0.1428571 0.7291667
vt 0.1428571 0.7500000
vt 0.1428571 0.7708333
vt 0.1428571 0.7916667
vt 0.1428571 0.8125000
vt 0.1428571 0.8333333
vt 0.1428571 0.8541667
vt 0.1428571 0.8750000
vt 0.1428571 0.8958333
vt 0.1428571 0.9166667
vt 0.1428571 0.9375000
vt 0.1428571 0.9583333
vt 0.1428571 0.9791667
vt 0.1428571 1.0000000
vt 0.2857143 0.0000000
vt 0.2857143 0.0208333
vt 0.2857143 0.0416667
vt 0.2857143 0.0625000
vt 0.2857143 0.0833333
vt 0.2857143 0.1041667
vt 0.2857143 0.1250000
vt 0.2857143 0.1458333
vt 0.2857143 0.1666667
vt 0.2857143 0.1875000
vt 0.2857143 0.2083333
vt 0.2857143 0.2291667
vt 0.2857143 0.2500000
vt 0.2857143 0.2708333
vt 0.2857143 0.2916667
vt 0.2857143 0.3125000
vt 0.2857143 0.3333333
vt 0.2857143 0.3541667
vt 0.2857143 0.3750000
vt 0.2857143 0.3958333
vt 0.2857143 0.4166667
vt 0.2857143 0.4375000
vt 0.2857143 0.4583333
vt 0.2857143 0.4791667
vt 0.2857143 0.5000000
vt 0.2857143 0.5208333
vt 0.2857143 0.5416667
vt 0.2857143 0.5625000
vt 0.2857143 0.5833333
vt 0.2857143 0.6041667
vt 0.2857143 0.6250000
vt 0.2857143 0.6458333
vt 0.2857143 0.6666667
vt 0.2857143 0.6875000
vt 0.2857143 0.7083333
vt 0.2857143 0.7291667
vt 0.2857143 0.7500000
vt 0.2857143 0.7708333
vt 0.2857143 0.7916667
vt 0.2857143 0.8125000
vt 0.2857143 0.8333333
vt 0.2857143 0.8541667
vt 0.2857143 0.8750000
vt 0.2857143 0.8958333
vt 0.2857143 0.9166667
vt 0.2857143 0.9375000
vt 0.2857143 0.9583333
vt 0.2857143 0.9791667
vt 0.2857143 1.0000000
vt 0.4285714 0.0000000
vt 0.4285714 0.0208333
vt 0.4285714 0.0416667
vt 0.4285714 0.0625000
vt 0.4285714 0.0833333
vt 0.4285714 0.1041667
vt 0.4285714 0.1250000
vt 0.4285714 0.1458333
vt 0.4285714 0.1666667
vt 0.4285714 0.1875000
vt 0.4285714 0.2083333
vt 0.4285714 0.2291667
vt 0.4285714 0.2500000
vt 0.4285714 0.2708333
vt 0.4285714 0.2916667
vt 0.4285714 0.3125000
vt 0.4285714 0.3333333
vt 0.4285714 0.3541667
vt 0.4285714 0.3750000
vt 0.4285714 0.3958333
vt 0.4285714 0.4166667
vt 0.4285714 0.4375000
vt 0.4285714 0.4583333
vt 0.4285714 0.4791667
vt 0.4285714 0.5000000
vt 0.4285714 0.5208333
vt 0.4285714 0.5416667
vt 0.4285714 0.5625000
vt 0.4285714 0.5833333
vt 0.4285714 0.6041667
vt 0.4285714 0.6250000
vt 0.4285714 0.6458333
vt 0.4285714 0.6666667
vt 0.4285714 0.6875000
vt 0.4285714 0.7083333
vt 0.4285714 0.7291667
vt 0.4285714 0.7500000
vt 0.4285714 0.7708333
vt 0.4285714 0.7916667
vt 0.4285714 0.8125000
vt 0.4285714 0.8333333
vt 0.4285714 0.8541667
vt 0.4285714 0.8750000
vt 0.4285714 0.8958333
vt 0.4285714 0.9166667
vt 0.4285714 0.9375000
vt 0.4285714 0.9583333
vt 0.4285714 0.9791667
vt 0.4285714 1.0000000
vt 0.5714286 0.0000000
vt 0.5714286 0.0208333
vt 0.5714286 0.0416667
vt 0.5714286 0.0625000
vt 0.5714286 0.0833333
vt 0.5714286 0.1041667
vt 0.5714286 0.1250000
vt 0.5714286 0.1458333
vt 0.5714286 0.1666667
vt 0.5714286 0.1875000
vt 0.5714286 0.2083333
vt 0.5714286 0.2291667
vt 0.5714286 0.2500000
vt 0.5714286 0.2708333
vt 0.5714286 0.2916667
vt 0.5714286 0.3125000
vt 0.5714286 0.3333333
vt 0.5714286 0.3541667
vt 0.5714286 0.3750000
vt 0.5714286 0.3958333
vt 0.5714286 0.4166667
vt 0.5714286 0.4375000
vt 0.5714286 0.4583333
vt 0.5714286 0.4791667
vt 0.5714286 0.5000000
vt 0.5714286 0.5208333
vt 0.5714286 0.5416667
vt 0.5714286 0.5625000
vt 0.5714286 0.5833333
vt 0.5714286 0.6041667
vt 0.5714286 0.6250000
vt 0.5714286 0.6458333
vt 0.5714286 0.6666667
vt 0.5714286 0.6875000
vt 0.5714286 0.7083333
vt 0.5714286 0.7291667
vt 0.5714286 0.7500000
vt 0.5714286 0.7708333
vt 0.5714286 0.7916667
vt 0.5714286 0.8125000
vt 0.5714286 0.8333333
vt 0.5714286 0.8541667
vt 0.5714286 0.8750000
vt 0.5714286 0.8958333
vt 0.5714286 0.9166667
vt 0.5714286 0.9375000
vt 0.5714286 0.9583333
vt 0.5714286 0.9791667
vt 0.5714286 1.0000000
vt 0.7142857 0.0000000
vt 0.7142857 0.0208333
vt 0.7142857 0.0416667
vt 0.7142857 0.0625000
vt 0.7142857 0.0833333
vt 0.7142857 0.1041667
vt 0.7142857 0.1250000
vt 0.7142857 0.1458333
vt 0.7142857 0.1666667
vt 0.7142857 0.1875000
vt 0.7142857 0.2083333
vt 0.7142857 0.2291667
vt 0.7142857 0.2500000
vt 0.7142857 0.2708333
vt 0.7142857 0.2916667
vt 0.7142857 0.3125000
vt 0.7142857 0.3333333
vt 0.7142857 0.3541667
vt 0.7142857 0.3750000
vt 0.7142857 0.3958333
vt 0.7142857 0.4166667
vt 0.7142857 0.4375000
vt 0.7142857 0.4583333
vt 0.7142857 0.4791667
vt 0.7142857 0.5000000
vt 0.7142857 0.5208333
vt 0.7142857 0.5416667
vt 0.7142857 0.5625000
vt 0.7142857 0.5833333
vt 0.7142857 0.6041667
vt 0.7142857 0.6250000
vt 0.7142857 0.6458333
vt 0.7142857 0.6666667
vt 0.7142857 0.6875000
vt 0.7142857 0.7083333
vt 0.7142857 0.7291667
vt 0.7142857 0.7500000
vt 0.7142857 0.7708333
vt 0.7142857 0.7916667
vt 0.7142857 0.8125000
vt 0.7142857 0.8333333
vt 0.7142857 0.8541667
vt 0.7142857 0.8750000
vt 0.7142857 0.8958333
vt 0.7142857 0.9166667
vt 0.7142857 0.9375000
vt 0.7142857 0.9583333
vt 0.7142857 0.9791667
vt 0.7142857 1.0000000
vt 0.8571429 0.0000000
vt 0.8571429 0.0208333
vt 0.8571429 0.0416667
vt 0.8571429 0.0625000
vt 0.8571429 0.0833333
vt 0.8571429 0.1041667
vt 0.8571429 0.1250000
vt 0.8571429 0.1458333
vt 0.8571429 0.1666667
vt 0.8571429 0.1875000
vt 0.8571429 0.2083333
vt 0.8571429 0.2291667
vt 0.8571429 0.2500000
vt 0.8571429 0.2708333
vt 0.8571429 0.2916667
vt 0.8571429 0.3125000
vt 0.8571429 0.3333333
vt 0.8571429 0.3541667
vt 0.8571429 0.3750000
vt 0.8571429 0.3958333
vt 0.8571429 0.4166667
vt 0.8571429 0.4375000
vt 0.8571429 0.4583333
vt 0.8571429 0.4791667
vt 0.8571429 0.5000000
vt 0.8571429 0.5208333
vt 0.8571429 0.5416667
vt 0.8571429 0.5625000
vt 0.8571429 0.5833333
vt 0.8571429 0.6041667
vt 0.8571429 0.6250000
vt 0.8571429 0.6458333
vt 0.8571429 0.6666667
vt 0.8571429 0.6875000
vt 0.8571429 0.7083333
vt 0.8571429 0.7291667
vt 0.8571429 0.7500000
vt 0.8571429 0.7708333
vt 0.8571429 0.7916667
vt 0.8571429 0.8125000
vt 0.8571429 0.8333333
vt 0.8571429 0.8541667
vt 0.8571429 0.8750000
vt 0.8571429 0.8958333
vt 0.8571429 0.9166667
vt 0.8571429 0.9375000
vt 0.8571429 0.9583333
vt 0.8571429 0.9791667
vt 0.8571429 1.0000000
vt 1.0000000 0.0000000
vt 1.0000000 0.0208333
vt 1.0000000 0.0416667
vt 1.0000000 0.0625000
vt 1.0000000 0.0833333
vt 1.0000000 0.1041667
vt 1.0000000 0.1250000
vt 1.0000000 0.1458333
vt 1.0000000 0.1666667
vt 1.0000000 0.1875000
vt 1.0000000 0.2083333
vt 1.0000000 0.2291667
vt 1.0000000 0.2500000
vt 1.0000000 0.2708333
vt 1.0000000 0.2916667
vt 1.0000000 0.3125000
vt 1.0000000 0.3333333
vt 1.0000000 0.3541667
vt 1.0000000 0.3750000
vt 1.0000000 0.3958333
vt 1.0000000 0.4166667
vt 1.0000000 0.4375000
vt 1.0000000 0.4583333
vt 1.0000000 0.4791667
vt 1.0000000 0.5000000
vt 1.0000000 0.5208333
vt 1.0000000 0.5416667
vt 1.0000000 0.5625000
vt 1.0000000 0.5833333
vt 1.0000000 0.6041667
vt 1.0000000 0.6250000
vt 1.0000000 0.6458333
vt 1.0000000 0.6666667
vt 1.0000000 0.6875000
vt 1.0000000 0.7083333
vt 1.0000000 0.7291667
vt 1.0000000 0.7500000
vt 1.0000000 0.7708333
vt 1.0000000 0.7916667
vt 1.0000000 0.8125000
vt 1.0000000 0.8333333
vt 1.0000000 0.8541667
vt 1.0000000 0.8750000
vt 1.0000000 0.8958333
vt 1.0000000 0.9166667
vt 1.0000000 0.9375000
vt 1.0000000 0.9583333
vt 1.0000000 0.9791667
vt 1.0000000 1.0000000
vn 0.8317810 -0.5545206 -0.0254416
vn 0.8321939 -0.5533760 -0.0350480
vn 0.8342593 -0.5444012 -0.0873999
vn 0.8380193 -0.5276154 -0.1390884
vn 0.8433274 -0.5028370 -0.1896150
vn 0.8499514 -0.4698602 -0.2383569
vn 0.8575595 -0.4285240 -0.2845328
vn 0.8657115 -0.3788041 -0.3271866
vn 0.8738627 -0.3209247 -0.3652003
vn 0.8813906 -0.2554728 -0.3973464
vn 0.8876482 -0.1834907 -0.4223883
vn 0.8920435 -0.1065116 -0.4392194
vn 0.8941311 -0.0265088 -0.4470200
vn 0.8936912 0.0542503 -0.4453907
vn 0.8907725 0.1334232 -0.4344222
vn 0.8856814 0.2088295 -0.4146790
vn 0.8789245 0.2786478 -0.3871009
vn 0.8711213 0.3415259 -0.3528566
vn 0.8629153 0.3965975 -0.3131894
vn 0.8549039 0.4434205 -0.2692908
vn 0.8475948 0.4818732 -0.2222188
vn 0.8413891 0.5120384 -0.1728613
vn 0.8365827 0.5340985 -0.1219351
vn 0.8333779 0.5482516 -0.0700107
vn 0.8318970 0.5546525 -0.0175501
vn 0.8321939 0.5533760 0.0350480
vn 0.8342593 0.5444012 0.0873999
vn 0.8380193 0.5276154 0.1390884
vn 0.8433274 0.5028370 0.1896150
vn 0.8499514 0.4698602 0.2383569
vn 0.8575595 0.4285240 0.2845328
vn 0.8657115 0.3788041 0.3271866
vn 0.8738627 0.3209247 0.3652003
vn 0.8813906 0.2554728 0.3973464
vn 0.8876482 0.1834907 0.4223883
vn 0.8920435 0.1065116 0.4392194
vn 0.8941311 0.0265088 0.4470200
vn 0.8936912 -0.0542503 0.4453907
vn 0.8907725 -0.1334232 0.4344222
vn 0.8856814 -0.2088295 0.4146790
vn 0.8789245 -0.2786478 0.3871009
vn 0.8711213 -0.3415259 0.3528566
vn 0.8629153 -0.3965975 0.3131894
vn 0.8549039 -0.4434205 0.2692908
vn 0.8475948 -0.4818732 0.2222188
vn 0.8413891 -0.5120384 0.1728613
vn 0.8365827 -0.5340985 0.1219351
vn 0.8333779 -0.5482516 0.0700107
vn 0.8317276 -0.5545510 0.0265032
vn 0.6609820 -0.7495355 -0.0360463
vn 0.5956074 -0.8003694 -0.0682684
vn 0.5974712 -0.7881694 -0.1477066
vn 0.6006012 -0.7665719 -0.2272569
vn 0.6050034 -0.7347678 -0.3067364
vn 0.6106438 -0.6916675 -0.3856296
vn 0.6174016 -0.6360060 -0.4629381
vn 0.6250112 -0.5665373 -0.5370256
vn 0.6330092 -0.4823523 -0.6055045
vn 0.6407115 -0.3833227 -0.6652462
vn 0.6472586 -0.2706033 -0.7126220
vn 0.6517567 -0.1470113 -0.7440436
vn 0.6534972 -0.0170323 -0.7567373
vn 0.6521769 0.1137189 -0.7494887
vn 0.6480046 0.2394829 -0.7230062
vn 0.6416316 0.3554012 -0.6797050
vn 0.6339468 0.4581960 -0.6230312
vn 0.6258456 0.5462988 -0.5566641
vn 0.6180656 0.6195455 -0.4838990
vn 0.6111208 0.6786851 -0.4073303
vn 0.6053127 0.7249100 -0.3287888
vn 0.6007808 0.7595038 -0.2494322
vn 0.5975624 0.7836170 -0.1698929
vn 0.5956438 0.7981419 -0.0904320
vn 0.5949982 0.8036507 -0.0110757
vn 0.5956074 0.8003694 0.0682684
vn 0.5974712 0.7881694 0.1477066
vn 0.6006012 0.7665719 0.2272569
vn 0.6050034 0.7347678 0.3067364
vn 0.6106438 0.6916675 0.3856296
vn 0.6174016 0.6360060 0.4629381
vn 0.6250112 0.5665373 0.5370256
vn 0.6330092 0.4823523 0.6055045
vn 0.6407115 0.3833227 0.6652462
vn 0.6472586 0.2706033 0.7126220
vn 0.6517567 0.1470113 0.7440436
vn 0.6534972 0.0170323 0.7567373
vn 0.6521769 -0.1137189 0.7494887
vn 0.6480046 -0.2394829 0.7230062
vn 0.6416316 -0.3554012 0.6797050
vn 0.6339468 -0.4581960 0.6230312
vn 0.6258456 -0.5462988 0.5566641
vn 0.6180656 -0.6195455 0.4838990
vn 0.6111208 -0.6786851 0.4073303
vn 0.6053127 -0.7249100 0.3287888
vn 0.6007808 -0.7595038 0.2494322
vn 0.5975624 -0.7836170 0.1698929
vn 0.5956438 -0.7981419 0.0904320
vn 0.5486601 -0.8349939 0.0419196
vn 0.2615504 -0.9639182 -0.0495289
vn 0.1964941 -0.9754116 -0.0998113
vn 0.1922263 -0.9598709 -0.2041983
vn 0.1850373 -0.9329227 -0.3088954
vn 0.1752014 -0.8934207 -0.4136470
vn 0.1631399 -0.8398689 -0.5176926
vn 0.1494462 -0.7705889 -0.6195632
vn 0.1349062 -0.6840063 -0.7168931
vn 0.1204993 -0.5790828 -0.8063145
vn 0.1073605 -0.4558797 -0.8835426
vn 0.0966835 -0.3161370 -0.9437742
vn 0.0895589 -0.1636442 -0.9824458
vn 0.0867765 -0.0041252 -0.9962193
vn 0.0886528 0.1555013 -0.9838496
vn 0.0949573 0.3083108 -0.9465345
vn 0.1049723 0.4485616 -0.8875660
vn 0.1176548 0.5724329 -0.8114665
vn 0.1318320 0.6781422 -0.7230100
vn 0.1463662 0.7655815 -0.6264678
vn 0.1602577 0.8357457 -0.5252110
vn 0.1726905 0.8901763 -0.4216208
vn 0.1830358 0.9305316 -0.3171889
vn 0.1908364 0.9583008 -0.2126997
vn 0.1957826 0.9746345 -0.1084286
vn 0.1976919 0.9802547 -0.0043272
vn 0.1964941 0.9754116 0.0998113
vn 0.1922263 0.9598709 0.2041983
vn 0.1850373 0.9329227 0.3088954
vn 0.1752014 0.8934207 0.4136470
vn 0.1631399 0.8398689 0.5176926
vn 0.1494462 0.7705889 0.6195632
vn 0.1349062 0.6840063 0.7168931
vn 0.1204993 0.5790828 0.8063145
vn 0.1073605 0.4558797 0.8835426
vn 0.0966835 0.3161370 0.9437742
vn 0.0895589 0.1636442 0.9824458
vn 0.0867765 0.0041252 0.9962193
vn 0.0886528 -0.1555013 0.9838496
vn 0.0949573 -0.3083108 0.9465345
vn 0.1049723 -0.4485616 0.8875660
vn 0.1176548 -0.5724329 0.8114665
vn 0.1318320 -0.6781422 0.7230100
vn 0.1463662 -0.7655815 0.6264678
vn 0.1602577 -0.8357457 0.5252110
vn 0.1726905 -0.8901763 0.4216208
vn 0.1830358 -0.9305316 0.3171889
vn 0.1908364 -0.9583008 0.2126997
vn 0.1957826 -0.9746345 0.1084286
vn 0.1372793 -0.9890499 0.0541719
vn -0.0649789 -0.9962759 -0.0566749
vn -0.1023354 -0.9874386 -0.1203846
vn -0.1190179 -0.9642665 -0.2366957
vn -0.1409718 -0.9259774 -0.3502755
vn -0.1671918 -0.8723318 -0.4594389
vn -0.1963236 -0.8033413 -0.5622275
vn -0.2267246 -0.7194490 -0.6564976
vn -0.2565730 -0.6216522 -0.7400803
vn -0.2840139 -0.5115284 -0.8109715
vn -0.3073188 -0.3911588 -0.8674964
vn -0.3250272 -0.2629827 -0.9084038
vn -0.3360501 -0.1296366 -0.9328798
vn -0.3397286 0.0061714 -0.9405033
vn -0.3358594 0.1417311 -0.9311878
vn -0.3246970 0.2743594 -0.9051512
vn -0.3069417 0.4014247 -0.8629281
vn -0.2837068 0.5204064 -0.8054114
vn -0.2564553 0.6290015 -0.7338854
vn -0.2268980 0.7252630 -0.6500083
vn -0.1968579 0.8077238 -0.5557241
vn -0.1681189 0.8754572 -0.4531122
vn -0.1422887 0.9280455 -0.3442173
vn -0.1206958 0.9654609 -0.2309065
vn -0.1043306 0.9878955 -0.1147941
vn -0.0938245 0.9955849 0.0027525
vn -0.0894538 0.9886705 0.1205348
vn -0.0911503 0.9671266 0.2373977
vn -0.0985116 0.9307683 0.3520878
vn -0.1108093 0.8793369 0.4631283
vn -0.1270012 0.8126512 0.5687431
vn -0.1457636 0.7307956 0.6668513
vn -0.1655539 0.6343074 0.7551463
vn -0.1847125 0.5243176 0.8312475
vn -0.2015975 0.4026114 0.8928956
vn -0.2147355 0.2715942 0.9381499
vn -0.2229659 0.1341763 0.9655480
vn -0.2255559 -0.0063926 0.9742093
vn -0.2222711 -0.1467076 0.9638840
vn -0.2133973 -0.2833945 0.9349594
vn -0.1997096 -0.4132882 0.8884306
vn -0.1823955 -0.5336019 0.8258335
vn -0.1629369 -0.6420692 0.7491320
vn -0.1429687 -0.7370355 0.6605593
vn -0.1241331 -0.8174728 0.5624315
vn -0.1079513 -0.8829079 0.4569685
vn -0.0957286 -0.9332793 0.3461586
vn -0.0884942 -0.9687551 0.2316944
vn -0.0869711 -0.9895525 0.1149866
vn -0.1228196 -0.9905189 0.0615437
vn -0.1242790 -0.9901285 -0.0648088
vn -0.0951886 -0.9851534 -0.1428702
vn -0.1459890 -0.9491750 -0.2788443
vn -0.2032584 -0.8916312 -0.4045736
vn -0.2631853 -0.8153110 -0.5157533
vn -0.3218818 -0.7244533 -0.6095568
vn -0.3760390 -0.6239320 -0.6850574
vn -0.4233179 -0.5182995 -0.7430798
vn -0.4623916 -0.4110826 -0.7856240
vn -0.4927336 -0.3045035 -0.8151633
vn -0.5143110 -0.1995604 -0.8340622
vn -0.5273050 -0.0963028 -0.8442010
vn -0.5319091 0.0058382 -0.8467813
vn -0.5282148 0.1077341 -0.8422485
vn -0.5161721 0.2102666 -0.8302736
vn -0.4956199 0.3140400 -0.8097776
vn -0.4663899 0.4190774 -0.7790088
vn -0.4284924 0.5245050 -0.7357233
vn -0.3823800 0.6282826 -0.6775297
vn -0.3292464 0.7271023 -0.6024277
vn -0.2712530 0.8166141 -0.5094735
vn -0.2115327 0.8920561 -0.3993618
vn -0.1538640 0.9491583 -0.2746350
vn -0.1020647 0.9849683 -0.1393562
vn -0.0593248 0.9982374 0.0016258
vn -0.0277282 0.9892666 0.1434668
vn -0.0080815 0.9594230 0.2818549
vn 0.0000001 0.9106407 0.4131991
vn -0.0021302 0.8451030 0.5345993
vn -0.0124187 0.7651171 0.6437714
vn -0.0283834 0.6730822 0.7390228
vn -0.0473815 0.5714438 0.8192722
vn -0.0668581 0.4625848 0.8840505
vn -0.0845514 0.3486784 0.9334208
vn -0.0986334 0.2315606 0.9678074
vn -0.1077810 0.1126804 0.9877684
vn -0.1111945 -0.0068516 0.9937750
vn -0.1085907 -0.1261284 0.9860526
vn -0.1001957 -0.2442641 0.9645185
vn -0.0867463 -0.3602095 0.9288295
vn -0.0694948 -0.4726136 0.8785254
vn -0.0501930 -0.5797649 0.8132363
vn -0.0310309 -0.6796283 0.7329001
vn -0.0145101 -0.7699553 0.6379328
vn -0.0032547 -0.8484186 0.5293159
vn 0.0002238 -0.9127098 0.4086082
vn -0.0062148 -0.9605785 0.2779394
vn -0.0240694 -0.9898522 0.1400472
vn 0.0358707 -0.9962761 0.0784037
vn -0.1438860 -0.9857553 -0.0870828
vn -0.3207205 -0.9288306 -0.1855048
vn -0.3775534 -0.8613097 -0.3399985
vn -0.4277504 -0.7734484 -0.4677683
vn -0.4699738 -0.6758839 -0.5677196
vn -0.5043457 -0.5765166 -0.6428562
vn -0.5316738 -0.4799851 -0.6978089
vn -0.5529179 -0.3883493 -0.7372019
vn -0.5689346 -0.3020066 -0.7649218
vn -0.5803969 -0.2204127 -0.7839373
vn -0.5877920 -0.1425419 -0.7963557
vn -0.5914446 -0.0671451 -0.8035451
vn -0.5915412 0.0071164 -0.8062433
vn -0.5881480 0.0816044 -0.8046258
vn -0.5812199 0.1576649 -0.7983265
vn -0.5706013 0.2365850 -0.7864106
vn -0.5560196 0.3195139 -0.7673025
vn -0.5370746 0.4073081 -0.7386819
vn -0.5132349 0.5002447 -0.6973846
vn -0.4838626 0.5975347 -0.6393976
vn -0.4483163 0.6966047 -0.5601378
vn -0.4062062 0.7922649 -0.4553162
vn -0.3578629 0.8762534 -0.3226672
vn -0.3049277 0.9380940 -0.1643132
vn -0.2506569 0.9680066 0.0115880
vn -0.1993893 0.9609429 0.1919182
vn -0.1551695 0.9188862 0.3627266
vn -0.1204090 0.8494565 0.5137367
vn -0.0954754 0.7622197 0.6402387
vn -0.0791890 0.6655528 0.7421378
vn -0.0696169 0.5653474 0.8219099
vn -0.0646990 0.4650973 0.8828922
vn -0.0625952 0.3665134 0.9283048
vn -0.0618251 0.2701486 0.9608316
vn -0.0612967 0.1758613 0.9825047
vn -0.0602915 0.0831194 0.9947141
vn -0.0584391 -0.0088112 0.9982521
vn -0.0557000 -0.1007448 0.9933519
vn -0.0523614 -0.1934861 0.9797048
vn -0.0490472 -0.2877405 0.9564517
vn -0.0467410 -0.3839948 0.9221514
vn -0.0468119 -0.4823294 0.8747382
vn -0.0510247 -0.5821079 0.8115090
vn -0.0614917 -0.6814923 0.7292373
vn -0.0804848 -0.7767807 0.6246071
vn -0.1099940 -0.8617571 0.4952535
vn -0.1509548 -0.9276463 0.3415918
vn -0.2023238 -0.9646331 0.1689617
vn -0.4107765 -0.9071549 0.0912834
vn -0.7831924 -0.6189428 -0.0593247
vn -0.7991192 -0.5873579 -0.1281372
vn -0.7954825 -0.5604164 -0.2305232
vn -0.7863574 -0.5250885 -0.3254597
vn -0.7730292 -0.4824512 -0.4119062
vn -0.7568762 -0.4335211 -0.4890787
vn -0.7393131 -0.3792617 -0.5563962
vn -0.7217346 -0.3205909 -0.6134498
vn -0.7054552 -0.2583799 -0.6599794
vn -0.6916463 -0.1934467 -0.6958475
vn -0.6812771 -0.1265505 -0.7210038
vn -0.6750639 -0.0583939 -0.7354447
vn -0.6734330 0.0103645 -0.7391756
vn -0.6764986 0.0790864 -0.7321851
vn -0.6840557 0.1471241 -0.7144385
vn -0.6955887 0.2137929 -0.6858928
vn -0.7102957 0.2783496 -0.6465304
vn -0.7271285 0.3399838 -0.5964019
vn -0.7448466 0.3978202 -0.5356702
vn -0.7620805 0.4509280 -0.4646474
vn -0.7773978 0.4983310 -0.3838213
vn -0.7893677 0.5390108 -0.2938809
vn -0.7966225 0.5719042 -0.1957501
vn -0.7979228 0.5959050 -0.0906448
vn -0.7922406 0.6098860 0.0198473
vn -0.7788734 0.6127688 0.1336808
vn -0.7575914 0.6036540 0.2483087
vn -0.7287943 0.5820034 0.3607367
vn -0.6936257 0.5478294 0.4677247
vn -0.6539777 0.5018139 0.5661236
vn -0.6123443 0.4452895 0.6532624
vn -0.5715391 0.3800639 0.7272513
vn -0.5343580 0.3081429 0.7870892
vn -0.5032806 0.2314501 0.8325500
vn -0.4802772 0.1516335 0.8639104
vn -0.4667265 0.0700007 0.8816271
vn -0.4634082 -0.0124241 0.8860578
vn -0.4705196 -0.0947594 0.8772867
vn -0.4876797 -0.1760865 0.8550802
vn -0.5139113 -0.2552764 0.8189806
vn -0.5476220 -0.3308725 0.7685268
vn -0.5866294 -0.4010738 0.7035664
vn -0.6282818 -0.4638517 0.6245827
vn -0.6697012 -0.5171925 0.5329279
vn -0.7081177 -0.5594015 0.4308587
vn -0.7412112 -0.5893640 0.3213346
vn -0.7673561 -0.6066683 0.2076491
vn -0.7857087 -0.6115619 0.0930264
vn -0.8149575 -0.5774285 0.0492007
vn -0.8815578 -0.4704996 -0.0385477
vn -0.8796392 -0.4653461 -0.0984267
vn -0.8745736 -0.4535769 -0.1714323
vn -0.8669349 -0.4351370 -0.2430632
vn -0.8570034 -0.4097632 -0.3124728
vn -0.8452197 -0.3772288 -0.3785525
vn -0.8322165 -0.3374502 -0.4399353
vn -0.8188253 -0.2905918 -0.4950572
vn -0.8060421 -0.2371464 -0.5422709
vn -0.7949426 -0.1779723 -0.5799932
vn -0.7865551 -0.1142793 -0.6068536
vn -0.7817131 -0.0475685 -0.6218214
vn -0.7809224 0.0204592 -0.6242929
vn -0.7842744 0.0880103 -0.6141399
vn -0.7914281 0.1533133 -0.5917234
vn -0.8016665 0.2147338 -0.5578712
vn -0.8140127 0.2708819 -0.5138155
vn -0.8273778 0.3206984 -0.4610841
vn -0.8407040 0.3634986 -0.4013546
vn -0.8530730 0.3989638 -0.3362952
vn -0.8637639 0.4270791 -0.2674235
vn -0.8722634 0.4480351 -0.1960131
vn -0.8782399 0.4621156 -0.1230605
vn -0.8815046 0.4695937 -0.0493095
vn -0.8819727 0.4706539 0.0246786
vn -0.8796392 0.4653461 0.0984267
vn -0.8745736 0.4535769 0.1714323
vn -0.8669349 0.4351370 0.2430632
vn -0.8570034 0.4097632 0.3124728
vn -0.8452197 0.3772288 0.3785525
vn -0.8322165 0.3374502 0.4399353
vn -0.8188253 0.2905918 0.4950572
vn -0.8060421 0.2371464 0.5422709
vn -0.7949426 0.1779723 0.5799932
vn -0.7865551 0.1142793 0.6068536
vn -0.7817131 0.0475685 0.6218214
vn -0.7809224 -0.0204592 0.6242929
vn -0.7842744 -0.0880103 0.6141399
vn -0.7914281 -0.1533133 0.5917234
vn -0.8016665 -0.2147338 0.5578712
vn -0.8140127 -0.2708819 0.5138155
vn -0.8273778 -0.3206984 0.4610841
vn -0.8407040 -0.3634986 0.4013546
vn -0.8530730 -0.3989638 0.3362952
vn -0.8637639 -0.4270791 0.2674235
vn -0.8722634 -0.4480351 0.1960131
vn -0.8782399 -0.4621156 0.1230605
vn -0.8815046 -0.4695937 0.0493095
vn -0.8819335 -0.4703645 0.0308293
f 1/1/1 50/50/50 2/2/2
f 2/2/2 50/50/50 51/51/51
f 2/2/2 51/51/51 3/3/3
f 3/3/3 51/51/51 52/52/52
f 3/3/3 52/52/52 4/4/4
f 4/4/4 52/52/52 53/53/53
f 4/4/4 53/53/53 5/5/5
f 5/5/5 53/53/53 54/54/54
f 5/5/5 54/54/54 6/6/6
f 6/6/6 54/54/54 55/55/55
f 6/6/6 55/55/55 7/7/7
f 7/7/7 55/55/55 56/56/56
f 7/7/7 56/56/56 8/8/8
f 8/8/8 56/56/56 57/57/57
f 8/8/8 57/57/57 9/9/9
f 9/9/9 57/57/57 58/58/58
f 9/9/9 58/58/58 10/10/10
f 10/10/10 58/58/58 59/59/59
f 10/10/10 59/59/59 11/11/11
f 11/11/11 59/59/59 60/60/60
f 11/11/11 60/60/60 12/12/12
f 12/12/12 60/60/60 61/61/61
f 12/12/12 61/61/61 13/13/13
f 13/13/13 61/61/61 62/62/62
f 13/13/13 62/62/62 14/14/14
f 14/14/14 62/62/62 63/63/63
f 14/14/14 63/63/63 15/15/15
f 15/15/15 63/63/63 64/64/64
f 15/15/15 64/64/64 16/16/16
f 16/16/16 64/64/64 65/65/65
f 16/16/16 65/65/65 17/17/17
f 17/17/17 65/65/65 66/66/66
f 17/17/17 66/66/66 18/18/18
f 18/18/18 66/66/66 67/67/67
f 18/18/18 67/67/67 19/19/19
f 19/19/19 67/67/67 68/68/68
f 19/19/19 68/68/68 20/20/20
f 20/20/20 68/68/68 69/69/69
f 20/20/20 69/69/69 21/21/21
f 21/21/21 69/69/69 70/70/70
f 21/21/21 70/70/70 22/22/22
f 22/22/22 70/70/70 71/71/71
f 22/22/22 71/71/71 23/23/23
f 23/23/23 71/71/71 72/72/72
f 23/23/23 72/72/72 24/24/24
f 24/24/24 72/72/72 73/73/73
f 24/24/24 73/73/73 25/25/25
f 25/25/25 73/73/73 74/74/74
f 25/25/25 74/74/74 26/26/26
f 26/26/26 74/74/74 75/75/75
f 26/26/26 75/75/75 27/27/27
f 27/27/27 75/75/75 76/76/76
f 27/27/27 76/76/76 28/28/28
f 28/28/28 76/76/76 77/77/77
f 28/28/28 77/77/77 29/29/29
f 29/29/29 77/77/77 78/78/78
f 29/29/29 78/78/78 30/30/30
f 30/30/30 78/78/78 79/79/79
f 30/30/30 79/79/79 31/31/31
f 31/31/31 79/79/79 80/80/80
f 31/31/31 80/80/80 32/32/32
f 32/32/32 80/80/80 81/81/81
f 32/32/32 81/81/81 33/33/33
f 33/33/33 81/81/81 82/82/82
f 33/33/33 82/82/82 34/34/34
f 34/34/34 82/82/82 83/83/83
f 34/34/34 83/83/83 35/35/35
f 35/35/35 83/83/83 84/84/84
f 35/35/35 84/84/84 36/36/36
f 36/36/36 84/84/84 85/85/85
f 36/36/36 85/85/85 37/37/37
f 37/37/37 85/85/85 86/86/86
f 37/37/37 86/86/86 38/38/38
f 38/38/38 86/86/86 87/87/87
f 38/38/38 87/87/87 39/39/39
f 39/39/39 87/87/87 88/88/88
f 39/39/39 88/88/88 40/40/40
f 40/40/40 88/88/88 89/89/89
f 40/40/40 89/89/89 41/41/41
f 41/41/41 89/89/89 90/90/90
f 41/41/41 90/90/90 42/42/42
f 42/42/42 90/90/90 91/91/91
f 42/42/42 91/91/91 43/43/43
f 43/43/43 91/91/91 92/92/92
f 43/43/43 92/92/92 44/44/44
f 44/44/44 92/92/92 93/93/93
f 44/44/44 93/93/93 45/45/45
f 45/45/45 93/93/93 94/94/94
f 45/45/45 94/94/94 46/46/46
f 46/46/46 94/94/94 95/95/95
f 46/46/46 95/95/95 47/47/47
f 47/47/47 95/95/95 96/96/96
f 47/47/47 96/96/96 48/48/48
f 48/48/48 96/96/96 97/97/97
f 48/48/48 97/97/97 49/49/49
f 49/49/49 97/97/97 98/98/98
f 50/50/50 99/99/99 51/51/51
f 51/51/51 99/99/99 100/100/100
f 51/51/51 100/100/100 52/52/52
f 52/52/52 100/100/100 101/101/101
f 52/52/52 101/101/101 53/53/53
f 53/53/53 101/101/101 102/102/102
f 53/53/53 102/102/102 54/54/54
f 54/54/54 102/102/102 103/103/103
f 54/54/54 103/103/103 55/55/55
f 55/55/55 103/103/103 104/104/104
f 55/55/55 104/104/104 56/56/56
f 56/56/56 104/104/104 105/105/105
f 56/56/56 105/105/105 57/57/57
f 57/57/57 105/105/105 106/106/106
f 57/57/57 106/106/106 58/58/58
f 58/58/58 106/106/106 107/107/107
f 58/58/58 107/107/107 59/59/59
f 59/59/59 107/107/107 108/108/108
f 59/59/59 108/108/108 60/60/60
f 60/60/60 108/108/108 109/109/109
f 60/60/60 109/109/109 61/61/61
f 61/61/61 109/109/109 110/110/110
f 61/61/61 110/110/110 62/62/62
f 62/62/62 110/110/110 111/111/111
f 62/62/62 111/111/111 63/63/63
f 63/63/63 111/111/111 112/112/112
f 63/63/63 112/112/112 64/64/64
f 64/64/64 112/112/112 113/113/113
f 64/64/64 113/113/113 65/65/65
f 65/65/65 113/113/113 114/114/114
f 65/65/65 114/114/114 66/66/66
f 66/66/66 114/114/114 115/115/115
f 66/66/66 115/115/115 67/67/67
f 67/67/67 115/115/115 116/116/116
f 67/67/67 116/116/116 68/68/68
f 68/68/68 116/116/116 117/117/117
f 68/68/68 117/117/117 69/69/69
f 69/69/69 117/117/117 118/118/118
f 69/69/69 118/118/118 70/70/70
f 70/70/70 118/118/118 119/119/119
f 70/70/70 119/119/119 71/71/71
f 71/71/71 119/119/119 120/120/120
f 71/71/71 120/120/120 72/72/72
f 72/72/72 120/120/120 121/121/121
f 72/72/72 121/121/121 73/73/73
f 73/73/73 121/121/121 122/122/122
f 73/73/73 122/122/122 74/74/74
f 74/74/74 122/122/122 123/123/123
f 74/74/74 123/123/123 75/75/75
f 75/75/75 123/123/123 124/124/124
f 75/75/75 124/124/124 76/76/76
f 76/76/76 124/124/124 125/125/125
f 76/76/76 125/125/125 77/77/77
f 77/77/77 125/125/125 126/126/126
f 77/77/77 126/126/126 78/78/78
f 78/78/78 126/126/126 127/127/127
f 78/78/78 127/127/127 79/79/79
f 79/79/79 127/127/127 128/128/128
f 79/79/79 128/128/128 80/80/80
f 80/80/80 128/128/128 129/129/129
f 80/80/80 129/129/129 81/81/81
f 81/81/81 129/129/129 130/130/130
f 81/81/81 130/130/130 82/82/82
f 82/82/82 130/130/130 131/131/131
f 82/82/82 131/131/131 83/83/83
f 83/83/83 131/131/131 132/132/132
f 83/83/83 132/132/132 84/84/84
f 84/84/84 132/132/132 133/133/133
f 84/84/84 133/133/133 85/85/85
f 85/85/85 133/133/133 134/134/134
f 85/85/85 134/134/134 86/86/86
f 86/86/86 134/134/134 135/135/135
f 86/86/86 135/135/135 87/87/87
f 87/87/87 135/135/135 136/136/136
f 87/87/87 136/136/136 88/88/88
f 88/88/88 136/136/136 137/137/137
f 88/88/88 137/137/137 89/89/89
f 89/89/89 137/137/137 138/138/138
f 89/89/89 138/138/138 90/90/90
f 90/90/90 138/138/138 139/139/139
f 90/90/90 139/139/139 91/91/91
f 91/91/91 139/139/139 140/140/140
f 91/91/91 140/140/140 92/92/92
f 92/92/92 140/140/140 141/141/141
f 92/92/92 141/141/141 93/93/93
f 93/93/93 141/141/141 142/142/142
f 93/93/93 142/142/142 94/94/94
f 94/94/94 142/142/142 143/143/143
f 94/94/94 143/143/143 95/95/95
f 95/95/95 143/143/143 144/144/144
f 95/95/95 144/144/144 96/96/96
f 96/96/96 144/144/144 145/145/145
f 96/96/96 145/145/145 97/97/97
f 97/97/97 145/145/145 146/146/146
f 97/97/97 146/146/146 98/98/98
f 98/98/98 146/146/146 147/147/147
f 99/99/99 148/148/148 100/100/100
f 100/100/100 148/148/148 149/149/149
f 100/100/100 149/149/149 101/101/101
f 101/101/101 149/149/149 150/150/150
f 101/101/101 150/150/150 102/102/102
f 102/102/102 150/150/150 151/151/151
f 102/102/102 151/151/151 103/103/103
f 103/103/103 151/151/151 152/152/152
f 103/103/103 152/152/152 104/104/104
f 104/104/104 152/152/152 153/153/153
f 104/104/104 153/153/153 105/105/105
f 105/105/105 153/153/153 154/154/154
f 105/105/105 154/154/154 106/106/106
f 106/106/106 154/154/154 155/155/155
f 106/106/106 155/155/155 107/107/107
f 107/107/107 155/155/155 156/156/156
f 107/107/107 156/156/156 108/108/108
f 108/108/108 156/156/156 157/157/157
f 108/108/108 157/157/157 109/109/109
f 109/109/109 157/157/157 158/158/158
f 109/109/109 158/158/158 110/110/110
f 110/110/110 158/158/158 159/159/159
f 110/110/110 159/159/159 111/111/111
f 111/111/111 159/159/159 160/160/160
f 111/111/111 160/160/160 112/112/112
f 112/112/112 160/160/160 161/161/161
f 112/112/112 161/161/161 113/113/113
f 113/113/113 161/161/161 162/162/162
f 113/113/113 162/162/162 114/114/114
f 114/114/114 162/162/162 163/163/163
f 114/114/114 163/163/163 115/115/115
f 115/115/115 163/163/163 164/164/164
f 115/115/115 164/164/164 116/116/116
f 116/116/116 164/164/164 165/165/165
f 116/116/116 165/165/165 117/117/117
f 117/117/117 165/165/165 166/166/166
f 117/117/117 166/166/166 118/118/118
f 118/118/118 166/166/166 167/167/167
f 118/118/118 167/167/167 119/119/119
f 119/119/119 167/167/167 168/168/168
f 119/119/119 168/168/168 120/120/120
f 120/120/120 168/168/168 169/169/169
f 120/120/120 169/169/169 121/121/121
f 121/121/121 169/169/169 170/170/170
f 121/121/121 170/170/170 122/122/122
f 122/122/122 170/170/170 171/171/171
f 122/122/122 171/171/171 123/123/123
f 123/123/123 171/171/171 172/172/172
f 123/123/123 172/172/172 124/124/124
f 124/124/124 172/172/172 173/173/173
f 124/124/124 173/173/173 125/125/125
f 125/125/125 173/173/173 174/174/174
f 125/125/125 174/174/174 126/126/126
f 126/126/126 174/174/174 175/175/175
f 126/126/126 175/175/175 127/127/127
f 127/127/127 175/175/175 176/176/176
f 127/127/127 176/176/176 128/128/128
f 128/128/128 176/176/176 177/177/177
f 128/128/128 177/177/177 129/129/129
f 129/129/129 177/177/177 178/178/178
f 129/129/129 178/178/178 130/130/130
f 130/130/130 178/178/178 179/179/179
f 130/130/130 179/179/179 131/131/131
f 131/131/131 179/179/179 180/180/180
f 131/131/131 180/180/180 132/132/132
f 132/132/132 180/180/180 181/181/181
f 132/132/132 181/181/181 133/133/133
f 133/133/133 181/181/181 182/182/182
f 133/133/133 182/182/182 134/134/134
f 134/134/134 182/182/182 183/183/183
f 134/134/134 183/183/183 135/135/135
f 135/135/135 183/183/183 184/184/184
f 135/135/135 184/184/184 136/136/136
f 136/136/136 184/184/184 185/185/185
f 136/136/136 185/185/185 137/137/137
f 137/137/137 185/185/185 186/186/186
f 137/137/137 186/186/186 138/138/138
f 138/138/138 186/186/186 187/187/187
f 138/138/138 187/187/187 139/139/139
f 139/139/139 187/187/187 188/188/188
f 139/139/139 188/188/188 140/140/140
f 140/140/140 188/188/188 189/189/189
f 140/140/140 189/189/189 141/141/141
f 141/141/141 189/189/189 190/190/190
f 141/141/141 190/190/190 142/142/142
f 142/142/142 190/190/190 191/191/191
f 142/142/142 191/191/191 143/143/143
f 143/143/143 191/191/191 192/192/192
f 143/143/143 192/192/192 144/144/144
f 144/144/144 192/192/192 193/193/193
f 144/144/144 193/193/193 145/145/145
f 145/145/145 193/193/193 194/194/194
f 145/145/145 194/194/194 146/146/146
f 146/146/146 194/194/194 195/195/195
f 146/146/146 195/195/195 147/147/147
f 147/147/147 195/195/195 196/196/196
f 148/148/148 197/197/197 149/149/149
f 149/149/149 197/197/197 198/198/198
f 149/149/149 198/198/198 150/150/150
f 150/150/150 198/198/198 199/199/199
f 150/150/150 199/199/199 151/151/151
f 151/151/151 199/199/199 200/200/200
f 151/151/151 200/200/200 152/152/152
f 152/152/152 200/200/200 201/201/201
f 152/152/152 201/201/201 153/153/153
f 153/153/153 201/201/201 202/202/202
f 153/153/153 202/202/202 154/154/154
f 154/154/154 202/202/202 203/203/203
f 154/154/154 203/203/203 155/155/155
f 155/155/155 203/203/203 204/204/204
f 155/155/155 204/204/204 156/156/156
f 156/156/156 204/204/204 205/205/205
f 156/156/156 205/205/205 157/157/157
f 157/157/157 205/205/205 206/206/206
f 157/157/157 206/206/206 158/158/158
f 158/158/158 206/206/206 207/207/207
f 158/158/158 207/207/207 159/159/159
f 159/159/159 207/207/207 208/208/208
f 159/159/159 208/208/208 160/160/160
f 160/160/160 208/208/208 209/209/209
f 160/160/160 209/209/209 161/161/161
f 161/161/161 209/209/209 210/210/210
f 161/161/161 210/210/210 162/162/162
f 162/162/162 210/210/210 211/211/211
f 162/162/162 211/211/211 163/163/163
f 163/163/163 211/211/211 212/212/212
f 163/163/163 212/212/212 164/164/164
f 164/164/164 212/212/212 213/213/213
f 164/164/164 213/213/213 165/165/165
f 165/165/165 213/213/213 214/214/214
f 165/165/165 214/214/214 166/166/166
f 166/166/166 214/214/214 215/215/215
f 166/166/166 215/215/215 167/167/167
f 167/167/167 215/215/215 216/216/216
f 167/167/167 216/216/216 168/168/168
f 168/168/168 216/216/216 217/217/217
f 168/168/168 217/217/217 169/169/169
f 169/169/169 217/217/217 218/218/218
f 169/169/169 218/218/218 170/170/170
f 170/170/170 218/218/218 219/219/219
f 170/170/170 219/219/219 171/171/171
f 171/171/171 219/219/219 220/220/220
f 171/171/171 220/220/220 172/172/172
f 172/172/172 220/220/220 221/221/221
f 172/172/172 221/221/221 173/173/173
f 173/173/173 221/221/221 222/222/222
f 173/173/173 222/222/222 174/174/174
f 174/174/174 222/222/222 223/223/223
f 174/174/174 223/223/223 175/175/175
f 175/175/175 223/223/223 224/224/224
f 175/175/175 224/224/224 176/176/176
f 176/176/176 224/224/224 225/225/225
f 176/176/176 225/225/225 177/177/177
f 177/177/177 225/225/225 226/226/226
f 177/177/177 226/226/226 178/178/178
f 178/178/178 226/226/226 227/227/227
f 178/178/178 227/227/227 179/179/179
f 179/179/179 227/227/227 228/228/228
f 179/179/179 228/228/228 180/180/180
f 180/180/180 228/228/228 229/229/229
f 180/180/180 229/229/229 181/181/181
f 181/181/181 229/229/229 230/230/230
f 181/181/181 230/230/230 182/182/182
f 182/182/182 230/230/230 231/231/231
f 182/182/182 231/231/231 183/183/183
f 183/183/183 231/231/231 232/232/232
f 183/183/183 232/232/232 184/184/184
f 184/184/184 232/232/232 233/233/233
f 184/184/184 233/233/233 185/185/185
f 185/185/185 233/233/233 234/234/234
f 185/185/185 234/234/234 186/186/186
f 186/186/186 234/234/234 235/235/235
f 186/186/186 235/235/235 187/187/187
f 187/187/187 235/235/235 236/236/236
f 187/187/187 236/236/236 188/188/188
f 188/188/188 236/236/236 237/237/237
f 188/188/188 237/237/237 189/189/189
f 189/189/189 237/237/237 238/238/238
f 189/189/189 238/238/238 190/190/190
f 190/190/190 238/238/238 239/239/239
f 190/190/190 239/239/239 191/191/191
f 191/191/191 239/239/239 240/240/240
f 191/191/191 240/240/240 192/192/192
f 192/192/192 240/240/240 241/241/241
f 192/192/192 241/241/241 193/193/193
f 193/193/193 241/241/241 242/242/242
f 193/193/193 242/242/242 194/194/194
f 194/194/194 242/242/242 243/243/243
f 194/194/194 243/243/243 195/195/195
f 195/195/195 243/243/243 244/244/244
f 195/195/195 244/244/244 196/196/196
f 196/196/196 244/244/244 245/245/245
f 197/197/197 246/246/246 198/198/198
f 198/198/198 246/246/246 247/247/247
f 198/198/198 247/247/247 199/199/199
f 199/199/199 247/247/247 248/248/248
f 199/199/199 248/248/248 200/200/200
f 200/200/200 248/248/248 249/249/249
f 200/200/200 249/249/249 201/201/201
f 201/201/201 249/249/249 250/250/250
f 201/201/201 250/250/250 202/202/202
f 202/202/202 250/250/250 251/251/251
f 202/202/202 251/251/251 203/203/203
f 203/203/203 251/251/251 252/252/252
f 203/203/203 252/252/252 204/204/204
f 204/204/204 252/252/252 253/253/253
f 204/204/204 253/253/253 205/205/205
f 205/205/205 253/253/253 254/254/254
f 205/205/205 254/254/254 206/206/206
f 206/206/206 254/254/254 255/255/255
f 206/206/206 255/255/255 207/207/207
f 207/207/207 255/255/255 256/256/256
f 207/207/207 256/256/256 208/208/208
f 208/208/208 256/256/256 257/257/257
f 208/208/208 257/257/257 209/209/209
f 209/209/209 257/257/257 258/258/258
f 209/209/209 258/258/258 210/210/210
f 210/210/210 258/258/258 259/259/259
f 210/210/210 259/259/259 211/211/211
f 211/211/211 259/259/259 260/260/260
f 211/211/211 260/260/260 212/212/212
f 212/212/212 260/260/260 261/261/261
f 212/212/212 261/261/261 213/213/213
f 213/213/213 261/261/261 262/262/262
f 213/213/213 262/262/262 214/214/214
f 214/214/214 262/262/262 263/263/263
f 214/214/214 263/263/263 215/215/215
f 215/215/215 263/263/263 264/264/264
f 215/215/215 264/264/264 216/216/216
f 216/216/216 264/264/264 265/265/265
f 216/216/216 265/265/265 217/217/217
f 217/217/217 265/265/265 266/266/266
f 217/217/217 266/266/266 218/218/218
f 218/218/218 266/266/266 267/267/267
f 218/218/218 267/267/267 219/219/219
f 219/219/219 267/267/267 268/268/268
f 219/219/219 268/268/268 220/220/220
f 220/220/220 268/268/268 269/269/269
f 220/220/220 269/269/269 221/221/221
f 221/221/221 269/269/269 270/270/270
f 221/221/221 270/270/270 222/222/222
f 222/222/222 270/270/270 271/271/271
f 222/222/222 271/271/271 223/223/223
f 223/223/223 271/271/271 272/272/272
f 223/223/223 272/272/272 224/224/224
f 224/224/224 272/272/272 273/273/273
f 224/224/224 273/273/273 225/225/225
f 225/225/225 273/273/273 274/274/274
f 225/225/225 274/274/274 226/226/226
f 226/226/226 274/274/274 275/275/275
f 226/226/226 275/275/275 227/227/227
f 227/227/227 275/275/275 276/276/276
f 227/227/227 276/276/276 228/228/228
f 228/228/228 276/276/276 277/277/277
f 228/228/228 277/277/277 229/229/229
f 229/229/229 277/277/277 278/278/278
f 229/229/229 278/278/278 230/230/230
f 230/230/230 278/278/278 279/279/279
f 230/230/230 279/279/279 231/231/231
f 231/231/231 279/279/279 280/280/280
f 231/231/231 280/280/280 232/232/232
f 232/232/232 280/280/280 281/281/281
f 232/232/232 281/281/281 233/233/233
f 233/233/233 281/281/281 282/282/282
f 233/233/233 282/282/282 234/234/234
f 234/234/234 282/282/282 283/283/283
f 234/234/234 283/283/283 235/235/235
f 235/235/235 283/283/283 284/284/284
f 235/235/235 284/284/284 236/236/236
f 236/236/236 284/284/284 285/285/285
f 236/236/236 285/285/285 237/237/237
f 237/237/237 285/285/285 286/286/286
f 237/237/237 286/286/286 238/238/238
f 238/238/238 286/286/286 287/287/287
f 238/238/238 287/287/287 239/239/239
f 239/239/239 287/287/287 288/288/288
f 239/239/239 288/288/288 240/240/240
f 240/240/240 288/288/288 289/289/289
f 240/240/240 289/289/289 241/241/241
f 241/241/241 289/289/289 290/290/290
f 241/241/241 290/290/290 242/242/242
f 242/242/242 290/290/290 291/291/291
f 242/242/242 291/291/291 243/243/243
f 243/243/243 291/291/291 292/292/292
f 243/243/243 292/292/292 244/244/244
f 244/244/244 292/292/292 293/293/293
f 244/244/244 293/293/293 245/245/245
f 245/245/245 293/293/293 294/294/294
f 246/246/246 295/295/295 247/247/247
f 247/247/247 295/295/295 296/296/296
f 247/247/247 296/296/296 248/248/248
f 248/248/248 296/296/296 297/297/297
f 248/248/248 297/297/297 249/249/249
f 249/249/249 297/297/297 298/298/298
f 249/249/249 298/298/298 250/250/250
f 250/250/250 298/298/298 299/299/299
f 250/250/250 299/299/299 251/251/251
f 251/251/251 299/299/299 300/300/300
f 251/251/251 300/300/300 252/252/252
f 252/252/252 300/300/300 301/301/301
f 252/252/252 301/301/301 253/253/253
f 253/253/253 301/301/301 302/302/302
f 253/253/253 302/302/302 254/254/254
f 254/254/254 302/302/302 303/303/303
f 254/254/254 303/303/303 255/255/255
f 255/255/255 303/303/303 304/304/304
f 255/255/255 304/304/304 256/256/256
f 256/256/256 304/304/304 305/305/305
f 256/256/256 305/305/305 257/257/257
f 257/257/257 305/305/305 306/306/306
f 257/257/257 306/306/306 258/258/258
f 258/258/258 306/306/306 307/307/307
f 258/258/258 307/307/307 259/259/259
f 259/259/259 307/307/307 308/308/308
f 259/259/259 308/308/308 260/260/260
f 260/260/260 308/308/308 309/309/309
f 260/260/260 309/309/309 261/261/261
f 261/261/261 309/309/309 310/310/310
f 261/261/261 310/310/310 262/262/262
f 262/262/262 310/310/310 311/311/311
f 262/262/262 311/311/311 263/263/263
f 263/263/263 311/311/311 312/312/312
f 263/263/263 312/312/312 264/264/264
f 264/264/264 312/312/312 313/313/313
f 264/264/264 313/313/313 265/265/265
f 265/265/265 313/313/313 314/314/314
f 265/265/265 314/314/314 266/266/266
f 266/266/266 314/314/314 315/315/315
f 266/266/266 315/315/315 267/267/267
f 267/267/267 315/315/315 316/316/316
f 267/267/267 316/316/316 268/268/268
f 268/268/268 316/316/316 317/317/317
f 268/268/268 317/317/317 269/269/269
f 269/269/269 317/317/317 318/318/318
f 269/269/269 318/318/318 270/270/270
f 270/270/270 318/318/318 319/319/319
f 270/270/270 319/319/319 271/271/271
f 271/271/271 319/319/319 320/320/320
f 271/271/271 320/320/320 272/272/272
f 272/272/272 320/320/320 321/321/321
f 272/272/272 321/321/321 273/273/273
f 273/273/273 321/321/321 322/322/322
f 273/273/273 322/322/322 274/274/274
f 274/274/274 322/322/322 323/323/323
f 274/274/274 323/323/323 275/275/275
f 275/275/275 323/323/323 324/324/324
f 275/275/275 324/324/324 276/276/276
f 276/276/276 324/324/324 325/325/325
f 276/276/276 325/325/325 277/277/277
f 277/277/277 325/325/325 326/326/326
f 277/277/277 326/326/326 278/278/278
f 278/278/278 326/326/326 327/327/327
f 278/278/278 327/327/327 279/279/279
f 279/279/279 327/327/327 328/328/328
f 279/279/279 328/328/328 280/280/280
f 280/280/280 328/328/328 329/329/329
f 280/280/280 329/329/329 281/281/281
f 281/281/281 329/329/329 330/330/330
f 281/281/281 330/330/330 282/282/282
f 282/282/282 330/330/330 331/331/331
f 282/282/282 331/331/331 283/283/283
f 283/283/283 331/331/331 332/332/332
f 283/283/283 332/332/332 284/284/284
f 284/284/284 332/332/332 333/333/333
f 284/284/284 333/333/333 285/285/285
f 285/285/285 333/333/333 334/334/334
f 285/285/285 334/334/334 286/286/286
f 286/286/286 334/334/334 335/335/335
f 286/286/286 335/335/335 287/287/287
f 287/287/287 335/335/335 336/336/336
f 287/287/287 336/336/336 288/288/288
f 288/288/288 336/336/336 337/337/337
f 288/288/288 337/337/337 289/289/289
f 289/289/289 337/337/337 338/338/338
f 289/289/289 338/338/338 290/290/290
f 290/290/290 338/338/338 339/339/339
f 290/290/290 339/339/339 291/291/291
f 291/291/291 339/339/339 340/340/340
f 291/291/291 340/340/340 292/292/292
f 292/292/292 340/340/340 341/341/341
f 292/292/292 341/341/341 293/293/293
f 293/293/293 341/341/341 342/342/342
f 293/293/293 342/342/342 294/294/294
f 294/294/294 342/342/342 343/343/343
f 295/295/295 344/344/344 296/296/296
f 296/296/296 344/344/344 345/345/345
f 296/296/296 345/345/345 297/297/297
f 297/297/297 345/345/345 346/346/346
f 297/297/297 346/346/346 298/298/298
f 298/298/298 346/346/346 347/347/347
f 298/298/298 347/347/347 299/299/299
f 299/299/299 347/347/347 348/348/348
f 299/299/299 348/348/348 300/300/300
f 300/300/300 348/348/348 349/349/349
f 300/300/300 349/349/349 301/301/301
f 301/301/301 349/349/349 350/350/350
f 301/301/301 350/350/350 302/302/302
f 302/302/302 350/350/350 351/351/351
f 302/302/302 351/351/351 303/303/303
f 303/303/303 351/351/351 352/352/352
f 303/303/303 352/352/352 304/304/304
f 304/304/304 352/352/352 353/353/353
f 304/304/304 353/353/353 305/305/305
f 305/305/305 353/353/353 354/354/354
f 305/305/305 354/354/354 306/306/306
f 306/306/306 354/354/354 355/355/355
f 306/306/306 355/355/355 307/307/307
f 307/307/307 355/355/355 356/356/356
f 307/307/307 356/356/356 308/308/308
f 308/308/308 356/356/356 357/357/357
f 308/308/308 357/357/357 309/309/309
f 309/309/309 357/357/357 358/358/358
f 309/309/309 358/358/358 310/310/310
f 310/310/310 358/358/358 359/359/359
f 310/310/310 359/359/359 311/311/311
f 311/311/311 359/359/359 360/360/360
f 311/311/311 360/360/360 312/312/312
f 312/312/312 360/360/360 361/361/361
f 312/312/312 361/361/361 313/313/313
f 313/313/313 361/361/361 362/362/362
f 313/313/313 362/362/362 314/314/314
f 314/314/314 362/362/362 363/363/363
f 314/314/314 363/363/363 315/315/315
f 315/315/315 363/363/363 364/364/364
f 315/315/315 364/364/364 316/316/316
f 316/316/316 364/364/364 365/365/365
f 316/316/316 365/365/365 317/317/317
f 317/317/317 365/365/365 366/366/366
f 317/317/317 366/366/366 318/318/318
f 318/318/318 366/366/366 367/367/367
f 318/318/318 367/367/367 319/319/319
f 319/319/319 367/367/367 368/368/368
f 319/319/319 368/368/368 320/320/320
f 320/320/320 368/368/368 369/369/369
f 320/320/320 369/369/369 321/321/321
f 321/321/321 369/369/369 370/370/370
f 321/321/321 370/370/370 322/322/322
f 322/322/322 370/370/370 371/371/371
f 322/322/322 371/371/371 323/323/323
f 323/323/323 371/371/371 372/372/372
f 323/323/323 372/372/372 324/324/324
f 324/324/324 372/372/372 373/373/373
f 324/324/324 373/373/373 325/325/325
f 325/325/325 373/373/373 374/374/374
f 325/325/325 374/374/374 326/326/326
f 326/326/326 374/374/374 375/375/375
f 326/326/326 375/375/375 327/327/327
f 327/327/327 375/375/375 376/376/376
f 327/327/327 376/376/376 328/328/328
f 328/328/328 376/376/376 377/377/377
f 328/328/328 377/377/377 329/329/329
f 329/329/329 377/377/377 378/378/378
f 329/329/329 378/378/378 330/330/330
f 330/330/330 378/378/378 379/379/379
f 330/330/330 379/379/379 331/331/331
f 331/331/331 379/379/379 380/380/380
f 331/331/331 380/380/380 332/332/332
f 332/332/332 380/380/380 381/381/381
f 332/332/332 381/381/381 333/333/333
f 333/333/333 381/381/381 382/382/382
f 333/333/333 382/382/382 334/334/334
f 334/334/334 382/382/382 383/383/383
f 334/334/334 383/383/383 335/335/335
f 335/335/335 383/383/383 384/384/384
f 335/335/335 384/384/384 336/336/336
f 336/336/336 384/384/384 385/385/385
f 336/336/336 385/385/385 337/337/337
f 337/337/337 385/385/385 386/386/386
f 337/337/337 386/386/386 338/338/338
f 338/338/338 386/386/386 387/387/387
f 338/338/338 387/387/387 339/339/339
f 339/339/339 387/387/387 388/388/388
f 339/339/339 388/388/388 340/340/340
f 340/340/340 388/388/388 389/389/389
f 340/340/340 389/389/389 341/341/341
f 341/341/341 389/389/389 390/390/390
f 341/341/341 390/390/390 342/342/342
f 342/342/342 390/390/390 391/391/391
f 342/342/342 391/391/391 343/343/343
f 343/343/343 391/391/391 392/392/392
