mtllib hoof.mtl
usemtl coat
s 1
v 0.0730000 0.0000000 -0.0500000
v 0.0705126 0.0147527 -0.0500000
v 0.0632199 0.0285000 -0.0500000
v 0.0516188 0.0403051 -0.0500000
v 0.0365000 0.0493634 -0.0500000
v 0.0188938 0.0550578 -0.0500000
v 0.0000000 0.0570000 -0.0500000
v -0.0188938 0.0550578 -0.0500000
v -0.0365000 0.0493634 -0.0500000
v -0.0516188 0.0403051 -0.0500000
v -0.0632199 0.0285000 -0.0500000
v -0.0705126 0.0147527 -0.0500000
v -0.0730000 0.0000000 -0.0500000
v -0.0705126 -0.0147527 -0.0500000
v -0.0632199 -0.0285000 -0.0500000
v -0.0516188 -0.0403051 -0.0500000
v -0.0365000 -0.0493634 -0.0500000
v -0.0188938 -0.0550578 -0.0500000
v -0.0000000 -0.0570000 -0.0500000
v 0.0188938 -0.0550578 -0.0500000
v 0.0365000 -0.0493634 -0.0500000
v 0.0516188 -0.0403051 -0.0500000
v 0.0632199 -0.0285000 -0.0500000
v 0.0705126 -0.0147527 -0.0500000
v 0.0730000 -0.0000000 -0.0500000
v 0.0820000 0.0000000 -0.0350000
v 0.0792059 0.0165644 -0.0350000
v 0.0710141 0.0320000 -0.0350000
v 0.0579828 0.0452548 -0.0350000
v 0.0410000 0.0554256 -0.0350000
v 0.0212232 0.0618193 -0.0350000
v 0.0000000 0.0640000 -0.0350000
v -0.0212232 0.0618193 -0.0350000
v -0.0410000 0.0554256 -0.0350000
v -0.0579828 0.0452548 -0.0350000
v -0.0710141 0.0320000 -0.0350000
v -0.0792059 0.0165644 -0.0350000
v -0.0820000 0.0000000 -0.0350000
v -0.0792059 -0.0165644 -0.0350000
v -0.0710141 -0.0320000 -0.0350000
v -0.0579828 -0.0452548 -0.0350000
v -0.0410000 -0.0554256 -0.0350000
v -0.0212232 -0.0618193 -0.0350000
v -0.0000000 -0.0640000 -0.0350000
v 0.0212232 -0.0618193 -0.0350000
v 0.0410000 -0.0554256 -0.0350000
v 0.0579828 -0.0452548 -0.0350000
v 0.0710141 -0.0320000 -0.0350000
v 0.0792059 -0.0165644 -0.0350000
v 0.0820000 -0.0000000 -0.0350000
v 0.0820000 0.0000000 0.0250000
v 0.0792059 0.0165644 0.0250000
v 0.0710141 0.0320000 0.0250000
v 0.0579828 0.0452548 0.0250000
v 0.0410000 0.0554256 0.0250000
v 0.0212232 0.0618193 0.0250000
v 0.0000000 0.0640000 0.0250000
v -0.0212232 0.0618193 0.0250000
v -0.0410000 0.0554256 0.0250000
v -0.0579828 0.0452548 0.0250000
v -0.0710141 0.0320000 0.0250000
v -0.0792059 0.0165644 0.0250000
v -0.0820000 0.0000000 0.0250000
v -0.0792059 -0.0165644 0.0250000
v -0.0710141 -0.0320000 0.0250000
v -0.0579828 -0.0452548 0.0250000
v -0.0410000 -0.0554256 0.0250000
v -0.0212232 -0.0618193 0.0250000
v -0.0000000 -0.0640000 0.0250000
v 0.0212232 -0.0618193 0.0250000
v 0.0410000 -0.0554256 0.0250000
v 0.0579828 -0.0452548 0.0250000
v 0.0710141 -0.0320000 0.0250000
v 0.0792059 -0.0165644 0.0250000
v 0.0820000 -0.0000000 0.0250000
v 0.0600000 0.0000000 0.0500000
v 0.0579555 0.0134586 0.0500000
v 0.0519615 0.0260000 0.0500000
v 0.0424264 0.0367696 0.0500000
v 0.0300000 0.0450333 0.0500000
v 0.0155291 0.0502281 0.0500000
v 0.0000000 0.0520000 0.0500000
v -0.0155291 0.0502281 0.0500000
v -0.0300000 0.0450333 0.0500000
v -0.0424264 0.0367696 0.0500000
v -0.0519615 0.0260000 0.0500000
v -0.0579555 0.0134586 0.0500000
v -0.0600000 0.0000000 0.0500000
v -0.0579555 -0.0134586 0.0500000
v -0.0519615 -0.0260000 0.0500000
v -0.0424264 -0.0367696 0.0500000
v -0.0300000 -0.0450333 0.0500000
v -0.0155291 -0.0502281 0.0500000
v -0.0000000 -0.0520000 0.0500000
v 0.0155291 -0.0502281 0.0500000
v 0.0300000 -0.0450333 0.0500000
v 0.0424264 -0.0367696 0.0500000
v 0.0519615 -0.0260000 0.0500000
v 0.0579555 -0.0134586 0.0500000
v 0.0600000 -0.0000000 0.0500000
vt 0.0000000 0.0000000
vt 0.0000000 0.0416667
vt 0.0000000 0.0833333
vt 0.0000000 0.1250000
vt 0.0000000 0.1666667
vt 0.0000000 0.2083333
vt 0.0000000 0.2500000
vt 0.0000000 0.2916667
vt 0.0000000 0.3333333
vt 0.0000000 0.3750000
vt 0.0000000 0.4166667
vt 0.0000000 0.4583333
vt 0.0000000 0.5000000
vt 0.0000000 0.5416667
vt 0.0000000 0.5833333
vt 0.0000000 0.6250000
vt 0.0000000 0.6666667
vt 0.0000000 0.7083333
vt 0.0000000 0.7500000
vt 0.0000000 0.7916667
vt 0.0000000 0.8333333
vt 0.0000000 0.8750000
vt 0.0000000 0.9166667
vt 0.0000000 0.9583333
vt 0.0000000 1.0000000
vt 0.3333333 0.0000000
vt 0.3333333 0.0416667
vt 0.3333333 0.0833333
vt 0.3333333 0.1250000
vt 0.3333333 0.1666667
vt 0.3333333 0.2083333
vt 0.3333333 0.2500000
vt 0.3333333 0.2916667
vt 0.3333333 0.3333333
vt 0.3333333 0.3750000
vt 0.3333333 0.4166667
vt 0.3333333 0.4583333
vt 0.3333333 0.5000000
vt 0.3333333 0.5416667
vt 0.3333333 0.5833333
vt 0.3333333 0.6250000
vt 0.3333333 0.6666667
vt 0.3333333 0.7083333
vt 0.3333333 0.7500000
vt 0.3333333 0.7916667
vt 0.3333333 0.8333333
vt 0.3333333 0.8750000
vt 0.3333333 0.9166667
vt 0.3333333 0.9583333
vt 0.3333333 1.0000000
vt 0.6666667 0.0000000
vt 0.6666667 0.0416667
vt 0.6666667 0.0833333
vt 0.6666667 0.1250000
vt 0.6666667 0.1666667
vt 0.6666667 0.2083333
vt 0.6666667 0.2500000
vt 0.6666667 0.2916667
vt 0.6666667 0.3333333
vt 0.6666667 0.3750000
vt 0.6666667 0.4166667
vt 0.6666667 0.4583333
vt 0.6666667 0.5000000
vt 0.6666667 0.5416667
vt 0.6666667 0.5833333
vt 0.6666667 0.6250000
vt 0.6666667 0.6666667
vt 0.6666667 0.7083333
vt 0.6666667 0.7500000
vt 0.6666667 0.7916667
vt 0.6666667 0.8333333
vt 0.6666667 0.8750000
vt 0.6666667 0.9166667
vt 0.6666667 0.9583333
vt 0.6666667 1.0000000
vt 1.0000000 0.0000000
vt 1.0000000 0.0416667
vt 1.0000000 0.0833333
vt 1.0000000 0.1250000
vt 1.0000000 0.1666667
vt 1.0000000 0.2083333
vt 1.0000000 0.2500000
vt 1.0000000 0.2916667
vt 1.0000000 0.3333333
vt 1.0000000 0.3750000
vt 1.0000000 0.4166667
vt 1.0000000 0.4583333
vt 1.0000000 0.5000000
vt 1.0000000 0.5416667
vt 1.0000000 0.5833333
vt 1.0000000 0.6250000
vt 1.0000000 0.6666667
vt 1.0000000 0.7083333
vt 1.0000000 0.7500000
vt 1.0000000 0.7916667
vt 1.0000000 0.8333333
vt 1.0000000 0.8750000
vt 1.0000000 0.9166667
vt 1.0000000 0.9583333
vt 1.0000000 1.0000000
vn -0.8486688 -0.1430920 0.5092013
vn -0.8293195 -0.2314032 0.5086077
vn -0.7272387 -0.4805729 0.4900750
vn -0.5762274 -0.6713620 0.4660848
vn -0.4015646 -0.8008866 0.4442145
vn -0.2185049 -0.8764512 0.4290558
vn -0.0334691 -0.9056685 0.4226634
vn 0.1517200 -0.8920739 0.4256587
vn 0.3359050 -0.8339815 0.4377701
vn 0.5148199 -0.7249725 0.4575755
vn 0.6768297 -0.5567999 0.4815345
vn 0.7999167 -0.3272083 0.5030586
vn 0.8563453 -0.0519364 0.5137853
vn 0.8293195 0.2314032 0.5086077
vn 0.7272387 0.4805729 0.4900750
vn 0.5762274 0.6713620 0.4660848
vn 0.4015646 0.8008866 0.4442145
vn 0.2185049 0.8764512 0.4290558
vn 0.0334691 0.9056685 0.4226634
vn -0.1517200 0.8920739 0.4256587
vn -0.3359050 0.8339815 0.4377701
vn -0.5148199 0.7249725 0.4575755
vn -0.6768297 0.5567999 0.4815345
vn -0.7999167 0.3272083 0.5030586
vn -0.8486786 0.1431261 0.5091753
vn -0.9687627 -0.1634001 0.1865458
vn -0.9500812 -0.2905551 0.1136813
vn -0.8169327 -0.5665242 0.1080337
vn -0.6329465 -0.7675445 0.1012628
vn -0.4305347 -0.8975119 0.0954580
vn -0.2253270 -0.9699629 0.0916500
vn -0.0213645 -0.9956949 0.0901952
vn 0.1823926 -0.9789897 0.0911711
vn 0.3874180 -0.9170454 0.0945254
vn 0.5912104 -0.8002964 0.0999795
vn 0.7811772 -0.6151272 0.1066803
vn 0.9284086 -0.3540367 0.1127630
vn 0.9926782 -0.0349691 0.1156168
vn 0.9500812 0.2905551 0.1136813
vn 0.8169327 0.5665242 0.1080337
vn 0.6329465 0.7675445 0.1012628
vn 0.4305347 0.8975119 0.0954580
vn 0.2253270 0.9699629 0.0916500
vn 0.0213645 0.9956949 0.0901952
vn -0.1823926 0.9789897 0.0911711
vn -0.3874180 0.9170454 0.0945254
vn -0.5912104 0.8002964 0.0999795
vn -0.7811772 0.6151272 0.1066803
vn -0.9284086 0.3540367 0.1127630
vn -0.9839464 0.1659718 0.0655964
vn -0.9752162 -0.1644992 -0.1479638
vn -0.9121965 -0.3381683 -0.2313866
vn -0.7743380 -0.5971386 -0.2093469
vn -0.5918868 -0.7852623 -0.1817503
vn -0.3919425 -0.9065687 -0.1565703
vn -0.1879116 -0.9723109 -0.1389272
vn 0.0162793 -0.9911743 -0.1315617
vn 0.2208030 -0.9658453 -0.1356059
vn 0.4254527 -0.8923229 -0.1508307
vn 0.6249206 -0.7607747 -0.1752029
vn 0.8030672 -0.5599406 -0.2038370
vn 0.9297436 -0.2888679 -0.2283249
vn 0.9706230 0.0272799 -0.2390539
vn 0.9121965 0.3381683 -0.2313866
vn 0.7743380 0.5971386 -0.2093469
vn 0.5918868 0.7852623 -0.1817503
vn 0.3919425 0.9065687 -0.1565703
vn 0.1879116 0.9723109 -0.1389272
vn -0.0162793 0.9911743 -0.1315617
vn -0.2208030 0.9658453 -0.1356059
vn -0.4254527 0.8923229 -0.1508307
vn -0.6249206 0.7607747 -0.1752029
vn -0.8030672 0.5599406 -0.2038370
vn -0.9297436 0.2888679 -0.2283249
vn -0.9248491 0.1530113 -0.3481978
vn -0.7470951 -0.1204025 -0.6537218
vn -0.7173260 -0.2809765 -0.6375701
vn -0.6346200 -0.4956831 -0.5929214
vn -0.5068320 -0.6758708 -0.5350888
vn -0.3434328 -0.8074371 -0.4796866
vn -0.1576413 -0.8827495 -0.4426088
vn 0.0375355 -0.8998810 -0.4345173
vn 0.2304841 -0.8587205 -0.4576857
vn 0.4090974 -0.7596984 -0.5054678
vn 0.5599472 -0.6068526 -0.5640825
vn 0.6710918 -0.4108484 -0.6171219
vn 0.7355621 -0.1871991 -0.6510797
vn 0.7511185 0.0482661 -0.6584006
vn 0.7173260 0.2809765 -0.6375701
vn 0.6346200 0.4956831 -0.5929214
vn 0.5068320 0.6758708 -0.5350888
vn 0.3434328 0.8074371 -0.4796866
vn 0.1576413 0.8827495 -0.4426088
vn -0.0375355 0.8998810 -0.4345173
vn -0.2304841 0.8587205 -0.4576857
vn -0.4090974 0.7596984 -0.5054678
vn -0.5599472 0.6068526 -0.5640825
vn -0.6710918 0.4108484 -0.6171219
vn -0.7355621 0.1871991 -0.6510797
vn -0.7458792 0.1133041 -0.6563737
f 1/1/1 26/26/26 2/2/2
f 2/2/2 26/26/26 27/27/27
f 2/2/2 27/27/27 3/3/3
f 3/3/3 27/27/27 28/28/28
f 3/3/3 28/28/28 4/4/4
f 4/4/4 28/28/28 29/29/29
f 4/4/4 29/29/29 5/5/5
f 5/5/5 29/29/29 30/30/30
f 5/5/5 30/30/30 6/6/6
f 6/6/6 30/30/30 31/31/31
f 6/6/6 31/31/31 7/7/7
f 7/7/7 31/31/31 32/32/32
f 7/7/7 32/32/32 8/8/8
f 8/8/8 32/32/32 33/33/33
f 8/8/8 33/33/33 9/9/9
f 9/9/9 33/33/33 34/34/34
f 9/9/9 34/34/34 10/10/10
f 10/10/10 34/34/34 35/35/35
f 10/10/10 35/35/35 11/11/11
f 11/11/11 35/35/35 36/36/36
f 11/11/11 36/36/36 12/12/12
f 12/12/12 36/36/36 37/37/37
f 12/12/12 37/37/37 13/13/13
f 13/13/13 37/37/37 38/38/38
f 13/13/13 38/38/38 14/14/14
f 14/14/14 38/38/38 39/39/39
f 14/14/14 39/39/39 15/15/15
f 15/15/15 39/39/39 40/40/40
f 15/15/15 40/40/40 16/16/16
f 16/16/16 40/40/40 41/41/41
f 16/16/16 41/41/41 17/17/17
f 17/17/17 41/41/41 42/42/42
f 17/17/17 42/42/42 18/18/18
f 18/18/18 42/42/42 43/43/43
f 18/18/18 43/43/43 19/19/19
f 19/19/19 43/43/43 44/44/44
f 19/19/19 44/44/44 20/20/20
f 20/20/20 44/44/44 45/45/45
f 20/20/20 45/45/45 21/21/21
f 21/21/21 45/45/45 46/46/46
f 21/21/21 46/46/46 22/22/22
f 22/22/22 46/46/46 47/47/47
f 22/22/22 47/47/47 23/23/23
f 23/23/23 47/47/47 48/48/48
f 23/23/23 48/48/48 24/24/24
f 24/24/24 48/48/48 49/49/49
f 24/24/24 49/49/49 25/25/25
f 25/25/25 49/49/49 50/50/50
f 26/26/26 51/51/51 27/27/27
f 27/27/27 51/51/51 52/52/52
f 27/27/27 52/52/52 28/28/28
f 28/28/28 52/52/52 53/53/53
f 28/28/28 53/53/53 29/29/29
f 29/29/29 53/53/53 54/54/54
f 29/29/29 54/54/54 30/30/30
f 30/30/30 54/54/54 55/55/55
f 30/30/30 55/55/55 31/31/31
f 31/31/31 55/55/55 56/56/56
f 31/31/31 56/56/56 32/32/32
f 32/32/32 56/56/56 57/57/57
f 32/32/32 57/57/57 33/33/33
f 33/33/33 57/57/57 58/58/58
f 33/33/33 58/58/58 34/34/34
f 34/34/34 58/58/58 59/59/59
f 34/34/34 59/59/59 35/35/35
f 35/35/35 59/59/59 60/60/60
f 35/35/35 60/60/60 36/36/36
f 36/36/36 60/60/60 61/61/61
f 36/36/36 61/61/61 37/37/37
f 37/37/37 61/61/61 62/62/62
f 37/37/37 62/62/62 38/38/38
f 38/38/38 62/62/62 63/63/63
f 38/38/38 63/63/63 39/39/39
f 39/39/39 63/63/63 64/64/64
f 39/39/39 64/64/64 40/40/40
f 40/40/40 64/64/64 65/65/65
f 40/40/40 65/65/65 41/41/41
f 41/41/41 65/65/65 66/66/66
f 41/41/41 66/66/66 42/42/42
f 42/42/42 66/66/66 67/67/67
f 42/42/42 67/67/67 43/43/43
f 43/43/43 67/67/67 68/68/68
f 43/43/43 68/68/68 44/44/44
f 44/44/44 68/68/68 69/69/69
f 44/44/44 69/69/69 45/45/45
f 45/45/45 69/69/69 70/70/70
f 45/45/45 70/70/70 46/46/46
f 46/46/46 70/70/70 71/71/71
f 46/46/46 71/71/71 47/47/47
f 47/47/47 71/71/71 72/72/72
f 47/47/47 72/72/72 48/48/48
f 48/48/48 72/72/72 73/73/73
f 48/48/48 73/73/73 49/49/49
f 49/49/49 73/73/73 74/74/74
f 49/49/49 74/74/74 50/50/50
f 50/50/50 74/74/74 75/75/75
f 51/51/51 76/76/76 52/52/52
f 52/52/52 76/76/76 77/77/77
f 52/52/52 77/77/77 53/53/53
f 53/53/53 77/77/77 78/78/78
f 53/53/53 78/78/78 54/54/54
f 54/54/54 78/78/78 79/79/79
f 54/54/54 79/79/79 55/55/55
f 55/55/55 79/79/79 80/80/80
f 55/55/55 80/80/80 56/56/56
f 56/56/56 80/80/80 81/81/81
f 56/56/56 81/81/81 57/57/57
f 57/57/57 81/81/81 82/82/82
f 57/57/57 82/82/82 58/58/58
f 58/58/58 82/82/82 83/83/83
f 58/58/58 83/83/83 59/59/59
f 59/59/59 83/83/83 84/84/84
f 59/59/59 84/84/84 60/60/60
f 60/60/60 84/84/84 85/85/85
f 60/60/60 85/85/85 61/61/61
f 61/61/61 85/85/85 86/86/86
f 61/61/61 86/86/86 62/62/62
f 62/62/62 86/86/86 87/87/87
f 62/62/62 87/87/87 63/63/63
f 63/63/63 87/87/87 88/88/88
f 63/63/63 88/88/88 64/64/64
f 64/64/64 88/88/88 89/89/89
f 64/64/64 89/89/89 65/65/65
f 65/65/65 89/89/89 90/90/90
f 65/65/65 90/90/90 66/66/66
f 66/66/66 90/90/90 91/91/91
f 66/66/66 91/91/91 67/67/67
f 67/67/67 91/91/91 92/92/92
f 67/67/67 92/92/92 68/68/68
f 68/68/68 92/92/92 93/93/93
f 68/68/68 93/93/93 69/69/69
f 69/69/69 93/93/93 94/94/94
f 69/69/69 94/94/94 70/70/70
f 70/70/70 94/94/94 95/95/95
f 70/70/70 95/95/95 71/71/71
f 71/71/71 95/95/95 96/96/96
f 71/71/71 96/96/96 72/72/72
f 72/72/72 96/96/96 97/97/97
f 72/72/72 97/97/97 73/73/73
f 73/73/73 97/97/97 98/98/98
f 73/73/73 98/98/98 74/74/74
f 74/74/74 98/98/98 99/99/99
f 74/74/74 99/99/99 75/75/75
f 75/75/75 99/99/99 100/100/100
