mtllib leg.mtl
usemtl coat
s 1
v 0.0750000 0.0000000 -0.6200000
v 0.0743844 0.0078217 -0.6200000
v 0.0725528 0.0154508 -0.6200000
v 0.0695503 0.0226995 -0.6200000
v 0.0654508 0.0293893 -0.6200000
v 0.0603553 0.0353553 -0.6200000
v 0.0543893 0.0404508 -0.6200000
v 0.0476995 0.0445503 -0.6200000
v 0.0404508 0.0475528 -0.6200000
v 0.0328217 0.0493844 -0.6200000
v 0.0250000 0.0500000 -0.6200000
v 0.0171783 0.0493844 -0.6200000
v 0.0095492 0.0475528 -0.6200000
v 0.0023005 0.0445503 -0.6200000
v -0.0043893 0.0404508 -0.6200000
v -0.0103553 0.0353553 -0.6200000
v -0.0154508 0.0293893 -0.6200000
v -0.0195503 0.0226995 -0.6200000
v -0.0225528 0.0154508 -0.6200000
v -0.0243844 0.0078217 -0.6200000
v -0.0250000 0.0000000 -0.6200000
v -0.0243844 -0.0078217 -0.6200000
v -0.0225528 -0.0154508 -0.6200000
v -0.0195503 -0.0226995 -0.6200000
v -0.0154508 -0.0293893 -0.6200000
v -0.0103553 -0.0353553 -0.6200000
v -0.0043893 -0.0404508 -0.6200000
v 0.0023005 -0.0445503 -0.6200000
v 0.0095492 -0.0475528 -0.6200000
v 0.0171783 -0.0493844 -0.6200000
v 0.0250000 -0.0500000 -0.6200000
v 0.0328217 -0.0493844 -0.6200000
v 0.0404508 -0.0475528 -0.6200000
v 0.0476995 -0.0445503 -0.6200000
v 0.0543893 -0.0404508 -0.6200000
v 0.0603553 -0.0353553 -0.6200000
v 0.0654508 -0.0293893 -0.6200000
v 0.0695503 -0.0226995 -0.6200000
v 0.0725528 -0.0154508 -0.6200000
v 0.0743844 -0.0078217 -0.6200000
v 0.0750000 -0.0000000 -0.6200000
v 0.0700000 0.0000000 -0.5500000
v 0.0693229 0.0086039 -0.5500000
v 0.0673081 0.0169959 -0.5500000
v 0.0640054 0.0249695 -0.5500000
v 0.0594959 0.0323282 -0.5500000
v 0.0538909 0.0388909 -0.5500000
v 0.0473282 0.0444959 -0.5500000
v 0.0399695 0.0490054 -0.5500000
v 0.0319959 0.0523081 -0.5500000
v 0.0236039 0.0543229 -0.5500000
v 0.0150000 0.0550000 -0.5500000
v 0.0063961 0.0543229 -0.5500000
v -0.0019959 0.0523081 -0.5500000
v -0.0099695 0.0490054 -0.5500000
v -0.0173282 0.0444959 -0.5500000
v -0.0238909 0.0388909 -0.5500000
v -0.0294959 0.0323282 -0.5500000
v -0.0340054 0.0249695 -0.5500000
v -0.0373081 0.0169959 -0.5500000
v -0.0393229 0.0086039 -0.5500000
v -0.0400000 0.0000000 -0.5500000
v -0.0393229 -0.0086039 -0.5500000
v -0.0373081 -0.0169959 -0.5500000
v -0.0340054 -0.0249695 -0.5500000
v -0.0294959 -0.0323282 -0.5500000
v -0.0238909 -0.0388909 -0.5500000
v -0.0173282 -0.0444959 -0.5500000
v -0.0099695 -0.0490054 -0.5500000
v -0.0019959 -0.0523081 -0.5500000
v 0.0063961 -0.0543229 -0.5500000
v 0.0150000 -0.0550000 -0.5500000
v 0.0236039 -0.0543229 -0.5500000
v 0.0319959 -0.0523081 -0.5500000
v 0.0399695 -0.0490054 -0.5500000
v 0.0473282 -0.0444959 -0.5500000
v 0.0538909 -0.0388909 -0.5500000
v 0.0594959 -0.0323282 -0.5500000
v 0.0640054 -0.0249695 -0.5500000
v 0.0673081 -0.0169959 -0.5500000
v 0.0693229 -0.0086039 -0.5500000
v 0.0700000 -0.0000000 -0.5500000
v 0.0550000 0.0000000 -0.4300000
v 0.0541382 0.0101682 -0.4300000
v 0.0515740 0.0200861 -0.4300000
v 0.0473705 0.0295094 -0.4300000
v 0.0416312 0.0382060 -0.4300000
v 0.0344975 0.0459619 -0.4300000
v 0.0261450 0.0525861 -0.4300000
v 0.0167793 0.0579154 -0.4300000
v 0.0066312 0.0618187 -0.4300000
v -0.0040496 0.0641997 -0.4300000
v -0.0150000 0.0650000 -0.4300000
v -0.0259504 0.0641997 -0.4300000
v -0.0366312 0.0618187 -0.4300000
v -0.0467793 0.0579154 -0.4300000
v -0.0561450 0.0525861 -0.4300000
v -0.0644975 0.0459619 -0.4300000
v -0.0716312 0.0382060 -0.4300000
v -0.0773705 0.0295094 -0.4300000
v -0.0815740 0.0200861 -0.4300000
v -0.0841382 0.0101682 -0.4300000
v -0.0850000 0.0000000 -0.4300000
v -0.0841382 -0.0101682 -0.4300000
v -0.0815740 -0.0200861 -0.4300000
v -0.0773705 -0.0295094 -0.4300000
v -0.0716312 -0.0382060 -0.4300000
v -0.0644975 -0.0459619 -0.4300000
v -0.0561450 -0.0525861 -0.4300000
v -0.0467793 -0.0579154 -0.4300000
v -0.0366312 -0.0618187 -0.4300000
v -0.0259504 -0.0641997 -0.4300000
v -0.0150000 -0.0650000 -0.4300000
v -0.0040496 -0.0641997 -0.4300000
v 0.0066312 -0.0618187 -0.4300000
v 0.0167793 -0.0579154 -0.4300000
v 0.0261450 -0.0525861 -0.4300000
v 0.0344975 -0.0459619 -0.4300000
v 0.0416312 -0.0382060 -0.4300000
v 0.0473705 -0.0295094 -0.4300000
v 0.0515740 -0.0200861 -0.4300000
v 0.0541382 -0.0101682 -0.4300000
v 0.0550000 -0.0000000 -0.4300000
v 0.0540000 0.0000000 -0.3000000
v 0.0529904 0.0112633 -0.3000000
v 0.0499866 0.0222492 -0.3000000
v 0.0450625 0.0326873 -0.3000000
v 0.0383394 0.0423205 -0.3000000
v 0.0299828 0.0509117 -0.3000000
v 0.0201984 0.0582492 -0.3000000
v 0.0092272 0.0641525 -0.3000000
v -0.0026606 0.0684761 -0.3000000
v -0.0151724 0.0711136 -0.3000000
v -0.0280000 0.0720000 -0.3000000
v -0.0408276 0.0711136 -0.3000000
v -0.0533394 0.0684761 -0.3000000
v -0.0652272 0.0641525 -0.3000000
v -0.0761984 0.0582492 -0.3000000
v -0.0859828 0.0509117 -0.3000000
v -0.0943394 0.0423205 -0.3000000
v -0.1010625 0.0326873 -0.3000000
v -0.1059866 0.0222492 -0.3000000
v -0.1089904 0.0112633 -0.3000000
v -0.1100000 0.0000000 -0.3000000
v -0.1089904 -0.0112633 -0.3000000
v -0.1059866 -0.0222492 -0.3000000
v -0.1010625 -0.0326873 -0.3000000
v -0.0943394 -0.0423205 -0.3000000
v -0.0859828 -0.0509117 -0.3000000
v -0.0761984 -0.0582492 -0.3000000
v -0.0652272 -0.0641525 -0.3000000
v -0.0533394 -0.0684761 -0.3000000
v -0.0408276 -0.0711136 -0.3000000
v -0.0280000 -0.0720000 -0.3000000
v -0.0151724 -0.0711136 -0.3000000
v -0.0026606 -0.0684761 -0.3000000
v 0.0092272 -0.0641525 -0.3000000
v 0.0201984 -0.0582492 -0.3000000
v 0.0299828 -0.0509117 -0.3000000
v 0.0383394 -0.0423205 -0.3000000
v 0.0450625 -0.0326873 -0.3000000
v 0.0499866 -0.0222492 -0.3000000
v 0.0529904 -0.0112633 -0.3000000
v 0.0540000 -0.0000000 -0.3000000
v 0.1050000 0.0000000 -0.1600000
v 0.1037073 0.0140791 -0.1600000
v 0.0998609 0.0278115 -0.1600000
v 0.0935557 0.0408591 -0.1600000
v 0.0849468 0.0529007 -0.1600000
v 0.0742462 0.0636396 -0.1600000
v 0.0617175 0.0728115 -0.1600000
v 0.0476690 0.0801906 -0.1600000
v 0.0324468 0.0855951 -0.1600000
v 0.0164256 0.0888920 -0.1600000
v 0.0000000 0.0900000 -0.1600000
v -0.0164256 0.0888920 -0.1600000
v -0.0324468 0.0855951 -0.1600000
v -0.0476690 0.0801906 -0.1600000
v -0.0617175 0.0728115 -0.1600000
v -0.0742462 0.0636396 -0.1600000
v -0.0849468 0.0529007 -0.1600000
v -0.0935557 0.0408591 -0.1600000
v -0.0998609 0.0278115 -0.1600000
v -0.1037073 0.0140791 -0.1600000
v -0.1050000 0.0000000 -0.1600000
v -0.1037073 -0.0140791 -0.1600000
v -0.0998609 -0.0278115 -0.1600000
v -0.0935557 -0.0408591 -0.1600000
v -0.0849468 -0.0529007 -0.1600000
v -0.0742462 -0.0636396 -0.1600000
v -0.0617175 -0.0728115 -0.1600000
v -0.0476690 -0.0801906 -0.1600000
v -0.0324468 -0.0855951 -0.1600000
v -0.0164256 -0.0888920 -0.1600000
v -0.0000000 -0.0900000 -0.1600000
v 0.0164256 -0.0888920 -0.1600000
v 0.0324468 -0.0855951 -0.1600000
v 0.0476690 -0.0801906 -0.1600000
v 0.0617175 -0.0728115 -0.1600000
v 0.0742462 -0.0636396 -0.1600000
v 0.0849468 -0.0529007 -0.1600000
v 0.0935557 -0.0408591 -0.1600000
v 0.0998609 -0.0278115 -0.1600000
v 0.1037073 -0.0140791 -0.1600000
v 0.1050000 -0.0000000 -0.1600000
v 0.1300000 0.0000000 -0.0300000
v 0.1285842 0.0148613 -0.0300000
v 0.1243715 0.0293566 -0.0300000
v 0.1174658 0.0431291 -0.0300000
v 0.1080370 0.0558396 -0.0300000
v 0.0963173 0.0671751 -0.0300000
v 0.0825953 0.0768566 -0.0300000
v 0.0672089 0.0846456 -0.0300000
v 0.0505370 0.0903504 -0.0300000
v 0.0329900 0.0938304 -0.0300000
v 0.0150000 0.0950000 -0.0300000
v -0.0029900 0.0938304 -0.0300000
v -0.0205370 0.0903504 -0.0300000
v -0.0372089 0.0846456 -0.0300000
v -0.0525953 0.0768566 -0.0300000
v -0.0663173 0.0671751 -0.0300000
v -0.0780370 0.0558396 -0.0300000
v -0.0874658 0.0431291 -0.0300000
v -0.0943715 0.0293566 -0.0300000
v -0.0985842 0.0148613 -0.0300000
v -0.1000000 0.0000000 -0.0300000
v -0.0985842 -0.0148613 -0.0300000
v -0.0943715 -0.0293566 -0.0300000
v -0.0874658 -0.0431291 -0.0300000
v -0.0780370 -0.0558396 -0.0300000
v -0.0663173 -0.0671751 -0.0300000
v -0.0525953 -0.0768566 -0.0300000
v -0.0372089 -0.0846456 -0.0300000
v -0.0205370 -0.0903504 -0.0300000
v -0.0029900 -0.0938304 -0.0300000
v 0.0150000 -0.0950000 -0.0300000
v 0.0329900 -0.0938304 -0.0300000
v 0.0505370 -0.0903504 -0.0300000
v 0.0672089 -0.0846456 -0.0300000
v 0.0825953 -0.0768566 -0.0300000
v 0.0963173 -0.0671751 -0.0300000
v 0.1080370 -0.0558396 -0.0300000
v 0.1174658 -0.0431291 -0.0300000
v 0.1243715 -0.0293566 -0.0300000
v 0.1285842 -0.0148613 -0.0300000
v 0.1300000 -0.0000000 -0.0300000
vt 0.0000000 0.0000000
vt 0.0000000 0.0250000
vt 0.0000000 0.0500000
vt 0.0000000 0.0750000
vt 0.0000000 0.1000000
vt 0.0000000 0.1250000
vt 0.0000000 0.1500000
vt 0.0000000 0.1750000
vt 0.0000000 0.2000000
vt 0.0000000 0.2250000
vt 0.0000000 0.2500000
vt 0.0000000 0.2750000
vt 0.0000000 0.3000000
vt 0.0000000 0.3250000
vt 0.0000000 0.3500000
vt 0.0000000 0.3750000
vt 0.0000000 0.4000000
vt 0.0000000 0.4250000
vt 0.0000000 0.4500000
vt 0.0000000 0.4750000
vt 0.0000000 0.5000000
vt 0.0000000 0.5250000
vt 0.0000000 0.5500000
vt 0.0000000 0.5750000
vt 0.0000000 0.6000000
vt 0.0000000 0.6250000
vt 0.0000000 0.6500000
vt 0.0000000 0.6750000
vt 0.0000000 0.7000000
vt 0.0000000 0.7250000
vt 0.0000000 0.7500000
vt 0.0000000 0.7750000
vt 0.0000000 0.8000000
vt 0.0000000 0.8250000
vt 0.0000000 0.8500000
vt 0.0000000 0.8750000
vt 0.0000000 0.9000000
vt 0.0000000 0.9250000
vt 0.0000000 0.9500000
vt 0.0000000 0.9750000
vt 0.0000000 1.0000000
vt 0.2000000 0.0000000
vt 0.2000000 0.0250000
vt 0.2000000 0.0500000
vt 0.2000000 0.0750000
vt 0.2000000 0.1000000
vt 0.2000000 0.1250000
vt 0.2000000 0.1500000
vt 0.2000000 0.1750000
vt 0.2000000 0.2000000
vt 0.2000000 0.2250000
vt 0.2000000 0.2500000
vt 0.2000000 0.2750000
vt 0.2000000 0.3000000
vt 0.2000000 0.3250000
vt 0.2000000 0.3500000
vt 0.2000000 0.3750000
vt 0.2000000 0.4000000
vt 0.2000000 0.4250000
vt 0.2000000 0.4500000
vt 0.2000000 0.4750000
vt 0.2000000 0.5000000
vt 0.2000000 0.5250000
vt 0.2000000 0.5500000
vt 0.2000000 0.5750000
vt 0.2000000 0.6000000
vt 0.2000000 0.6250000
vt 0.2000000 0.6500000
vt 0.2000000 0.6750000
vt 0.2000000 0.7000000
vt 0.2000000 0.7250000
vt 0.2000000 0.7500000
vt 0.2000000 0.7750000
vt 0.2000000 0.8000000
vt 0.2000000 0.8250000
vt 0.2000000 0.8500000
vt 0.2000000 0.8750000
vt 0.2000000 0.9000000
vt 0.2000000 0.9250000
vt 0.2000000 0.9500000
vt 0.2000000 0.9750000
vt 0.2000000 1.0000000
vt 0.4000000 0.0000000
vt 0.4000000 0.0250000
vt 0.4000000 0.0500000
vt 0.4000000 0.0750000
vt 0.4000000 0.1000000
vt 0.4000000 0.1250000
vt 0.4000000 0.1500000
vt 0.4000000 0.1750000
vt 0.4000000 0.2000000
vt 0.4000000 0.2250000
vt 0.4000000 0.2500000
vt 0.4000000 0.2750000
vt 0.4000000 0.3000000
vt 0.4000000 0.3250000
vt 0.4000000 0.3500000
vt 0.4000000 0.3750000
vt 0.4000000 0.4000000
vt 0.4000000 0.4250000
vt 0.4000000 0.4500000
vt 0.4000000 0.4750000
vt 0.4000000 0.5000000
vt 0.4000000 0.5250000
vt 0.4000000 0.5500000
vt 0.4000000 0.5750000
vt 0.4000000 0.6000000
vt 0.4000000 0.6250000
vt 0.4000000 0.6500000
vt 0.4000000 0.6750000
vt 0.4000000 0.7000000
vt 0.4000000 0.7250000
vt 0.4000000 0.7500000
vt 0.4000000 0.7750000
vt 0.4000000 0.8000000
vt 0.4000000 0.8250000
vt 0.4000000 0.8500000
vt 0.4000000 0.8750000
vt 0.4000000 0.9000000
vt 0.4000000 0.9250000
vt 0.4000000 0.9500000
vt 0.4000000 0.9750000
vt 0.4000000 1.0000000
vt 0.6000000 0.0000000
vt 0.6000000 0.0250000
vt 0.6000000 0.0500000
vt 0.6000000 0.0750000
vt 0.6000000 0.1000000
vt 0.6000000 0.1250000
vt 0.6000000 0.1500000
vt 0.6000000 0.1750000
vt 0.6000000 0.2000000
vt 0.6000000 0.2250000
vt 0.6000000 0.2500000
vt 0.6000000 0.2750000
vt 0.6000000 0.3000000
vt 0.6000000 0.3250000
vt 0.6000000 0.3500000
vt 0.6000000 0.3750000
vt 0.6000000 0.4000000
vt 0.6000000 0.4250000
vt 0.6000000 0.4500000
vt 0.6000000 0.4750000
vt 0.6000000 0.5000000
vt 0.6000000 0.5250000
vt 0.6000000 0.5500000
vt 0.6000000 0.5750000
vt 0.6000000 0.6000000
vt 0.6000000 0.6250000
vt 0.6000000 0.6500000
vt 0.6000000 0.6750000
vt 0.6000000 0.7000000
vt 0.6000000 0.7250000
vt 0.6000000 0.7500000
vt 0.6000000 0.7750000
vt 0.6000000 0.8000000
vt 0.6000000 0.8250000
vt 0.6000000 0.8500000
vt 0.6000000 0.8750000
vt 0.6000000 0.9000000
vt 0.6000000 0.9250000
vt 0.6000000 0.9500000
vt 0.6000000 0.9750000
vt 0.6000000 1.0000000
vt 0.8000000 0.0000000
vt 0.8000000 0.0250000
vt 0.8000000 0.0500000
vt 0.8000000 0.0750000
vt 0.8000000 0.1000000
vt 0.8000000 0.1250000
vt 0.8000000 0.1500000
vt 0.8000000 0.1750000
vt 0.8000000 0.2000000
vt 0.8000000 0.2250000
vt 0.8000000 0.2500000
vt 0.8000000 0.2750000
vt 0.8000000 0.3000000
vt 0.8000000 0.3250000
vt 0.8000000 0.3500000
vt 0.8000000 0.3750000
vt 0.8000000 0.4000000
vt 0.8000000 0.4250000
vt 0.8000000 0.4500000
vt 0.8000000 0.4750000
vt 0.8000000 0.5000000
vt 0.8000000 0.5250000
vt 0.8000000 0.5500000
vt 0.8000000 0.5750000
vt 0.8000000 0.6000000
vt 0.8000000 0.6250000
vt 0.8000000 0.6500000
vt 0.8000000 0.6750000
vt 0.8000000 0.7000000
vt 0.8000000 0.7250000
vt 0.8000000 0.7500000
vt 0.8000000 0.7750000
vt 0.8000000 0.8000000
vt 0.8000000 0.8250000
vt 0.8000000 0.8500000
vt 0.8000000 0.8750000
vt 0.8000000 0.9000000
vt 0.8000000 0.9250000
vt 0.8000000 0.9500000
vt 0.8000000 0.9750000
vt 0.8000000 1.0000000
vt 1.0000000 0.0000000
vt 1.0000000 0.0250000
vt 1.0000000 0.0500000
vt 1.0000000 0.0750000
vt 1.0000000 0.1000000
vt 1.0000000 0.1250000
vt 1.0000000 0.1500000
vt 1.0000000 0.1750000
vt 1.0000000 0.2000000
vt 1.0000000 0.2250000
vt 1.0000000 0.2500000
vt 1.0000000 0.2750000
vt 1.0000000 0.3000000
vt 1.0000000 0.3250000
vt 1.0000000 0.3500000
vt 1.0000000 0.3750000
vt 1.0000000 0.4000000
vt 1.0000000 0.4250000
vt 1.0000000 0.4500000
vt 1.0000000 0.4750000
vt 1.0000000 0.5000000
vt 1.0000000 0.5250000
vt 1.0000000 0.5500000
vt 1.0000000 0.5750000
vt 1.0000000 0.6000000
vt 1.0000000 0.6250000
vt 1.0000000 0.6500000
vt 1.0000000 0.6750000
vt 1.0000000 0.7000000
vt 1.0000000 0.7250000
vt 1.0000000 0.7500000
vt 1.0000000 0.7750000
vt 1.0000000 0.8000000
vt 1.0000000 0.8250000
vt 1.0000000 0.8500000
vt 1.0000000 0.8750000
vt 1.0000000 0.9000000
vt 1.0000000 0.9250000
vt 1.0000000 0.9500000
vt 1.0000000 0.9750000
vt 1.0000000 1.0000000
vn -0.9943994 -0.0782609 -0.0710285
vn -0.9892313 -0.1284849 -0.0700936
vn -0.9572520 -0.2817409 -0.0655029
vn -0.9018354 -0.4282297 -0.0575512
vn -0.8242205 -0.5643630 -0.0464220
vn -0.7261895 -0.6867317 -0.0323781
vn -0.6100645 -0.7921950 -0.0157602
vn -0.4786843 -0.8779819 0.0030169
vn -0.3353534 -0.9417999 0.0234734
vn -0.1837584 -0.9819373 0.0450770
vn -0.0278523 -0.9973466 0.0672601
vn 0.1282854 -0.9876959 0.0894411
vn 0.2806011 -0.9533793 0.1110450
vn 0.4252144 -0.8954852 0.1315254
vn 0.5585472 -0.8157270 0.1503812
vn 0.6774232 -0.7163461 0.1671707
vn 0.7791313 -0.6000043 0.1815191
vn 0.8614576 -0.4696751 0.1931220
vn 0.9226889 -0.3285484 0.2017453
vn 0.9616007 -0.1799526 0.2072224
vn 0.9774381 -0.0272963 0.2094510
vn 0.9698990 0.1259739 0.2083902
vn 0.9391269 0.2764063 0.2040593
vn 0.8857141 0.4205746 0.1965387
vn 0.8107161 0.5551162 0.1859717
vn 0.7156702 0.6767839 0.1725681
vn 0.6026118 0.7825172 0.1566071
vn 0.4740772 0.8695318 0.1384385
vn 0.3330830 0.9354239 0.1184811
vn 0.1830741 0.9782806 0.0972160
vn 0.0278365 0.9967817 0.0751753
vn -0.1286211 0.9902805 0.0529262
vn -0.2822112 0.9588497 0.0310504
vn -0.4289187 0.9032864 0.0101230
vn -0.5649476 0.8250743 -0.0093092
vn -0.6868462 0.7263106 -0.0267457
vn -0.7916026 0.6096084 -0.0417476
vn -0.8767074 0.4779894 -0.0539471
vn -0.9401849 0.3347783 -0.0630535
vn -0.9806037 0.1835088 -0.0688550
vn -0.9943994 0.0782609 -0.0710285
vn -0.9923100 -0.0780965 -0.0960300
vn -0.9836889 -0.1466790 -0.1041224
vn -0.9483770 -0.3015006 -0.0983788
vn -0.8893530 -0.4485386 -0.0886818
vn -0.8082495 -0.5840303 -0.0751092
vn -0.7072724 -0.7045758 -0.0577814
vn -0.5891071 -0.8072130 -0.0368782
vn -0.4568284 -0.8894648 -0.0126588
vn -0.3138208 -0.9493713 0.0145160
vn -0.1637087 -0.9855197 0.0441642
vn -0.0102875 -0.9970798 0.0756707
vn 0.1425589 -0.9838450 0.1082868
vn 0.2909614 -0.9462658 0.1411468
vn 0.4311926 -0.8854602 0.1733008
vn 0.5598027 -0.8031823 0.2037623
vn 0.6737458 -0.7017443 0.2315631
vn 0.7704720 -0.5838974 0.2558061
vn 0.8479698 -0.4526928 0.2757108
vn 0.9047582 -0.3113504 0.2906434
vn 0.9398398 -0.1631572 0.3001347
vn 0.9526399 -0.0114091 0.3038866
vn 0.9429542 0.1406050 0.3017742
vn 0.9109276 0.2895949 0.2938463
vn 0.8570706 0.4322572 0.2803280
vn 0.7823081 0.5652854 0.2616227
vn 0.6880447 0.6854215 0.2383104
vn 0.5762187 0.7895529 0.2111355
vn 0.4493207 0.8748468 0.1809805
vn 0.3103587 0.9388977 0.1488237
vn 0.1627684 0.9798589 0.1156845
vn 0.0102818 0.9965328 0.0825634
vn -0.1432200 0.9884074 0.0503879
vn -0.2938452 0.9556444 0.0199699
vn -0.4378031 0.8990351 -0.0080172
vn -0.5714865 0.8199459 -0.0330446
vn -0.6915323 0.7202700 -0.0547186
vn -0.7948768 0.6023924 -0.0727614
vn -0.8788179 0.4691612 -0.0869883
vn -0.9410921 0.3238539 -0.0972845
vn -0.9799634 0.1701226 -0.1035862
vn -0.9903527 0.0805049 -0.1127855
vn -0.9932803 -0.0824493 -0.0812180
vn -0.9850276 -0.1616371 -0.0599502
vn -0.9443438 -0.3241977 -0.0557728
vn -0.8782440 -0.4757002 -0.0489560
vn -0.7900268 -0.6117959 -0.0395405
vn -0.6835543 -0.7293788 -0.0275708
vn -0.5627672 -0.8265117 -0.0130942
vn -0.4313505 -0.9021763 0.0038308
vn -0.2925799 -0.9559617 0.0231156
vn -0.1493235 -0.9877813 0.0446155
vn -0.0041468 -0.9976700 0.0680987
vn 0.1405314 -0.9856784 0.0932147
vn 0.2822741 -0.9518661 0.1194668
vn 0.4184882 -0.8963790 0.1461930
vn 0.5463385 -0.8195952 0.1725628
vn 0.6627367 -0.7223129 0.1975960
vn 0.7644190 -0.6059470 0.2202087
vn 0.8481161 -0.4726946 0.2392885
vn 0.9108012 -0.3256230 0.2537930
vn 0.9499805 -0.1686442 0.2628616
vn 0.9639743 -0.0063561 0.2659193
vn 0.9521290 0.1562387 0.2627543
vn 0.9149092 0.3140926 0.2535487
vn 0.8538469 0.4624855 0.2388569
vn 0.7713571 0.5973381 0.2195348
vn 0.6704638 0.7154107 0.1966362
vn 0.5544967 0.8143652 0.1712973
vn 0.4268182 0.8926970 0.1446314
vn 0.2906257 0.9495766 0.1176473
vn 0.1488495 0.9846454 0.0911987
vn 0.0041474 0.9978135 0.0659627
vn -0.1410187 0.9890967 0.0424427
vn -0.2842476 0.9585211 0.0209887
vn -0.4230325 0.9061127 0.0018259
vn -0.5545976 0.8319851 -0.0149111
vn -0.6757791 0.7365277 -0.0291466
vn -0.7830019 0.6206775 -0.0408355
vn -0.8724022 0.4862304 -0.0499438
vn -0.9401307 0.3361087 -0.0564376
vn -0.9828148 0.1744731 -0.0602841
vn -0.9953396 0.0861348 -0.0433569
vn -0.9883064 -0.0871241 0.1251393
vn -0.9673847 -0.1667970 0.1906451
vn -0.9241953 -0.3337386 0.1856920
vn -0.8550093 -0.4872529 0.1776053
vn -0.7643420 -0.6227601 0.1671858
vn -0.6571100 -0.7376193 0.1553198
vn -0.5378853 -0.8308276 0.1428456
vn -0.4104762 -0.9024889 0.1304723
vn -0.2778138 -0.9532671 0.1187488
vn -0.1420512 -0.9839427 0.1080654
vn -0.0047740 -0.9951085 0.0986721
vn 0.1327391 -0.9869922 0.0907013
vn 0.2692377 -0.9593870 0.0841877
vn 0.4032124 -0.9116827 0.0790848
vn 0.5326096 -0.8430068 0.0752758
vn 0.6545739 -0.7525056 0.0725830
vn 0.7652859 -0.6397873 0.0707787
vn 0.8600062 -0.5055144 0.0696023
vn 0.9334566 -0.3520327 0.0687884
vn 0.9806007 -0.1838031 0.0681072
vn 0.9976984 -0.0073371 0.0674102
vn 0.9832666 0.1695354 0.0666672
vn 0.9385041 0.3389057 0.0659768
vn 0.8669537 0.4940598 0.0655454
vn 0.7735812 0.6302879 0.0656445
vn 0.6637073 0.7450249 0.0665626
vn 0.5421795 0.8374604 0.0685668
vn 0.4129443 0.9079154 0.0718794
vn 0.2789701 0.9572346 0.0766657
vn 0.1423947 0.9863216 0.0830274
vn 0.0047775 0.9958397 0.0909970
vn -0.1326133 0.9860566 0.1005286
vn -0.2685126 0.9568032 0.1114839
vn -0.4013772 0.9075331 0.1236122
vn -0.5291236 0.8374892 0.1365284
vn -0.6489101 0.7459944 0.1496927
vn -0.7570247 0.6328808 0.1624055
vn -0.8489719 0.4990283 0.1738318
vn -0.9198591 0.3469047 0.1830750
vn -0.9651111 0.1808998 0.1893034
vn -0.9651619 0.0873396 0.2466460
vn -0.9526996 -0.0868649 0.2912352
vn -0.9489647 -0.1721880 0.2642297
vn -0.9051495 -0.3404428 0.2545643
vn -0.8355866 -0.4944335 0.2394379
vn -0.7451120 -0.6295606 0.2201399
vn -0.6388737 -0.7433801 0.1980565
vn -0.5215287 -0.8352077 0.1744590
vn -0.3968257 -0.9054902 0.1503891
vn -0.2675250 -0.9551940 0.1266283
vn -0.1355334 -0.9853287 0.1037207
vn -0.0021418 -0.9966284 0.0820192
vn 0.1316969 -0.9893657 0.0617369
vn 0.2650753 -0.9632686 0.0429964
vn 0.3968215 -0.9175310 0.0258738
vn 0.5251694 -0.8509337 0.0104386
vn 0.6474260 -0.7621215 -0.0032098
vn 0.7597068 -0.6500947 -0.0149139
vn 0.8568818 -0.5149331 -0.0244444
vn 0.9329403 -0.3586492 -0.0315145
vn 0.9819221 -0.1858636 -0.0358298
vn 0.9993017 -0.0038421 -0.0371672
vn 0.9833154 0.1784209 -0.0354505
vn 0.9355412 0.3518737 -0.0307816
vn 0.8603848 0.5091072 -0.0234065
vn 0.7637795 0.6453331 -0.0136375
vn 0.6517841 0.7584025 -0.0017726
vn 0.5296134 0.8481549 0.0119547
vn 0.4012402 0.9155633 0.0273885
vn 0.2694296 0.9619944 0.0444359
vn 0.1359973 0.9887017 0.0630367
vn 0.0021416 0.9965367 0.0831268
vn -0.1312248 0.9858191 0.1045977
vn -0.2631637 0.9563220 0.1272522
vn -0.3924176 0.9073484 0.1507559
vn -0.5171320 0.8379107 0.1745858
vn -0.6346138 0.7470395 0.1979829
vn -0.7411887 0.6342484 0.2199279
vn -0.8322624 0.5001384 0.2391670
vn -0.9027137 0.3470292 0.2543200
vn -0.9476715 0.1793805 0.2640859
vn -0.9659241 0.0898134 0.2427430
vn -0.9779196 -0.0915247 0.1878737
vn -0.9598828 -0.2110685 0.1845946
vn -0.9071891 -0.3825822 0.1750397
vn -0.8284543 -0.5363989 0.1610580
vn -0.7298592 -0.6682572 0.1440066
vn -0.6174375 -0.7765877 0.1252299
vn -0.4961853 -0.8617377 0.1058688
vn -0.3697537 -0.9250677 0.0867868
vn -0.2405425 -0.9682129 0.0685784
vn -0.1099836 -0.9925923 0.0516144
vn 0.0211252 -0.9991250 0.0360963
vn 0.1522910 -0.9880885 0.0221050
vn 0.2830057 -0.9590698 0.0096417
vn 0.4124131 -0.9109960 -0.0013391
vn 0.5389446 -0.8422707 -0.0109002
vn 0.6599310 -0.7510835 -0.0190946
vn 0.7712698 -0.6359796 -0.0259410
vn 0.8673335 -0.4967355 -0.0314062
vn 0.9414021 -0.3354230 -0.0354041
vn 0.9868351 -0.1572463 -0.0378174
vn 0.9988220 0.0294784 -0.0385429
vn 0.9759788 0.2146078 -0.0375359
vn 0.9208554 0.3883456 -0.0348286
vn 0.8390222 0.5432412 -0.0305081
vn 0.7373223 0.6750904 -0.0246722
vn 0.6222426 0.7826313 -0.0173899
vn 0.4989708 0.8665753 -0.0086840
vn 0.3711537 0.9285703 0.0014646
vn 0.2410895 0.9704145 0.0130983
vn 0.1100924 0.9935744 0.0262595
vn -0.0211213 0.9989374 0.0409636
vn -0.1520791 0.9867135 0.0571695
vn -0.2822271 0.9564314 0.0747446
vn -0.4106098 0.9070126 0.0934229
vn -0.5355395 0.8369491 0.1127547
vn -0.6542709 0.7446416 0.1320547
vn -0.7627574 0.6289604 0.1503663
vn -0.8556526 0.4900456 0.1664750
vn -0.9267757 0.3302115 0.1790173
vn -0.9701761 0.1545918 0.1867077
vn -0.9777368 0.0931495 0.1880263
f 1/1/1 42/42/42 2/2/2
f 2/2/2 42/42/42 43/43/43
f 2/2/2 43/43/43 3/3/3
f 3/3/3 43/43/43 44/44/44
f 3/3/3 44/44/44 4/4/4
f 4/4/4 44/44/44 45/45/45
f 4/4/4 45/45/45 5/5/5
f 5/5/5 45/45/45 46/46/46
f 5/5/5 46/46/46 6/6/6
f 6/6/6 46/46/46 47/47/47
f 6/6/6 47/47/47 7/7/7
f 7/7/7 47/47/47 48/48/48
f 7/7/7 48/48/48 8/8/8
f 8/8/8 48/48/48 49/49/49
f 8/8/8 49/49/49 9/9/9
f 9/9/9 49/49/49 50/50/50
f 9/9/9 50/50/50 10/10/10
f 10/10/10 50/50/50 51/51/51
f 10/10/10 51/51/51 11/11/11
f 11/11/11 51/51/51 52/52/52
f 11/11/11 52/52/52 12/12/12
f 12/12/12 52/52/52 53/53/53
f 12/12/12 53/53/53 13/13/13
f 13/13/13 53/53/53 54/54/54
f 13/13/13 54/54/54 14/14/14
f 14/14/14 54/54/54 55/55/55
f 14/14/14 55/55/55 15/15/15
f 15/15/15 55/55/55 56/56/56
f 15/15/15 56/56/56 16/16/16
f 16/16/16 56/56/56 57/57/57
f 16/16/16 57/57/57 17/17/17
f 17/17/17 57/57/57 58/58/58
f 17/17/17 58/58/58 18/18/18
f 18/18/18 58/58/58 59/59/59
f 18/18/18 59/59/59 19/19/19
f 19/19/19 59/59/59 60/60/60
f 19/19/19 60/60/60 20/20/20
f 20/20/20 60/60/60 61/61/61
f 20/20/20 61/61/61 21/21/21
f 21/21/21 61/61/61 62/62/62
f 21/21/21 62/62/62 22/22/22
f 22/22/22 62/62/62 63/63/63
f 22/22/22 63/63/63 23/23/23
f 23/23/23 63/63/63 64/64/64
f 23/23/23 64/64/64 24/24/24
f 24/24/24 64/64/64 65/65/65
f 24/24/24 65/65/65 25/25/25
f 25/25/25 65/65/65 66/66/66
f 25/25/25 66/66/66 26/26/26
f 26/26/26 66/66/66 67/67/67
f 26/26/26 67/67/67 27/27/27
f 27/27/27 67/67/67 68/68/68
f 27/27/27 68/68/68 28/28/28
f 28/28/28 68/68/68 69/69/69
f 28/28/28 69/69/69 29/29/29
f 29/29/29 69/69/69 70/70/70
f 29/29/29 70/70/70 30/30/30
f 30/30/30 70/70/70 71/71/71
f 30/30/30 71/71/71 31/31/31
f 31/31/31 71/71/71 72/72/72
f 31/31/31 72/72/72 32/32/32
f 32/32/32 72/72/72 73/73/73
f 32/32/32 73/73/73 33/33/33
f 33/33/33 73/73/73 74/74/74
f 33/33/33 74/74/74 34/34/34
f 34/34/34 74/74/74 75/75/75
f 34/34/34 75/75/75 35/35/35
f 35/35/35 75/75/75 76/76/76
f 35/35/35 76/76/76 36/36/36
f 36/36/36 76/76/76 77/77/77
f 36/36/36 77/77/77 37/37/37
f 37/37/37 77/77/77 78/78/78
f 37/37/37 78/78/78 38/38/38
f 38/38/38 78/78/78 79/79/79
f 38/38/38 79/79/79 39/39/39
f 39/39/39 79/79/79 80/80/80
f 39/39/39 80/80/80 40/40/40
f 40/40/40 80/80/80 81/81/81
f 40/40/40 81/81/81 41/41/41
f 41/41/41 81/81/81 82/82/82
f 42/42/42 83/83/83 43/43/43
f 43/43/43 83/83/83 84/84/84
f 43/43/43 84/84/84 44/44/44
f 44/44/44 84/84/84 85/85/85
f 44/44/44 85/85/85 45/45/45
f 45/45/45 85/85/85 86/86/86
f 45/45/45 86/86/86 46/46/46
f 46/46/46 86/86/86 87/87/87
f 46/46/46 87/87/87 47/47/47
f 47/47/47 87/87/87 88/88/88
f 47/47/47 88/88/88 48/48/48
f 48/48/48 88/88/88 89/89/89
f 48/48/48 89/89/89 49/49/49
f 49/49/49 89/89/89 90/90/90
f 49/49/49 90/90/90 50/50/50
f 50/50/50 90/90/90 91/91/91
f 50/50/50 91/91/91 51/51/51
f 51/51/51 91/91/91 92/92/92
f 51/51/51 92/92/92 52/52/52
f 52/52/52 92/92/92 93/93/93
f 52/52/52 93/93/93 53/53/53
f 53/53/53 93/93/93 94/94/94
f 53/53/53 94/94/94 54/54/54
f 54/54/54 94/94/94 95/95/95
f 54/54/54 95/95/95 55/55/55
f 55/55/55 95/95/95 96/96/96
f 55/55/55 96/96/96 56/56/56
f 56/56/56 96/96/96 97/97/97
f 56/56/56 97/97/97 57/57/57
f 57/57/57 97/97/97 98/98/98
f 57/57/57 98/98/98 58/58/58
f 58/58/58 98/98/98 99/99/99
f 58/58/58 99/99/99 59/59/59
f 59/59/59 99/99/99 100/100/100
f 59/59/59 100/100/100 60/60/60
f 60/60/60 100/100/100 101/101/101
f 60/60/60 101/101/101 61/61/61
f 61/61/61 101/101/101 102/102/102
f 61/61/61 102/102/102 62/62/62
f 62/62/62 102/102/102 103/103/103
f 62/62/62 103/103/103 63/63/63
f 63/63/63 103/103/103 104/104/104
f 63/63/63 104/104/104 64/64/64
f 64/64/64 104/104/104 105/105/105
f 64/64/64 105/105/105 65/65/65
f 65/65/65 105/105/105 106/106/106
f 65/65/65 106/106/106 66/66/66
f 66/66/66 106/106/106 107/107/107
f 66/66/66 107/107/107 67/67/67
f 67/67/67 107/107/107 108/108/108
f 67/67/67 108/108/108 68/68/68
f 68/68/68 108/108/108 109/109/109
f 68/68/68 109/109/109 69/69/69
f 69/69/69 109/109/109 110/110/110
f 69/69/69 110/110/110 70/70/70
f 70/70/70 110/110/110 111/111/111
f 70/70/70 111/111/111 71/71/71
f 71/71/71 111/111/111 112/112/112
f 71/71/71 112/112/112 72/72/72
f 72/72/72 112/112/112 113/113/113
f 72/72/72 113/113/113 73/73/73
f 73/73/73 113/113/113 114/114/114
f 73/73/73 114/114/114 74/74/74
f 74/74/74 114/114/114 115/115/115
f 74/74/74 115/115/115 75/75/75
f 75/75/75 115/115/115 116/116/116
f 75/75/75 116/116/116 76/76/76
f 76/76/76 116/116/116 117/117/117
f 76/76/76 117/117/117 77/77/77
f 77/77/77 117/117/117 118/118/118
f 77/77/77 118/118/118 78/78/78
f 78/78/78 118/118/118 119/119/119
f 78/78/78 119/119/119 79/79/79
f 79/79/79 119/119/119 120/120/120
f 79/79/79 120/120/120 80/80/80
f 80/80/80 120/120/120 121/121/121
f 80/80/80 121/121/121 81/81/81
f 81/81/81 121/121/121 122/122/122
f 81/81/81 122/122/122 82/82/82
f 82/82/82 122/122/122 123/123/123
f 83/83/83 124/124/124 84/84/84
f 84/84/84 124/124/124 125/125/125
f 84/84/84 125/125/125 85/85/85
f 85/85/85 125/125/125 126/126/126
f 85/85/85 126/126/126 86/86/86
f 86/86/86 126/126/126 127/127/127
f 86/86/86 127/127/127 87/87/87
f 87/87/87 127/127/127 128/128/128
f 87/87/87 128/128/128 88/88/88
f 88/88/88 128/128/128 129/129/129
f 88/88/88 129/129/129 89/89/89
f 89/89/89 129/129/129 130/130/130
f 89/89/89 130/130/130 90/90/90
f 90/90/90 130/130/130 131/131/131
f 90/90/90 131/131/131 91/91/91
f 91/91/91 131/131/131 132/132/132
f 91/91/91 132/132/132 92/92/92
f 92/92/92 132/132/132 133/133/133
f 92/92/92 133/133/133 93/93/93
f 93/93/93 133/133/133 134/134/134
f 93/93/93 134/134/134 94/94/94
f 94/94/94 134/134/134 135/135/135
f 94/94/94 135/135/135 95/95/95
f 95/95/95 135/135/135 136/136/136
f 95/95/95 136/136/136 96/96/96
f 96/96/96 136/136/136 137/137/137
f 96/96/96 137/137/137 97/97/97
f 97/97/97 137/137/137 138/138/138
f 97/97/97 138/138/138 98/98/98
f 98/98/98 138/138/138 139/139/139
f 98/98/98 139/139/139 99/99/99
f 99/99/99 139/139/139 140/140/140
f 99/99/99 140/140/140 100/100/100
f 100/100/100 140/140/140 141/141/141
f 100/100/100 141/141/141 101/101/101
f 101/101/101 141/141/141 142/142/142
f 101/101/101 142/142/142 102/102/102
f 102/102/102 142/142/142 143/143/143
f 102/102/102 143/143/143 103/103/103
f 103/103/103 143/143/143 144/144/144
f 103/103/103 144/144/144 104/104/104
f 104/104/104 144/144/144 145/145/145
f 104/104/104 145/145/145 105/105/105
f 105/105/105 145/145/145 146/146/146
f 105/105/105 146/146/146 106/106/106
f 106/106/106 146/146/146 147/147/147
f 106/106/106 147/147/147 107/107/107
f 107/107/107 147/147/147 148/148/148
f 107/107/107 148/148/148 108/108/108
f 108/108/108 148/148/148 149/149/149
f 108/108/108 149/149/149 109/109/109
f 109/109/109 149/149/149 150/150/150
f 109/109/109 150/150/150 110/110/110
f 110/110/110 150/150/150 151/151/151
f 110/110/110 151/151/151 111/111/111
f 111/111/111 151/151/151 152/152/152
f 111/111/111 152/152/152 112/112/112
f 112/112/112 152/152/152 153/153/153
f 112/112/112 153/153/153 113/113/113
f 113/113/113 153/153/153 154/154/154
f 113/113/113 154/154/154 114/114/114
f 114/114/114 154/154/154 155/155/155
f 114/114/114 155/155/155 115/115/115
f 115/115/115 155/155/155 156/156/156
f 115/115/115 156/156/156 116/116/116
f 116/116/116 156/156/156 157/157/157
f 116/116/116 157/157/157 117/117/117
f 117/117/117 157/157/157 158/158/158
f 117/117/117 158/158/158 118/118/118
f 118/118/118 158/158/158 159/159/159
f 118/118/118 159/159/159 119/119/119
f 119/119/119 159/159/159 160/160/160
f 119/119/119 160/160/160 120/120/120
f 120/120/120 160/160/160 161/161/161
f 120/120/120 161/161/161 121/121/121
f 121/121/121 161/161/161 162/162/162
f 121/121/121 162/162/162 122/122/122
f 122/122/122 162/162/162 163/163/163
f 122/122/122 163/163/163 123/123/123
f 123/123/123 163/163/163 164/164/164
f 124/124/124 165/165/165 125/125/125
f 125/125/125 165/165/165 166/166/166
f 125/125/125 166/166/166 126/126/126
f 126/126/126 166/166/166 167/167/167
f 126/126/126 167/167/167 127/127/127
f 127/127/127 167/167/167 168/168/168
f 127/127/127 168/168/168 128/128/128
f 128/128/128 168/168/168 169/169/169
f 128/128/128 169/169/169 129/129/129
f 129/129/129 169/169/169 170/170/170
f 129/129/129 170/170/170 130/130/130
f 130/130/130 170/170/170 171/171/171
f 130/130/130 171/171/171 131/131/131
f 131/131/131 171/171/171 172/172/172
f 131/131/131 172/172/172 132/132/132
f 132/132/132 172/172/172 173/173/173
f 132/132/132 173/173/173 133/133/133
f 133/133/133 173/173/173 174/174/174
f 133/133/133 174/174/174 134/134/134
f 134/134/134 174/174/174 175/175/175
f 134/134/134 175/175/175 135/135/135
f 135/135/135 175/175/175 176/176/176
f 135/135/135 176/176/176 136/136/136
f 136/136/136 176/176/176 177/177/177
f 136/136/136 177/177/177 137/137/137
f 137/137/137 177/177/177 178/178/178
f 137/137/137 178/178/178 138/138/138
f 138/138/138 178/178/178 179/179/179
f 138/138/138 179/179/179 139/139/139
f 139/139/139 179/179/179 180/180/180
f 139/139/139 180/180/180 140/140/140
f 140/140/140 180/180/180 181/181/181
f 140/140/140 181/181/181 141/141/141
f 141/141/141 181/181/181 182/182/182
f 141/141/141 182/182/182 142/142/142
f 142/142/142 182/182/182 183/183/183
f 142/142/142 183/183/183 143/143/143
f 143/143/143 183/183/183 184/184/184
f 143/143/143 184/184/184 144/144/144
f 144/144/144 184/184/184 185/185/185
f 144/144/144 185/185/185 145/145/145
f 145/145/145 185/185/185 186/186/186
f 145/145/145 186/186/186 146/146/146
f 146/146/146 186/186/186 187/187/187
f 146/146/146 187/187/187 147/147/147
f 147/147/147 187/187/187 188/188/188
f 147/147/147 188/188/188 148/148/148
f 148/148/148 188/188/188 189/189/189
f 148/148/148 189/189/189 149/149/149
f 149/149/149 189/189/189 190/190/190
f 149/149/149 190/190/190 150/150/150
f 150/150/150 190/190/190 191/191/191
f 150/150/150 191/191/191 151/151/151
f 151/151/151 191/191/191 192/192/192
f 151/151/151 192/192/192 152/152/152
f 152/152/152 192/192/192 193/193/193
f 152/152/152 193/193/193 153/153/153
f 153/153/153 193/193/193 194/194/194
f 153/153/153 194/194/194 154/154/154
f 154/154/154 194/194/194 195/195/195
f 154/154/154 195/195/195 155/155/155
f 155/155/155 195/195/195 196/196/196
f 155/155/155 196/196/196 156/156/156
f 156/156/156 196/196/196 197/197/197
f 156/156/156 197/197/197 157/157/157
f 157/157/157 197/197/197 198/198/198
f 157/157/157 198/198/198 158/158/158
f 158/158/158 198/198/198 199/199/199
f 158/158/158 199/199/199 159/159/159
f 159/159/159 199/199/199 200/200/200
f 159/159/159 200/200/200 160/160/160
f 160/160/160 200/200/200 201/201/201
f 160/160/160 201/201/201 161/161/161
f 161/161/161 201/201/201 202/202/202
f 161/161/161 202/202/202 162/162/162
f 162/162/162 202/202/202 203/203/203
f 162/162/162 203/203/203 163/163/163
f 163/163/163 203/203/203 204/204/204
f 163/163/163 204/204/204 164/164/164
f 164/164/164 204/204/204 205/205/205
f 165/165/165 206/206/206 166/166/166
f 166/166/166 206/206/206 207/207/207
f 166/166/166 207/207/207 167/167/167
f 167/167/167 207/207/207 208/208/208
f 167/167/167 208/208/208 168/168/168
f 168/168/168 208/208/208 209/209/209
f 168/168/168 209/209/209 169/169/169
f 169/169/169 209/209/209 210/210/210
f 169/169/169 210/210/210 170/170/170
f 170/170/170 210/210/210 211/211/211
f 170/170/170 211/211/211 171/171/171
f 171/171/171 211/211/211 212/212/212
f 171/171/171 212/212/212 172/172/172
f 172/172/172 212/212/212 213/213/213
f 172/172/172 213/213/213 173/173/173
f 173/173/173 213/213/213 214/214/214
f 173/173/173 214/214/214 174/174/174
f 174/174/174 214/214/214 215/215/215
f 174/174/174 215/215/215 175/175/175
f 175/175/175 215/215/215 216/216/216
f 175/175/175 216/216/216 176/176/176
f 176/176/176 216/216/216 217/217/217
f 176/176/176 217/217/217 177/177/177
f 177/177/177 217/217/217 218/218/218
f 177/177/177 218/218/218 178/178/178
f 178/178/178 218/218/218 219/219/219
f 178/178/178 219/219/219 179/179/179
f 179/179/179 219/219/219 220/220/220
f 179/179/179 220/220/220 180/180/180
f 180/180/180 220/220/220 221/221/221
f 180/180/180 221/221/221 181/181/181
f 181/181/181 221/221/221 222/222/222
f 181/181/181 222/222/222 182/182/182
f 182/182/182 222/222/222 223/223/223
f 182/182/182 223/223/223 183/183/183
f 183/183/183 223/223/223 224/224/224
f 183/183/183 224/224/224 184/184/184
f 184/184/184 224/224/224 225/225/225
f 184/184/184 225/225/225 185/185/185
f 185/185/185 225/225/225 226/226/226
f 185/185/185 226/226/226 186/186/186
f 186/186/186 226/226/226 227/227/227
f 186/186/186 227/227/227 187/187/187
f 187/187/187 227/227/227 228/228/228
f 187/187/187 228/228/228 188/188/188
f 188/188/188 228/228/228 229/229/229
f 188/188/188 229/229/229 189/189/189
f 189/189/189 229/229/229 230/230/230
f 189/189/189 230/230/230 190/190/190
f 190/190/190 230/230/230 231/231/231
f 190/190/190 231/231/231 191/191/191
f 191/191/191 231/231/231 232/232/232
f 191/191/191 232/232/232 192/192/192
f 192/192/192 232/232/232 233/233/233
f 192/192/192 233/233/233 193/193/193
f 193/193/193 233/233/233 234/234/234
f 193/193/193 234/234/234 194/194/194
f 194/194/194 234/234/234 235/235/235
f 194/194/194 235/235/235 195/195/195
f 195/195/195 235/235/235 236/236/236
f 195/195/195 236/236/236 196/196/196
f 196/196/196 236/236/236 237/237/237
f 196/196/196 237/237/237 197/197/197
f 197/197/197 237/237/237 238/238/238
f 197/197/197 238/238/238 198/198/198
f 198/198/198 238/238/238 239/239/239
f 198/198/198 239/239/239 199/199/199
f 199/199/199 239/239/239 240/240/240
f 199/199/199 240/240/240 200/200/200
f 200/200/200 240/240/240 241/241/241
f 200/200/200 241/241/241 201/201/201
f 201/201/201 241/241/241 242/242/242
f 201/201/201 242/242/242 202/202/202
f 202/202/202 242/242/242 243/243/243
f 202/202/202 243/243/243 203/203/203
f 203/203/203 243/243/243 244/244/244
f 203/203/203 244/244/244 204/204/204
f 204/204/204 244/244/244 245/245/245
f 204/204/204 245/245/245 205/205/205
f 205/205/205 245/245/245 246/246/246
