mtllib neck.mtl
usemtl coat
s 1
v 0.0600000 0.0000000 -0.5200000
v 0.0592613 0.0109504 -0.5200000
v 0.0570634 0.0216312 -0.5200000
v 0.0534604 0.0317793 -0.5200000
v 0.0485410 0.0411450 -0.5200000
v 0.0424264 0.0494975 -0.5200000
v 0.0352671 0.0566312 -0.5200000
v 0.0272394 0.0623705 -0.5200000
v 0.0185410 0.0665740 -0.5200000
v 0.0093861 0.0691382 -0.5200000
v 0.0000000 0.0700000 -0.5200000
v -0.0093861 0.0691382 -0.5200000
v -0.0185410 0.0665740 -0.5200000
v -0.0272394 0.0623705 -0.5200000
v -0.0352671 0.0566312 -0.5200000
v -0.0424264 0.0494975 -0.5200000
v -0.0485410 0.0411450 -0.5200000
v -0.0534604 0.0317793 -0.5200000
v -0.0570634 0.0216312 -0.5200000
v -0.0592613 0.0109504 -0.5200000
v -0.0600000 0.0000000 -0.5200000
v -0.0592613 -0.0109504 -0.5200000
v -0.0570634 -0.0216312 -0.5200000
v -0.0534604 -0.0317793 -0.5200000
v -0.0485410 -0.0411450 -0.5200000
v -0.0424264 -0.0494975 -0.5200000
v -0.0352671 -0.0566312 -0.5200000
v -0.0272394 -0.0623705 -0.5200000
v -0.0185410 -0.0665740 -0.5200000
v -0.0093861 -0.0691382 -0.5200000
v -0.0000000 -0.0700000 -0.5200000
v 0.0093861 -0.0691382 -0.5200000
v 0.0185410 -0.0665740 -0.5200000
v 0.0272394 -0.0623705 -0.5200000
v 0.0352671 -0.0566312 -0.5200000
v 0.0424264 -0.0494975 -0.5200000
v 0.0485410 -0.0411450 -0.5200000
v 0.0534604 -0.0317793 -0.5200000
v 0.0570634 -0.0216312 -0.5200000
v 0.0592613 -0.0109504 -0.5200000
v 0.0600000 -0.0000000 -0.5200000
v 0.1500000 0.0000000 -0.4300000
v 0.1481533 0.0234652 -0.4300000
v 0.1426585 0.0463525 -0.4300000
v 0.1336510 0.0680986 -0.4300000
v 0.1213525 0.0881678 -0.4300000
v 0.1060660 0.1060660 -0.4300000
v 0.0881678 0.1213525 -0.4300000
v 0.0680986 0.1336510 -0.4300000
v 0.0463525 0.1426585 -0.4300000
v 0.0234652 0.1481533 -0.4300000
v 0.0000000 0.1500000 -0.4300000
v -0.0234652 0.1481533 -0.4300000
v -0.0463525 0.1426585 -0.4300000
v -0.0680986 0.1336510 -0.4300000
v -0.0881678 0.1213525 -0.4300000
v -0.1060660 0.1060660 -0.4300000
v -0.1213525 0.0881678 -0.4300000
v -0.1336510 0.0680986 -0.4300000
v -0.1426585 0.0463525 -0.4300000
v -0.1481533 0.0234652 -0.4300000
v -0.1500000 0.0000000 -0.4300000
v -0.1481533 -0.0234652 -0.4300000
v -0.1426585 -0.0463525 -0.4300000
v -0.1336510 -0.0680986 -0.4300000
v -0.1213525 -0.0881678 -0.4300000
v -0.1060660 -0.1060660 -0.4300000
v -0.0881678 -0.1213525 -0.4300000
v -0.0680986 -0.1336510 -0.4300000
v -0.0463525 -0.1426585 -0.4300000
v -0.0234652 -0.1481533 -0.4300000
v -0.0000000 -0.1500000 -0.4300000
v 0.0234652 -0.1481533 -0.4300000
v 0.0463525 -0.1426585 -0.4300000
v 0.0680986 -0.1336510 -0.4300000
v 0.0881678 -0.1213525 -0.4300000
v 0.1060660 -0.1060660 -0.4300000
v 0.1213525 -0.0881678 -0.4300000
v 0.1336510 -0.0680986 -0.4300000
v 0.1426585 -0.0463525 -0.4300000
v 0.1481533 -0.0234652 -0.4300000
v 0.1500000 -0.0000000 -0.4300000
v 0.2200000 0.0000000 -0.2000000
v 0.2172914 0.0328512 -0.2000000
v 0.2092324 0.0648936 -0.2000000
v 0.1960214 0.0953380 -0.2000000
v 0.1779837 0.1234349 -0.2000000
v 0.1555635 0.1484924 -0.2000000
v 0.1293128 0.1698936 -0.2000000
v 0.0998779 0.1871114 -0.2000000
v 0.0679837 0.1997219 -0.2000000
v 0.0344156 0.2074146 -0.2000000
v 0.0000000 0.2100000 -0.2000000
v -0.0344156 0.2074146 -0.2000000
v -0.0679837 0.1997219 -0.2000000
v -0.0998779 0.1871114 -0.2000000
v -0.1293128 0.1698936 -0.2000000
v -0.1555635 0.1484924 -0.2000000
v -0.1779837 0.1234349 -0.2000000
v -0.1960214 0.0953380 -0.2000000
v -0.2092324 0.0648936 -0.2000000
v -0.2172914 0.0328512 -0.2000000
v -0.2200000 0.0000000 -0.2000000
v -0.2172914 -0.0328512 -0.2000000
v -0.2092324 -0.0648936 -0.2000000
v -0.1960214 -0.0953380 -0.2000000
v -0.1779837 -0.1234349 -0.2000000
v -0.1555635 -0.1484924 -0.2000000
v -0.1293128 -0.1698936 -0.2000000
v -0.0998779 -0.1871114 -0.2000000
v -0.0679837 -0.1997219 -0.2000000
v -0.0344156 -0.2074146 -0.2000000
v -0.0000000 -0.2100000 -0.2000000
v 0.0344156 -0.2074146 -0.2000000
v 0.0679837 -0.1997219 -0.2000000
v 0.0998779 -0.1871114 -0.2000000
v 0.1293128 -0.1698936 -0.2000000
v 0.1555635 -0.1484924 -0.2000000
v 0.1779837 -0.1234349 -0.2000000
v 0.1960214 -0.0953380 -0.2000000
v 0.2092324 -0.0648936 -0.2000000
v 0.2172914 -0.0328512 -0.2000000
v 0.2200000 -0.0000000 -0.2000000
v 0.2500000 0.0000000 0.0000000
v 0.2469221 0.0359799 0.0000000
v 0.2377641 0.0710739 0.0000000
v 0.2227516 0.1044178 0.0000000
v 0.2022542 0.1351906 0.0000000
v 0.1767767 0.1626346 0.0000000
v 0.1469463 0.1860739 0.0000000
v 0.1134976 0.2049315 0.0000000
v 0.0772542 0.2187430 0.0000000
v 0.0391086 0.2271683 0.0000000
v 0.0000000 0.2300000 0.0000000
v -0.0391086 0.2271683 0.0000000
v -0.0772542 0.2187430 0.0000000
v -0.1134976 0.2049315 0.0000000
v -0.1469463 0.1860739 0.0000000
v -0.1767767 0.1626346 0.0000000
v -0.2022542 0.1351906 0.0000000
v -0.2227516 0.1044178 0.0000000
v -0.2377641 0.0710739 0.0000000
v -0.2469221 0.0359799 0.0000000
v -0.2500000 0.0000000 0.0000000
v -0.2469221 -0.0359799 0.0000000
v -0.2377641 -0.0710739 0.0000000
v -0.2227516 -0.1044178 0.0000000
v -0.2022542 -0.1351906 0.0000000
v -0.1767767 -0.1626346 0.0000000
v -0.1469463 -0.1860739 0.0000000
v -0.1134976 -0.2049315 0.0000000
v -0.0772542 -0.2187430 0.0000000
v -0.0391086 -0.2271683 0.0000000
v -0.0000000 -0.2300000 0.0000000
v 0.0391086 -0.2271683 0.0000000
v 0.0772542 -0.2187430 0.0000000
v 0.1134976 -0.2049315 0.0000000
v 0.1469463 -0.1860739 0.0000000
v 0.1767767 -0.1626346 0.0000000
v 0.2022542 -0.1351906 0.0000000
v 0.2227516 -0.1044178 0.0000000
v 0.2377641 -0.0710739 0.0000000
v 0.2469221 -0.0359799 0.0000000
v 0.2500000 -0.0000000 0.0000000
v 0.2000000 0.0000000 0.2000000
v 0.1975377 0.0297225 0.2000000
v 0.1902113 0.0587132 0.2000000
v 0.1782013 0.0862582 0.2000000
v 0.1618034 0.1116792 0.2000000
v 0.1414214 0.1343503 0.2000000
v 0.1175571 0.1537132 0.2000000
v 0.0907981 0.1692912 0.2000000
v 0.0618034 0.1807007 0.2000000
v 0.0312869 0.1876608 0.2000000
v 0.0000000 0.1900000 0.2000000
v -0.0312869 0.1876608 0.2000000
v -0.0618034 0.1807007 0.2000000
v -0.0907981 0.1692912 0.2000000
v -0.1175571 0.1537132 0.2000000
v -0.1414214 0.1343503 0.2000000
v -0.1618034 0.1116792 0.2000000
v -0.1782013 0.0862582 0.2000000
v -0.1902113 0.0587132 0.2000000
v -0.1975377 0.0297225 0.2000000
v -0.2000000 0.0000000 0.2000000
v -0.1975377 -0.0297225 0.2000000
v -0.1902113 -0.0587132 0.2000000
v -0.1782013 -0.0862582 0.2000000
v -0.1618034 -0.1116792 0.2000000
v -0.1414214 -0.1343503 0.2000000
v -0.1175571 -0.1537132 0.2000000
v -0.0907981 -0.1692912 0.2000000
v -0.0618034 -0.1807007 0.2000000
v -0.0312869 -0.1876608 0.2000000
v -0.0000000 -0.1900000 0.2000000
v 0.0312869 -0.1876608 0.2000000
v 0.0618034 -0.1807007 0.2000000
v 0.0907981 -0.1692912 0.2000000
v 0.1175571 -0.1537132 0.2000000
v 0.1414214 -0.1343503 0.2000000
v 0.1618034 -0.1116792 0.2000000
v 0.1782013 -0.0862582 0.2000000
v 0.1902113 -0.0587132 0.2000000
v 0.1975377 -0.0297225 0.2000000
v 0.2000000 -0.0000000 0.2000000
v 0.1400000 0.0000000 0.4000000
v 0.1382764 0.0219008 0.4000000
v 0.1331479 0.0432624 0.4000000
v 0.1247409 0.0635587 0.4000000
v 0.1132624 0.0822899 0.4000000
v 0.0989949 0.0989949 0.4000000
v 0.0822899 0.1132624 0.4000000
v 0.0635587 0.1247409 0.4000000
v 0.0432624 0.1331479 0.4000000
v 0.0219008 0.1382764 0.4000000
v 0.0000000 0.1400000 0.4000000
v -0.0219008 0.1382764 0.4000000
v -0.0432624 0.1331479 0.4000000
v -0.0635587 0.1247409 0.4000000
v -0.0822899 0.1132624 0.4000000
v -0.0989949 0.0989949 0.4000000
v -0.1132624 0.0822899 0.4000000
v -0.1247409 0.0635587 0.4000000
v -0.1331479 0.0432624 0.4000000
v -0.1382764 0.0219008 0.4000000
v -0.1400000 0.0000000 0.4000000
v -0.1382764 -0.0219008 0.4000000
v -0.1331479 -0.0432624 0.4000000
v -0.1247409 -0.0635587 0.4000000
v -0.1132624 -0.0822899 0.4000000
v -0.0989949 -0.0989949 0.4000000
v -0.0822899 -0.1132624 0.4000000
v -0.0635587 -0.1247409 0.4000000
v -0.0432624 -0.1331479 0.4000000
v -0.0219008 -0.1382764 0.4000000
v -0.0000000 -0.1400000 0.4000000
v 0.0219008 -0.1382764 0.4000000
v 0.0432624 -0.1331479 0.4000000
v 0.0635587 -0.1247409 0.4000000
v 0.0822899 -0.1132624 0.4000000
v 0.0989949 -0.0989949 0.4000000
v 0.1132624 -0.0822899 0.4000000
v 0.1247409 -0.0635587 0.4000000
v 0.1331479 -0.0432624 0.4000000
v 0.1382764 -0.0219008 0.4000000
v 0.1400000 -0.0000000 0.4000000
v 0.0500000 0.0000000 0.5200000
v 0.0493844 0.0093861 0.5200000
v 0.0475528 0.0185410 0.5200000
v 0.0445503 0.0272394 0.5200000
v 0.0404508 0.0352671 0.5200000
v 0.0353553 0.0424264 0.5200000
v 0.0293893 0.0485410 0.5200000
v 0.0226995 0.0534604 0.5200000
v 0.0154508 0.0570634 0.5200000
v 0.0078217 0.0592613 0.5200000
v 0.0000000 0.0600000 0.5200000
v -0.0078217 0.0592613 0.5200000
v -0.0154508 0.0570634 0.5200000
v -0.0226995 0.0534604 0.5200000
v -0.0293893 0.0485410 0.5200000
v -0.0353553 0.0424264 0.5200000
v -0.0404508 0.0352671 0.5200000
v -0.0445503 0.0272394 0.5200000
v -0.0475528 0.0185410 0.5200000
v -0.0493844 0.0093861 0.5200000
v -0.0500000 0.0000000 0.5200000
v -0.0493844 -0.0093861 0.5200000
v -0.0475528 -0.0185410 0.5200000
v -0.0445503 -0.0272394 0.5200000
v -0.0404508 -0.0352671 0.5200000
v -0.0353553 -0.0424264 0.5200000
v -0.0293893 -0.0485410 0.5200000
v -0.0226995 -0.0534604 0.5200000
v -0.0154508 -0.0570634 0.5200000
v -0.0078217 -0.0592613 0.5200000
v -0.0000000 -0.0600000 0.5200000
v 0.0078217 -0.0592613 0.5200000
v 0.0154508 -0.0570634 0.5200000
v 0.0226995 -0.0534604 0.5200000
v 0.0293893 -0.0485410 0.5200000
v 0.0353553 -0.0424264 0.5200000
v 0.0404508 -0.0352671 0.5200000
v 0.0445503 -0.0272394 0.5200000
v 0.0475528 -0.0185410 0.5200000
v 0.0493844 -0.0093861 0.5200000
v 0.0500000 -0.0000000 0.5200000
vt 0.0000000 0.0000000
vt 0.0000000 0.0250000
vt 0.0000000 0.0500000
vt 0.0000000 0.0750000
vt 0.0000000 0.1000000
vt 0.0000000 0.1250000
vt 0.0000000 0.1500000
vt 0.0000000 0.1750000
vt 0.0000000 0.2000000
vt 0.0000000 0.2250000
vt 0.0000000 0.2500000
vt 0.0000000 0.2750000
vt 0.0000000 0.3000000
vt 0.0000000 0.3250000
vt 0.0000000 0.3500000
vt 0.0000000 0.3750000
vt 0.0000000 0.4000000
vt 0.0000000 0.4250000
vt 0.0000000 0.4500000
vt 0.0000000 0.4750000
vt 0.0000000 0.5000000
vt 0.0000000 0.5250000
vt 0.0000000 0.5500000
vt 0.0000000 0.5750000
vt 0.0000000 0.6000000
vt 0.0000000 0.6250000
vt 0.0000000 0.6500000
vt 0.0000000 0.6750000
vt 0.0000000 0.7000000
vt 0.0000000 0.7250000
vt 0.0000000 0.7500000
vt 0.0000000 0.7750000
vt 0.0000000 0.8000000
vt 0.0000000 0.8250000
vt 0.0000000 0.8500000
vt 0.0000000 0.8750000
vt 0.0000000 0.9000000
vt 0.0000000 0.9250000
vt 0.0000000 0.9500000
vt 0.0000000 0.9750000
vt 0.0000000 1.0000000
vt 0.1666667 0.0000000
vt 0.1666667 0.0250000
vt 0.1666667 0.0500000
vt 0.1666667 0.0750000
vt 0.1666667 0.1000000
vt 0.1666667 0.1250000
vt 0.1666667 0.1500000
vt 0.1666667 0.1750000
vt 0.1666667 0.2000000
vt 0.1666667 0.2250000
vt 0.1666667 0.2500000
vt 0.1666667 0.2750000
vt 0.1666667 0.3000000
vt 0.1666667 0.3250000
vt 0.1666667 0.3500000
vt 0.1666667 0.3750000
vt 0.1666667 0.4000000
vt 0.1666667 0.4250000
vt 0.1666667 0.4500000
vt 0.1666667 0.4750000
vt 0.1666667 0.5000000
vt 0.1666667 0.5250000
vt 0.1666667 0.5500000
vt 0.1666667 0.5750000
vt 0.1666667 0.6000000
vt 0.1666667 0.6250000
vt 0.1666667 0.6500000
vt 0.1666667 0.6750000
vt 0.1666667 0.7000000
vt 0.1666667 0.7250000
vt 0.1666667 0.7500000
vt 0.1666667 0.7750000
vt 0.1666667 0.8000000
vt 0.1666667 0.8250000
vt 0.1666667 0.8500000
vt 0.1666667 0.8750000
vt 0.1666667 0.9000000
vt 0.1666667 0.9250000
vt 0.1666667 0.9500000
vt 0.1666667 0.9750000
vt 0.1666667 1.0000000
vt 0.3333333 0.0000000
vt 0.3333333 0.0250000
vt 0.3333333 0.0500000
vt 0.3333333 0.0750000
vt 0.3333333 0.1000000
vt 0.3333333 0.1250000
vt 0.3333333 0.1500000
vt 0.3333333 0.1750000
vt 0.3333333 0.2000000
vt 0.3333333 0.2250000
vt 0.3333333 0.2500000
vt 0.3333333 0.2750000
vt 0.3333333 0.3000000
vt 0.3333333 0.3250000
vt 0.3333333 0.3500000
vt 0.3333333 0.3750000
vt 0.3333333 0.4000000
vt 0.3333333 0.4250000
vt 0.3333333 0.4500000
vt 0.3333333 0.4750000
vt 0.3333333 0.5000000
vt 0.3333333 0.5250000
vt 0.3333333 0.5500000
vt 0.3333333 0.5750000
vt 0.3333333 0.6000000
vt 0.3333333 0.6250000
vt 0.3333333 0.6500000
vt 0.3333333 0.6750000
vt 0.3333333 0.7000000
vt 0.3333333 0.7250000
vt 0.3333333 0.7500000
vt 0.3333333 0.7750000
vt 0.3333333 0.8000000
vt 0.3333333 0.8250000
vt 0.3333333 0.8500000
vt 0.3333333 0.8750000
vt 0.3333333 0.9000000
vt 0.3333333 0.9250000
vt 0.3333333 0.9500000
vt 0.3333333 0.9750000
vt 0.3333333 1.0000000
vt 0.5000000 0.0000000
vt 0.5000000 0.0250000
vt 0.5000000 0.0500000
vt 0.5000000 0.0750000
vt 0.5000000 0.1000000
vt 0.5000000 0.1250000
vt 0.5000000 0.1500000
vt 0.5000000 0.1750000
vt 0.5000000 0.2000000
vt 0.5000000 0.2250000
vt 0.5000000 0.2500000
vt 0.5000000 0.2750000
vt 0.5000000 0.3000000
vt 0.5000000 0.3250000
vt 0.5000000 0.3500000
vt 0.5000000 0.3750000
vt 0.5000000 0.4000000
vt 0.5000000 0.4250000
vt 0.5000000 0.4500000
vt 0.5000000 0.4750000
vt 0.5000000 0.5000000
vt 0.5000000 0.5250000
vt 0.5000000 0.5500000
vt 0.5000000 0.5750000
vt 0.5000000 0.6000000
vt 0.5000000 0.6250000
vt 0.5000000 0.6500000
vt 0.5000000 0.6750000
vt 0.5000000 0.7000000
vt 0.5000000 0.7250000
vt 0.5000000 0.7500000
vt 0.5000000 0.7750000
vt 0.5000000 0.8000000
vt 0.5000000 0.8250000
vt 0.5000000 0.8500000
vt 0.5000000 0.8750000
vt 0.5000000 0.9000000
vt 0.5000000 0.9250000
vt 0.5000000 0.9500000
vt 0.5000000 0.9750000
vt 0.5000000 1.0000000
vt 0.6666667 0.0000000
vt 0.6666667 0.0250000
vt 0.6666667 0.0500000
vt 0.6666667 0.0750000
vt 0.6666667 0.1000000
vt 0.6666667 0.1250000
vt 0.6666667 0.1500000
vt 0.6666667 0.1750000
vt 0.6666667 0.2000000
vt 0.6666667 0.2250000
vt 0.6666667 0.2500000
vt 0.6666667 0.2750000
vt 0.6666667 0.3000000
vt 0.6666667 0.3250000
vt 0.6666667 0.3500000
vt 0.6666667 0.3750000
vt 0.6666667 0.4000000
vt 0.6666667 0.4250000
vt 0.6666667 0.4500000
vt 0.6666667 0.4750000
vt 0.6666667 0.5000000
vt 0.6666667 0.5250000
vt 0.6666667 0.5500000
vt 0.6666667 0.5750000
vt 0.6666667 0.6000000
vt 0.6666667 0.6250000
vt 0.6666667 0.6500000
vt 0.6666667 0.6750000
vt 0.6666667 0.7000000
vt 0.6666667 0.7250000
vt 0.6666667 0.7500000
vt 0.6666667 0.7750000
vt 0.6666667 0.8000000
vt 0.6666667 0.8250000
vt 0.6666667 0.8500000
vt 0.6666667 0.8750000
vt 0.6666667 0.9000000
vt 0.6666667 0.9250000
vt 0.6666667 0.9500000
vt 0.6666667 0.9750000
vt 0.6666667 1.0000000
vt 0.8333333 0.0000000
vt 0.8333333 0.0250000
vt 0.8333333 0.0500000
vt 0.8333333 0.0750000
vt 0.8333333 0.1000000
vt 0.8333333 0.1250000
vt 0.8333333 0.1500000
vt 0.8333333 0.1750000
vt 0.8333333 0.2000000
vt 0.8333333 0.2250000
vt 0.8333333 0.2500000
vt 0.8333333 0.2750000
vt 0.8333333 0.3000000
vt 0.8333333 0.3250000
vt 0.8333333 0.3500000
vt 0.8333333 0.3750000
vt 0.8333333 0.4000000
vt 0.8333333 0.4250000
vt 0.8333333 0.4500000
vt 0.8333333 0.4750000
vt 0.8333333 0.5000000
vt 0.8333333 0.5250000
vt 0.8333333 0.5500000
vt 0.8333333 0.5750000
vt 0.8333333 0.6000000
vt 0.8333333 0.6250000
vt 0.8333333 0.6500000
vt 0.8333333 0.6750000
vt 0.8333333 0.7000000
vt 0.8333333 0.7250000
vt 0.8333333 0.7500000
vt 0.8333333 0.7750000
vt 0.8333333 0.8000000
vt 0.8333333 0.8250000
vt 0.8333333 0.8500000
vt 0.8333333 0.8750000
vt 0.8333333 0.9000000
vt 0.8333333 0.9250000
vt 0.8333333 0.9500000
vt 0.8333333 0.9750000
vt 0.8333333 1.0000000
vt 1.0000000 0.0000000
vt 1.0000000 0.0250000
vt 1.0000000 0.0500000
vt 1.0000000 0.0750000
vt 1.0000000 0.1000000
vt 1.0000000 0.1250000
vt 1.0000000 0.1500000
vt 1.0000000 0.1750000
vt 1.0000000 0.2000000
vt 1.0000000 0.2250000
vt 1.0000000 0.2500000
vt 1.0000000 0.2750000
vt 1.0000000 0.3000000
vt 1.0000000 0.3250000
vt 1.0000000 0.3500000
vt 1.0000000 0.3750000
vt 1.0000000 0.4000000
vt 1.0000000 0.4250000
vt 1.0000000 0.4500000
vt 1.0000000 0.4750000
vt 1.0000000 0.5000000
vt 1.0000000 0.5250000
vt 1.0000000 0.5500000
vt 1.0000000 0.5750000
vt 1.0000000 0.6000000
vt 1.0000000 0.6250000
vt 1.0000000 0.6500000
vt 1.0000000 0.6750000
vt 1.0000000 0.7000000
vt 1.0000000 0.7250000
vt 1.0000000 0.7500000
vt 1.0000000 0.7750000
vt 1.0000000 0.8000000
vt 1.0000000 0.8250000
vt 1.0000000 0.8500000
vt 1.0000000 0.8750000
vt 1.0000000 0.9000000
vt 1.0000000 0.9250000
vt 1.0000000 0.9500000
vt 1.0000000 0.9750000
vt 1.0000000 1.0000000
vn -0.7063037 -0.0476463 0.7063037
vn -0.7040229 -0.0746755 0.7062402
vn -0.6875053 -0.1776418 0.7041164
vn -0.6569831 -0.2791295 0.7003285
vn -0.6116671 -0.3776837 0.6951391
vn -0.5507642 -0.4711794 0.6889475
vn -0.4738459 -0.5567316 0.6822903
vn -0.3812833 -0.6307861 0.6758195
vn -0.2746549 -0.6894459 0.6702455
vn -0.1569819 -0.7290260 0.6662415
vn -0.0326494 -0.7467290 0.6643266
vn 0.0930438 -0.7412416 0.6647584
vn 0.2146149 -0.7130333 0.6674759
vn 0.3271848 -0.6642383 0.6721143
vn 0.4270701 -0.5981732 0.6780855
vn 0.5120283 -0.5186736 0.6846932
vn 0.5811517 -0.4294714 0.6912431
vn 0.6345246 -0.3337623 0.6971236
vn 0.6727915 -0.2340102 0.7018482
vn 0.6967545 -0.1319585 0.7050675
vn 0.7070639 -0.0287830 0.7065636
vn 0.7040229 0.0746755 0.7062402
vn 0.6875053 0.1776418 0.7041164
vn 0.6569831 0.2791295 0.7003285
vn 0.6116671 0.3776837 0.6951391
vn 0.5507642 0.4711794 0.6889475
vn 0.4738459 0.5567316 0.6822903
vn 0.3812833 0.6307861 0.6758195
vn 0.2746549 0.6894459 0.6702455
vn 0.1569819 0.7290260 0.6662415
vn 0.0326494 0.7467290 0.6643266
vn -0.0930438 0.7412416 0.6647584
vn -0.2146149 0.7130333 0.6674759
vn -0.3271848 0.6642383 0.6721143
vn -0.4270701 0.5981732 0.6780855
vn -0.5120283 0.5186736 0.6846932
vn -0.5811517 0.4294714 0.6912431
vn -0.6345246 0.3337623 0.6971236
vn -0.6727915 0.2340102 0.7018482
vn -0.6967545 0.1319585 0.7050675
vn -0.7064397 0.0530708 0.7057808
vn -0.8713833 -0.0674427 0.4859451
vn -0.9014689 -0.1223869 0.4151810
vn -0.8722912 -0.2635753 0.4118692
vn -0.8219514 -0.3988230 0.4066154
vn -0.7513881 -0.5248718 0.3999069
vn -0.6620425 -0.6385436 0.3923797
vn -0.5558935 -0.7368438 0.3847645
vn -0.4354543 -0.8170886 0.3778171
vn -0.3037232 -0.8770346 0.3722399
vn -0.1640913 -0.9149889 0.3686047
vn -0.0202218 -0.9298878 0.3672869
vn 0.1240860 -0.9213403 0.3684219
vn 0.2650363 -0.8896370 0.3718895
vn 0.3989717 -0.8357298 0.3773290
vn 0.5224999 -0.7611818 0.3841824
vn 0.6326010 -0.6680880 0.3917581
vn 0.7267080 -0.5589718 0.3993069
vn 0.8027484 -0.4366682 0.4060984
vn 0.8591457 -0.3042118 0.4114898
vn 0.8947904 -0.1647469 0.4149804
vn 0.9089968 -0.0214714 0.4162497
vn 0.9014689 0.1223869 0.4151810
vn 0.8722912 0.2635753 0.4118692
vn 0.8219514 0.3988230 0.4066154
vn 0.7513881 0.5248718 0.3999069
vn 0.6620425 0.6385436 0.3923797
vn 0.5558935 0.7368438 0.3847645
vn 0.4354543 0.8170886 0.3778171
vn 0.3037232 0.8770346 0.3722399
vn 0.1640913 0.9149889 0.3686047
vn 0.0202218 0.9298878 0.3672869
vn -0.1240860 0.9213403 0.3684219
vn -0.2650363 0.8896370 0.3718895
vn -0.3989717 0.8357298 0.3773290
vn -0.5224999 0.7611818 0.3841824
vn -0.6326010 0.6680880 0.3917581
vn -0.7267080 0.5589718 0.3993069
vn -0.8027484 0.4366682 0.4060984
vn -0.8591457 0.3042118 0.4114898
vn -0.8947904 0.1647469 0.4149804
vn -0.9253557 0.0745664 0.3716944
vn -0.9666185 -0.0786957 0.2438352
vn -0.9629133 -0.1552862 0.2206447
vn -0.9253645 -0.3105056 0.2174552
vn -0.8639346 -0.4565966 0.2124539
vn -0.7809237 -0.5896208 0.2061686
vn -0.6792183 -0.7063736 0.1992457
vn -0.5620298 -0.8044342 0.1923749
vn -0.4326670 -0.8821123 0.1862178
vn -0.2943745 -0.9383265 0.1813478
vn -0.1502529 -0.9724541 0.1782052
vn -0.0032545 -0.9841932 0.1770680
vn 0.1437634 -0.9734658 0.1780348
vn 0.2879550 -0.9403795 0.1810203
vn 0.4263995 -0.8852552 0.1857599
vn 0.5560420 -0.8087151 0.1918258
vn 0.6736888 -0.7118142 0.1986555
vn 0.7760739 -0.5961880 0.2055947
vn 0.8600071 -0.4641795 0.2119558
vn 0.9225907 -0.3189035 0.2170875
vn 0.9614759 -0.1642138 0.2204494
vn 0.9751088 -0.0045558 0.2216800
vn 0.9629133 0.1552862 0.2206447
vn 0.9253645 0.3105056 0.2174552
vn 0.8639346 0.4565966 0.2124539
vn 0.7809237 0.5896208 0.2061686
vn 0.6792183 0.7063736 0.1992457
vn 0.5620298 0.8044342 0.1923749
vn 0.4326670 0.8821123 0.1862178
vn 0.2943745 0.9383265 0.1813478
vn 0.1502529 0.9724541 0.1782052
vn 0.0032545 0.9841932 0.1770680
vn -0.1437634 0.9734658 0.1780348
vn -0.2879550 0.9403795 0.1810203
vn -0.4263995 0.8852552 0.1857599
vn -0.5560420 0.8087151 0.1918258
vn -0.6736888 0.7118142 0.1986555
vn -0.7760739 0.5961880 0.2055947
vn -0.8600071 0.4641795 0.2119558
vn -0.9225907 0.3189035 0.2170875
vn -0.9614759 0.1642138 0.2204494
vn -0.9764576 0.0815286 0.1997089
vn -0.9963652 -0.0842676 0.0124665
vn -0.9844840 -0.1689455 -0.0474193
vn -0.9425214 -0.3306961 -0.0478902
vn -0.8753217 -0.4811225 -0.0483018
vn -0.7862508 -0.6159920 -0.0486156
vn -0.6791955 -0.7323329 -0.0488053
vn -0.5580798 -0.8283477 -0.0488570
vn -0.4265321 -0.9031566 -0.0487692
vn -0.2877295 -0.9564802 -0.0485516
vn -0.1443937 -0.9883445 -0.0482241
vn 0.0011072 -0.9988556 -0.0478152
vn 0.1465940 -0.9880623 -0.0473605
vn 0.2898856 -0.9559114 -0.0469009
vn 0.4286079 -0.9022942 -0.0464796
vn 0.5600308 -0.8271860 -0.0461388
vn 0.6809677 -0.7308726 -0.0459152
vn 0.7877822 -0.6142461 -0.0458355
vn 0.8765469 -0.4791217 -0.0459119
vn 0.9433792 -0.3284917 -0.0461390
vn 0.9849263 -0.1666090 -0.0464935
vn 0.9988972 0.0011911 -0.0469365
vn 0.9844840 0.1689455 -0.0474193
vn 0.9425214 0.3306961 -0.0478902
vn 0.8753217 0.4811225 -0.0483018
vn 0.7862508 0.6159920 -0.0486156
vn 0.6791955 0.7323329 -0.0488053
vn 0.5580798 0.8283477 -0.0488570
vn 0.4265321 0.9031566 -0.0487692
vn 0.2877295 0.9564802 -0.0485516
vn 0.1443937 0.9883445 -0.0482241
vn -0.0011072 0.9988556 -0.0478152
vn -0.1465940 0.9880623 -0.0473605
vn -0.2898856 0.9559114 -0.0469009
vn -0.4286079 0.9022942 -0.0464796
vn -0.5600308 0.8271860 -0.0461388
vn -0.6809677 0.7308726 -0.0459152
vn -0.7877822 0.6142461 -0.0458355
vn -0.8765469 0.4791217 -0.0459119
vn -0.9433792 0.3284917 -0.0461390
vn -0.9849263 0.1666090 -0.0464935
vn -0.9906738 0.0839652 -0.1073093
vn -0.9633742 -0.0807909 -0.2557011
vn -0.9506879 -0.1660175 -0.2619748
vn -0.9116127 -0.3195633 -0.2585375
vn -0.8490802 -0.4635850 -0.2532820
vn -0.7654835 -0.5942576 -0.2467649
vn -0.6637504 -0.7085201 -0.2396553
vn -0.5470784 -0.8040992 -0.2326578
vn -0.4187140 -0.8794333 -0.2264413
vn -0.2818074 -0.9335347 -0.2215797
vn -0.1393507 -0.9658339 -0.2185093
vn 0.0058096 -0.9760429 -0.2175005
vn 0.1509064 -0.9640658 -0.2186422
vn 0.2931590 -0.9299711 -0.2218365
vn 0.4296828 -0.8740325 -0.2268037
vn 0.5574301 -0.7968296 -0.2330972
vn 0.6731901 -0.6993933 -0.2401334
vn 0.7736671 -0.5833642 -0.2472355
vn 0.8556432 -0.4511248 -0.2536948
vn 0.9162143 -0.3058607 -0.2588448
vn 0.9530619 -0.1515132 -0.2621389
vn 0.9647072 0.0073908 -0.2632212
vn 0.9506879 0.1660175 -0.2619748
vn 0.9116127 0.3195633 -0.2585375
vn 0.8490802 0.4635850 -0.2532820
vn 0.7654835 0.5942576 -0.2467649
vn 0.6637504 0.7085201 -0.2396553
vn 0.5470784 0.8040992 -0.2326578
vn 0.4187140 0.8794333 -0.2264413
vn 0.2818074 0.9335347 -0.2215797
vn 0.1393507 0.9658339 -0.2185093
vn -0.0058096 0.9760429 -0.2175005
vn -0.1509064 0.9640658 -0.2186422
vn -0.2931590 0.9299711 -0.2218365
vn -0.4296828 0.8740325 -0.2268037
vn -0.5574301 0.7968296 -0.2330972
vn -0.6731901 0.6993933 -0.2401334
vn -0.7736671 0.5833642 -0.2472355
vn -0.8556432 0.4511248 -0.2536948
vn -0.9162143 0.3058607 -0.2588448
vn -0.9530619 0.1515132 -0.2621389
vn -0.9596070 0.0784274 -0.2701918
vn -0.9286957 -0.0748554 -0.3632093
vn -0.9028223 -0.1622252 -0.3982396
vn -0.8676027 -0.3025644 -0.3946142
vn -0.8115046 -0.4360402 -0.3890106
vn -0.7355730 -0.5595082 -0.3819462
vn -0.6413191 -0.6699021 -0.3740870
vn -0.5307650 -0.7643243 -0.3661924
vn -0.4064553 -0.8401675 -0.3590441
vn -0.2714225 -0.8952444 -0.3533657
vn -0.1291080 -0.9279068 -0.3497430
vn 0.0167525 -0.9371385 -0.3485552
vn 0.1622658 -0.9226155 -0.3499292
vn 0.3035323 -0.8847306 -0.3537229
vn 0.4367992 -0.8245823 -0.3595420
vn 0.5586105 -0.7439232 -0.3667868
vn 0.6659353 -0.6450685 -0.3747223
vn 0.7562612 -0.5307701 -0.3825600
vn 0.8276372 -0.4040735 -0.3895398
vn 0.8786648 -0.2681809 -0.3950027
vn 0.9084483 -0.1263449 -0.3984452
vn 0.9165279 0.0181936 -0.3995567
vn 0.9028223 0.1622252 -0.3982396
vn 0.8676027 0.3025644 -0.3946142
vn 0.8115046 0.4360402 -0.3890106
vn 0.7355730 0.5595082 -0.3819462
vn 0.6413191 0.6699021 -0.3740870
vn 0.5307650 0.7643243 -0.3661924
vn 0.4064553 0.8401675 -0.3590441
vn 0.2714225 0.8952444 -0.3533657
vn 0.1291080 0.9279068 -0.3497430
vn -0.0167525 0.9371385 -0.3485552
vn -0.1622658 0.9226155 -0.3499292
vn -0.3035323 0.8847306 -0.3537229
vn -0.4367992 0.8245823 -0.3595420
vn -0.5586105 0.7439232 -0.3667868
vn -0.6659353 0.6450685 -0.3747223
vn -0.7562612 0.5307701 -0.3825600
vn -0.8276372 0.4040735 -0.3895398
vn -0.8786648 0.2681809 -0.3950027
vn -0.9084483 0.1263449 -0.3984452
vn -0.8896972 0.0684048 -0.4513975
vn -0.7988471 -0.0597271 -0.5985616
vn -0.7876161 -0.1495314 -0.5977468
vn -0.7598033 -0.2637147 -0.5942673
vn -0.7156862 -0.3750368 -0.5891864
vn -0.6545050 -0.4815086 -0.5829002
vn -0.5756924 -0.5804011 -0.5759452
vn -0.4792957 -0.6682367 -0.5689774
vn -0.3664287 -0.7409950 -0.5627223
vn -0.2396314 -0.7945649 -0.5578920
vn -0.1029822 -0.8253992 -0.5550774
vn 0.0381605 -0.8312146 -0.5546405
vn 0.1777893 -0.8115063 -0.5566403
vn 0.3100883 -0.7676763 -0.5608193
vn 0.4302161 -0.7027193 -0.5666567
vn 0.5347895 -0.6205923 -0.5734678
vn 0.6219719 -0.5255005 -0.5805171
vn 0.6912278 -0.4213105 -0.5871129
vn 0.7428951 -0.3112047 -0.5926706
vn 0.7777265 -0.1975814 -0.5967437
vn 0.7965015 -0.0821440 -0.5990307
vn 0.7997524 0.0338918 -0.5993725
vn 0.7876161 0.1495314 -0.5977468
vn 0.7598033 0.2637147 -0.5942673
vn 0.7156862 0.3750368 -0.5891864
vn 0.6545050 0.4815086 -0.5829002
vn 0.5756924 0.5804011 -0.5759452
vn 0.4792957 0.6682367 -0.5689774
vn 0.3664287 0.7409950 -0.5627223
vn 0.2396314 0.7945649 -0.5578920
vn 0.1029822 0.8253992 -0.5550774
vn -0.0381605 0.8312146 -0.5546405
vn -0.1777893 0.8115063 -0.5566403
vn -0.3100883 0.7676763 -0.5608193
vn -0.4302161 0.7027193 -0.5666567
vn -0.5347895 0.6205923 -0.5734678
vn -0.6219719 0.5255005 -0.5805171
vn -0.6912278 0.4213105 -0.5871129
vn -0.7428951 0.3112047 -0.5926706
vn -0.7777265 0.1975814 -0.5967437
vn -0.7965015 0.0821440 -0.5990307
vn -0.7989011 0.0523957 -0.5991758
f 1/1/1 42/42/42 2/2/2
f 2/2/2 42/42/42 43/43/43
f 2/2/2 43/43/43 3/3/3
f 3/3/3 43/43/43 44/44/44
f 3/3/3 44/44/44 4/4/4
f 4/4/4 44/44/44 45/45/45
f 4/4/4 45/45/45 5/5/5
f 5/5/5 45/45/45 46/46/46
f 5/5/5 46/46/46 6/6/6
f 6/6/6 46/46/46 47/47/47
f 6/6/6 47/47/47 7/7/7
f 7/7/7 47/47/47 48/48/48
f 7/7/7 48/48/48 8/8/8
f 8/8/8 48/48/48 49/49/49
f 8/8/8 49/49/49 9/9/9
f 9/9/9 49/49/49 50/50/50
f 9/9/9 50/50/50 10/10/10
f 10/10/10 50/50/50 51/51/51
f 10/10/10 51/51/51 11/11/11
f 11/11/11 51/51/51 52/52/52
f 11/11/11 52/52/52 12/12/12
f 12/12/12 52/52/52 53/53/53
f 12/12/12 53/53/53 13/13/13
f 13/13/13 53/53/53 54/54/54
f 13/13/13 54/54/54 14/14/14
f 14/14/14 54/54/54 55/55/55
f 14/14/14 55/55/55 15/15/15
f 15/15/15 55/55/55 56/56/56
f 15/15/15 56/56/56 16/16/16
f 16/16/16 56/56/56 57/57/57
f 16/16/16 57/57/57 17/17/17
f 17/17/17 57/57/57 58/58/58
f 17/17/17 58/58/58 18/18/18
f 18/18/18 58/58/58 59/59/59
f 18/18/18 59/59/59 19/19/19
f 19/19/19 59/59/59 60/60/60
f 19/19/19 60/60/60 20/20/20
f 20/20/20 60/60/60 61/61/61
f 20/20/20 61/61/61 21/21/21
f 21/21/21 61/61/61 62/62/62
f 21/21/21 62/62/62 22/22/22
f 22/22/22 62/62/62 63/63/63
f 22/22/22 63/63/63 23/23/23
f 23/23/23 63/63/63 64/64/64
f 23/23/23 64/64/64 24/24/24
f 24/24/24 64/64/64 65/65/65
f 24/24/24 65/65/65 25/25/25
f 25/25/25 65/65/65 66/66/66
f 25/25/25 66/66/66 26/26/26
f 26/26/26 66/66/66 67/67/67
f 26/26/26 67/67/67 27/27/27
f 27/27/27 67/67/67 68/68/68
f 27/27/27 68/68/68 28/28/28
f 28/28/28 68/68/68 69/69/69
f 28/28/28 69/69/69 29/29/29
f 29/29/29 69/69/69 70/70/70
f 29/29/29 70/70/70 30/30/30
f 30/30/30 70/70/70 71/71/71
f 30/30/30 71/71/71 31/31/31
f 31/31/31 71/71/71 72/72/72
f 31/31/31 72/72/72 32/32/32
f 32/32/32 72/72/72 73/73/73
f 32/32/32 73/73/73 33/33/33
f 33/33/33 73/73/73 74/74/74
f 33/33/33 74/74/74 34/34/34
f 34/34/34 74/74/74 75/75/75
f 34/34/34 75/75/75 35/35/35
f 35/35/35 75/75/75 76/76/76
f 35/35/35 76/76/76 36/36/36
f 36/36/36 76/76/76 77/77/77
f 36/36/36 77/77/77 37/37/37
f 37/37/37 77/77/77 78/78/78
f 37/37/37 78/78/78 38/38/38
f 38/38/38 78/78/78 79/79/79
f 38/38/38 79/79/79 39/39/39
f 39/39/39 79/79/79 80/80/80
f 39/39/39 80/80/80 40/40/40
f 40/40/40 80/80/80 81/81/81
f 40/40/40 81/81/81 41/41/41
f 41/41/41 81/81/81 82/82/82
f 42/42/42 83/83/83 43/43/43
f 43/43/43 83/83/83 84/84/84
f 43/43/43 84/84/84 44/44/44
f 44/44/44 84/84/84 85/85/85
f 44/44/44 85/85/85 45/45/45
f 45/45/45 85/85/85 86/86/86
f 45/45/45 86/86/86 46/46/46
f 46/46/46 86/86/86 87/87/87
f 46/46/46 87/87/87 47/47/47
f 47/47/47 87/87/87 88/88/88
f 47/47/47 88/88/88 48/48/48
f 48/48/48 88/88/88 89/89/89
f 48/48/48 89/89/89 49/49/49
f 49/49/49 89/89/89 90/90/90
f 49/49/49 90/90/90 50/50/50
f 50/50/50 90/90/90 91/91/91
f 50/50/50 91/91/91 51/51/51
f 51/51/51 91/91/91 92/92/92
f 51/51/51 92/92/92 52/52/52
f 52/52/52 92/92/92 93/93/93
f 52/52/52 93/93/93 53/53/53
f 53/53/53 93/93/93 94/94/94
f 53/53/53 94/94/94 54/54/54
f 54/54/54 94/94/94 95/95/95
f 54/54/54 95/95/95 55/55/55
f 55/55/55 95/95/95 96/96/96
f 55/55/55 96/96/96 56/56/56
f 56/56/56 96/96/96 97/97/97
f 56/56/56 97/97/97 57/57/57
f 57/57/57 97/97/97 98/98/98
f 57/57/57 98/98/98 58/58/58
f 58/58/58 98/98/98 99/99/99
f 58/58/58 99/99/99 59/59/59
f 59/59/59 99/99/99 100/100/100
f 59/59/59 100/100/100 60/60/60
f 60/60/60 100/100/100 101/101/101
f 60/60/60 101/101/101 61/61/61
f 61/61/61 101/101/101 102/102/102
f 61/61/61 102/102/102 62/62/62
f 62/62/62 102/102/102 103/103/103
f 62/62/62 103/103/103 63/63/63
f 63/63/63 103/103/103 104/104/104
f 63/63/63 104/104/104 64/64/64
f 64/64/64 104/104/104 105/105/105
f 64/64/64 105/105/105 65/65/65
f 65/65/65 105/105/105 106/106/106
f 65/65/65 106/106/106 66/66/66
f 66/66/66 106/106/106 107/107/107
f 66/66/66 107/107/107 67/67/67
f 67/67/67 107/107/107 108/108/108
f 67/67/67 108/108/108 68/68/68
f 68/68/68 108/108/108 109/109/109
f 68/68/68 109/109/109 69/69/69
f 69/69/69 109/109/109 110/110/110
f 69/69/69 110/110/110 70/70/70
f 70/70/70 110/110/110 111/111/111
f 70/70/70 111/111/111 71/71/71
f 71/71/71 111/111/111 112/112/112
f 71/71/71 112/112/112 72/72/72
f 72/72/72 112/112/112 113/113/113
f 72/72/72 113/113/113 73/73/73
f 73/73/73 113/113/113 114/114/114
f 73/73/73 114/114/114 74/74/74
f 74/74/74 114/114/114 115/115/115
f 74/74/74 115/115/115 75/75/75
f 75/75/75 115/115/115 116/116/116
f 75/75/75 116/116/116 76/76/76
f 76/76/76 116/116/116 117/117/117
f 76/76/76 117/117/117 77/77/77
f 77/77/77 117/117/117 118/118/118
f 77/77/77 118/118/118 78/78/78
f 78/78/78 118/118/118 119/119/119
f 78/78/78 119/119/119 79/79/79
f 79/79/79 119/119/119 120/120/120
f 79/79/79 120/120/120 80/80/80
f 80/80/80 120/120/120 121/121/121
f 80/80/80 121/121/121 81/81/81
f 81/81/81 121/121/121 122/122/122
f 81/81/81 122/122/122 82/82/82
f 82/82/82 122/122/122 123/123/123
f 83/83/83 124/124/124 84/84/84
f 84/84/84 124/124/124 125/125/125
f 84/84/84 125/125/125 85/85/85
f 85/85/85 125/125/125 126/126/126
f 85/85/85 126/126/126 86/86/86
f 86/86/86 126/126/126 127/127/127
f 86/86/86 127/127/127 87/87/87
f 87/87/87 127/127/127 128/128/128
f 87/87/87 128/128/128 88/88/88
f 88/88/88 128/128/128 129/129/129
f 88/88/88 129/129/129 89/89/89
f 89/89/89 129/129/129 130/130/130
f 89/89/89 130/130/130 90/90/90
f 90/90/90 130/130/130 131/131/131
f 90/90/90 131/131/131 91/91/91
f 91/91/91 131/131/131 132/132/132
f 91/91/91 132/132/132 92/92/92
f 92/92/92 132/132/132 133/133/133
f 92/92/92 133/133/133 93/93/93
f 93/93/93 133/133/133 134/134/134
f 93/93/93 134/134/134 94/94/94
f 94/94/94 134/134/134 135/135/135
f 94/94/94 135/135/135 95/95/95
f 95/95/95 135/135/135 136/136/136
f 95/95/95 136/136/136 96/96/96
f 96/96/96 136/136/136 137/137/137
f 96/96/96 137/137/137 97/97/97
f 97/97/97 137/137/137 138/138/138
f 97/97/97 138/138/138 98/98/98
f 98/98/98 138/138/138 139/139/139
f 98/98/98 139/139/139 99/99/99
f 99/99/99 139/139/139 140/140/140
f 99/99/99 140/140/140 100/100/100
f 100/100/100 140/140/140 141/141/141
f 100/100/100 141/141/141 101/101/101
f 101/101/101 141/141/141 142/142/142
f 101/101/101 142/142/142 102/102/102
f 102/102/102 142/142/142 143/143/143
f 102/102/102 143/143/143 103/103/103
f 103/103/103 143/143/143 144/144/144
f 103/103/103 144/144/144 104/104/104
f 104/104/104 144/144/144 145/145/145
f 104/104/104 145/145/145 105/105/105
f 105/105/105 145/145/145 146/146/146
f 105/105/105 146/146/146 106/106/106
f 106/106/106 146/146/146 147/147/147
f 106/106/106 147/147/147 107/107/107
f 107/107/107 147/147/147 148/148/148
f 107/107/107 148/148/148 108/108/108
f 108/108/108 148/148/148 149/149/149
f 108/108/108 149/149/149 109/109/109
f 109/109/109 149/149/149 150/150/150
f 109/109/109 150/150/150 110/110/110
f 110/110/110 150/150/150 151/151/151
f 110/110/110 151/151/151 111/111/111
f 111/111/111 151/151/151 152/152/152
f 111/111/111 152/152/152 112/112/112
f 112/112/112 152/152/152 153/153/153
f 112/112/112 153/153/153 113/113/113
f 113/113/113 153/153/153 154/154/154
f 113/113/113 154/154/154 114/114/114
f 114/114/114 154/154/154 155/155/155
f 114/114/114 155/155/155 115/115/115
f 115/115/115 155/155/155 156/156/156
f 115/115/115 156/156/156 116/116/116
f 116/116/116 156/156/156 157/157/157
f 116/116/116 157/157/157 117/117/117
f 117/117/117 157/157/157 158/158/158
f 117/117/117 158/158/158 118/118/118
f 118/118/118 158/158/158 159/159/159
f 118/118/118 159/159/159 119/119/119
f 119/119/119 159/159/159 160/160/160
f 119/119/119 160/160/160 120/120/120
f 120/120/120 160/160/160 161/161/161
f 120/120/120 161/161/161 121/121/121
f 121/121/121 161/161/161 162/162/162
f 121/121/121 162/162/162 122/122/122
f 122/122/122 162/162/162 163/163/163
f 122/122/122 163/163/163 123/123/123
f 123/123/123 163/163/163 164/164/164
f 124/124/124 165/165/165 125/125/125
f 125/125/125 165/165/165 166/166/166
f 125/125/125 166/166/166 126/126/126
f 126/126/126 166/166/166 167/167/167
f 126/126/126 167/167/167 127/127/127
f 127/127/127 167/167/167 168/168/168
f 127/127/127 168/168/168 128/128/128
f 128/128/128 168/168/168 169/169/169
f 128/128/128 169/169/169 129/129/129
f 129/129/129 169/169/169 170/170/170
f 129/129/129 170/170/170 130/130/130
f 130/130/130 170/170/170 171/171/171
f 130/130/130 171/171/171 131/131/131
f 131/131/131 171/171/171 172/172/172
f 131/131/131 172/172/172 132/132/132
f 132/132/132 172/172/172 173/173/173
f 132/132/132 173/173/173 133/133/133
f 133/133/133 173/173/173 174/174/174
f 133/133/133 174/174/174 134/134/134
f 134/134/134 174/174/174 175/175/175
f 134/134/134 175/175/175 135/135/135
f 135/135/135 175/175/175 176/176/176
f 135/135/135 176/176/176 136/136/136
f 136/136/136 176/176/176 177/177/177
f 136/136/136 177/177/177 137/137/137
f 137/137/137 177/177/177 178/178/178
f 137/137/137 178/178/178 138/138/138
f 138/138/138 178/178/178 179/179/179
f 138/138/138 179/179/179 139/139/139
f 139/139/139 179/179/179 180/180/180
f 139/139/139 180/180/180 140/140/140
f 140/140/140 180/180/180 181/181/181
f 140/140/140 181/181/181 141/141/141
f 141/141/141 181/181/181 182/182/182
f 141/141/141 182/182/182 142/142/142
f 142/142/142 182/182/182 183/183/183
f 142/142/142 183/183/183 143/143/143
f 143/143/143 183/183/183 184/184/184
f 143/143/143 184/184/184 144/144/144
f 144/144/144 184/184/184 185/185/185
f 144/144/144 185/185/185 145/145/145
f 145/145/145 185/185/185 186/186/186
f 145/145/145 186/186/186 146/146/146
f 146/146/146 186/186/186 187/187/187
f 146/146/146 187/187/187 147/147/147
f 147/147/147 187/187/187 188/188/188
f 147/147/147 188/188/188 148/148/148
f 148/148/148 188/188/188 189/189/189
f 148/148/148 189/189/189 149/149/149
f 149/149/149 189/189/189 190/190/190
f 149/149/149 190/190/190 150/150/150
f 150/150/150 190/190/190 191/191/191
f 150/150/150 191/191/191 151/151/151
f 151/151/151 191/191/191 192/192/192
f 151/151/151 192/192/192 152/152/152
f 152/152/152 192/192/192 193/193/193
f 152/152/152 193/193/193 153/153/153
f 153/153/153 193/193/193 194/194/194
f 153/153/153 194/194/194 154/154/154
f 154/154/154 194/194/194 195/195/195
f 154/154/154 195/195/195 155/155/155
f 155/155/155 195/195/195 196/196/196
f 155/155/155 196/196/196 156/156/156
f 156/156/156 196/196/196 197/197/197
f 156/156/156 197/197/197 157/157/157
f 157/157/157 197/197/197 198/198/198
f 157/157/157 198/198/198 158/158/158
f 158/158/158 198/198/198 199/199/199
f 158/158/158 199/199/199 159/159/159
f 159/159/159 199/199/199 200/200/200
f 159/159/159 200/200/200 160/160/160
f 160/160/160 200/200/200 201/201/201
f 160/160/160 201/201/201 161/161/161
f 161/161/161 201/201/201 202/202/202
f 161/161/161 202/202/202 162/162/162
f 162/162/162 202/202/202 203/203/203
f 162/162/162 203/203/203 163/163/163
f 163/163/163 203/203/203 204/204/204
f 163/163/163 204/204/204 164/164/164
f 164/164/164 204/204/204 205/205/205
f 165/165/165 206/206/206 166/166/166
f 166/166/166 206/206/206 207/207/207
f 166/166/166 207/207/207 167/167/167
f 167/167/167 207/207/207 208/208/208
f 167/167/167 208/208/208 168/168/168
f 168/168/168 208/208/208 209/209/209
f 168/168/168 209/209/209 169/169/169
f 169/169/169 209/209/209 210/210/210
f 169/169/169 210/210/210 170/170/170
f 170/170/170 210/210/210 211/211/211
f 170/170/170 211/211/211 171/171/171
f 171/171/171 211/211/211 212/212/212
f 171/171/171 212/212/212 172/172/172
f 172/172/172 212/212/212 213/213/213
f 172/172/172 213/213/213 173/173/173
f 173/173/173 213/213/213 214/214/214
f 173/173/173 214/214/214 174/174/174
f 174/174/174 214/214/214 215/215/215
f 174/174/174 215/215/215 175/175/175
f 175/175/175 215/215/215 216/216/216
f 175/175/175 216/216/216 176/176/176
f 176/176/176 216/216/216 217/217/217
f 176/176/176 217/217/217 177/177/177
f 177/177/177 217/217/217 218/218/218
f 177/177/177 218/218/218 178/178/178
f 178/178/178 218/218/218 219/219/219
f 178/178/178 219/219/219 179/179/179
f 179/179/179 219/219/219 220/220/220
f 179/179/179 220/220/220 180/180/180
f 180/180/180 220/220/220 221/221/221
f 180/180/180 221/221/221 181/181/181
f 181/181/181 221/221/221 222/222/222
f 181/181/181 222/222/222 182/182/182
f 182/182/182 222/222/222 223/223/223
f 182/182/182 223/223/223 183/183/183
f 183/183/183 223/223/223 224/224/224
f 183/183/183 224/224/224 184/184/184
f 184/184/184 224/224/224 225/225/225
f 184/184/184 225/225/225 185/185/185
f 185/185/185 225/225/225 226/226/226
f 185/185/185 226/226/226 186/186/186
f 186/186/186 226/226/226 227/227/227
f 186/186/186 227/227/227 187/187/187
f 187/187/187 227/227/227 228/228/228
f 187/187/187 228/228/228 188/188/188
f 188/188/188 228/228/228 229/229/229
f 188/188/188 229/229/229 189/189/189
f 189/189/189 229/229/229 230/230/230
f 189/189/189 230/230/230 190/190/190
f 190/190/190 230/230/230 231/231/231
f 190/190/190 231/231/231 191/191/191
f 191/191/191 231/231/231 232/232/232
f 191/191/191 232/232/232 192/192/192
f 192/192/192 232/232/232 233/233/233
f 192/192/192 233/233/233 193/193/193
f 193/193/193 233/233/233 234/234/234
f 193/193/193 234/234/234 194/194/194
f 194/194/194 234/234/234 235/235/235
f 194/194/194 235/235/235 195/195/195
f 195/195/195 235/235/235 236/236/236
f 195/195/195 236/236/236 196/196/196
f 196/196/196 236/236/236 237/237/237
f 196/196/196 237/237/237 197/197/197
f 197/197/197 237/237/237 238/238/238
f 197/197/197 238/238/238 198/198/198
f 198/198/198 238/238/238 239/239/239
f 198/198/198 239/239/239 199/199/199
f 199/199/199 239/239/239 240/240/240
f 199/199/199 240/240/240 200/200/200
f 200/200/200 240/240/240 241/241/241
f 200/200/200 241/241/241 201/201/201
f 201/201/201 241/241/241 242/242/242
f 201/201/201 242/242/242 202/202/202
f 202/202/202 242/242/242 243/243/243
f 202/202/202 243/243/243 203/203/203
f 203/203/203 243/243/243 244/244/244
f 203/203/203 244/244/244 204/204/204
f 204/204/204 244/244/244 245/245/245
f 204/204/204 245/245/245 205/205/205
f 205/205/205 245/245/245 246/246/246
f 206/206/206 247/247/247 207/207/207
f 207/207/207 247/247/247 248/248/248
f 207/207/207 248/248/248 208/208/208
f 208/208/208 248/248/248 249/249/249
f 208/208/208 249/249/249 209/209/209
f 209/209/209 249/249/249 250/250/250
f 209/209/209 250/250/250 210/210/210
f 210/210/210 250/250/250 251/251/251
f 210/210/210 251/251/251 211/211/211
f 211/211/211 251/251/251 252/252/252
f 211/211/211 252/252/252 212/212/212
f 212/212/212 252/252/252 253/253/253
f 212/212/212 253/253/253 213/213/213
f 213/213/213 253/253/253 254/254/254
f 213/213/213 254/254/254 214/214/214
f 214/214/214 254/254/254 255/255/255
f 214/214/214 255/255/255 215/215/215
f 215/215/215 255/255/255 256/256/256
f 215/215/215 256/256/256 216/216/216
f 216/216/216 256/256/256 257/257/257
f 216/216/216 257/257/257 217/217/217
f 217/217/217 257/257/257 258/258/258
f 217/217/217 258/258/258 218/218/218
f 218/218/218 258/258/258 259/259/259
f 218/218/218 259/259/259 219/219/219
f 219/219/219 259/259/259 260/260/260
f 219/219/219 260/260/260 220/220/220
f 220/220/220 260/260/260 261/261/261
f 220/220/220 261/261/261 221/221/221
f 221/221/221 261/261/261 262/262/262
f 221/221/221 262/262/262 222/222/222
f 222/222/222 262/262/262 263/263/263
f 222/222/222 263/263/263 223/223/223
f 223/223/223 263/263/263 264/264/264
f 223/223/223 264/264/264 224/224/224
f 224/224/224 264/264/264 265/265/265
f 224/224/224 265/265/265 225/225/225
f 225/225/225 265/265/265 266/266/266
f 225/225/225 266/266/266 226/226/226
f 226/226/226 266/266/266 267/267/267
f 226/226/226 267/267/267 227/227/227
f 227/227/227 267/267/267 268/268/268
f 227/227/227 268/268/268 228/228/228
f 228/228/228 268/268/268 269/269/269
f 228/228/228 269/269/269 229/229/229
f 229/229/229 269/269/269 270/270/270
f 229/229/229 270/270/270 230/230/230
f 230/230/230 270/270/270 271/271/271
f 230/230/230 271/271/271 231/231/231
f 231/231/231 271/271/271 272/272/272
f 231/231/231 272/272/272 232/232/232
f 232/232/232 272/272/272 273/273/273
f 232/232/232 273/273/273 233/233/233
f 233/233/233 273/273/273 274/274/274
f 233/233/233 274/274/274 234/234/234
f 234/234/234 274/274/274 275/275/275
f 234/234/234 275/275/275 235/235/235
f 235/235/235 275/275/275 276/276/276
f 235/235/235 276/276/276 236/236/236
f 236/236/236 276/276/276 277/277/277
f 236/236/236 277/277/277 237/237/237
f 237/237/237 277/277/277 278/278/278
f 237/237/237 278/278/278 238/238/238
f 238/238/238 278/278/278 279/279/279
f 238/238/238 279/279/279 239/239/239
f 239/239/239 279/279/279 280/280/280
f 239/239/239 280/280/280 240/240/240
f 240/240/240 280/280/280 281/281/281
f 240/240/240 281/281/281 241/241/241
f 241/241/241 281/281/281 282/282/282
f 241/241/241 282/282/282 242/242/242
f 242/242/242 282/282/282 283/283/283
f 242/242/242 283/283/283 243/243/243
f 243/243/243 283/283/283 284/284/284
f 243/243/243 284/284/284 244/244/244
f 244/244/244 284/284/284 285/285/285
f 244/244/244 285/285/285 245/245/245
f 245/245/245 285/285/285 286/286/286
f 245/245/245 286/286/286 246/246/246
f 246/246/246 286/286/286 287/287/287
