mtllib torso.mtl
usemtl coat
s 1
v -0.7200000 0.0250000 0.0000000
v -0.7200000 0.0247861 0.0045684
v -0.7200000 0.0241481 0.0090587
v -0.7200000 0.0230970 0.0133939
v -0.7200000 0.0216506 0.0175000
v -0.7200000 0.0198338 0.0213067
v -0.7200000 0.0176777 0.0247487
v -0.7200000 0.0152190 0.0277674
v -0.7200000 0.0125000 0.0303109
v -0.7200000 0.0095671 0.0323358
v -0.7200000 0.0064705 0.0338074
v -0.7200000 0.0032632 0.0347006
v -0.7200000 0.0000000 0.0350000
v -0.7200000 -0.0032632 0.0347006
v -0.7200000 -0.0064705 0.0338074
v -0.7200000 -0.0095671 0.0323358
v -0.7200000 -0.0125000 0.0303109
v -0.7200000 -0.0152190 0.0277674
v -0.7200000 -0.0176777 0.0247487
v -0.7200000 -0.0198338 0.0213067
v -0.7200000 -0.0216506 0.0175000
v -0.7200000 -0.0230970 0.0133939
v -0.7200000 -0.0241481 0.0090587
v -0.7200000 -0.0247861 0.0045684
v -0.7200000 -0.0250000 0.0000000
v -0.7200000 -0.0247861 -0.0045684
v -0.7200000 -0.0241481 -0.0090587
v -0.7200000 -0.0230970 -0.0133939
v -0.7200000 -0.0216506 -0.0175000
v -0.7200000 -0.0198338 -0.0213067
v -0.7200000 -0.0176777 -0.0247487
v -0.7200000 -0.0152190 -0.0277674
v -0.7200000 -0.0125000 -0.0303109
v -0.7200000 -0.0095671 -0.0323358
v -0.7200000 -0.0064705 -0.0338074
v -0.7200000 -0.0032632 -0.0347006
v -0.7200000 -0.0000000 -0.0350000
v -0.7200000 0.0032632 -0.0347006
v -0.7200000 0.0064705 -0.0338074
v -0.7200000 0.0095671 -0.0323358
v -0.7200000 0.0125000 -0.0303109
v -0.7200000 0.0152190 -0.0277674
v -0.7200000 0.0176777 -0.0247487
v -0.7200000 0.0198338 -0.0213067
v -0.7200000 0.0216506 -0.0175000
v -0.7200000 0.0230970 -0.0133939
v -0.7200000 0.0241481 -0.0090587
v -0.7200000 0.0247861 -0.0045684
v -0.7200000 0.0250000 -0.0000000
v -0.6300000 0.1900000 0.0000000
v -0.6300000 0.1883745 0.0326315
v -0.6300000 0.1835259 0.0647048
v -0.6300000 0.1755371 0.0956709
v -0.6300000 0.1645448 0.1250000
v -0.6300000 0.1507371 0.1521904
v -0.6300000 0.1343503 0.1767767
v -0.6300000 0.1156647 0.1983383
v -0.6300000 0.0950000 0.2165064
v -0.6300000 0.0727099 0.2309699
v -0.6300000 0.0491756 0.2414815
v -0.6300000 0.0248000 0.2478612
v -0.6300000 0.0000000 0.2500000
v -0.6300000 -0.0248000 0.2478612
v -0.6300000 -0.0491756 0.2414815
v -0.6300000 -0.0727099 0.2309699
v -0.6300000 -0.0950000 0.2165064
v -0.6300000 -0.1156647 0.1983383
v -0.6300000 -0.1343503 0.1767767
v -0.6300000 -0.1507371 0.1521904
v -0.6300000 -0.1645448 0.1250000
v -0.6300000 -0.1755371 0.0956709
v -0.6300000 -0.1835259 0.0647048
v -0.6300000 -0.1883745 0.0326315
v -0.6300000 -0.1900000 0.0000000
v -0.6300000 -0.1883745 -0.0326315
v -0.6300000 -0.1835259 -0.0647048
v -0.6300000 -0.1755371 -0.0956709
v -0.6300000 -0.1645448 -0.1250000
v -0.6300000 -0.1507371 -0.1521904
v -0.6300000 -0.1343503 -0.1767767
v -0.6300000 -0.1156647 -0.1983383
v -0.6300000 -0.0950000 -0.2165064
v -0.6300000 -0.0727099 -0.2309699
v -0.6300000 -0.0491756 -0.2414815
v -0.6300000 -0.0248000 -0.2478612
v -0.6300000 -0.0000000 -0.2500000
v -0.6300000 0.0248000 -0.2478612
v -0.6300000 0.0491756 -0.2414815
v -0.6300000 0.0727099 -0.2309699
v -0.6300000 0.0950000 -0.2165064
v -0.6300000 0.1156647 -0.1983383
v -0.6300000 0.1343503 -0.1767767
v -0.6300000 0.1507371 -0.1521904
v -0.6300000 0.1645448 -0.1250000
v -0.6300000 0.1755371 -0.0956709
v -0.6300000 0.1835259 -0.0647048
v -0.6300000 0.1883745 -0.0326315
v -0.6300000 0.1900000 -0.0000000
v -0.4500000 0.2700000 0.0000000
v -0.4500000 0.2676901 0.0443789
v -0.4500000 0.2608000 0.0879985
v -0.4500000 0.2494475 0.1301124
v -0.4500000 0.2338269 0.1700000
v -0.4500000 0.2142054 0.2069789
v -0.4500000 0.1909188 0.2404163
v -0.4500000 0.1643656 0.2697401
v -0.4500000 0.1350000 0.2944486
v -0.4500000 0.1033245 0.3141190
v -0.4500000 0.0698811 0.3284148
v -0.4500000 0.0352421 0.3370913
v -0.4500000 0.0000000 0.3400000
v -0.4500000 -0.0352421 0.3370913
v -0.4500000 -0.0698811 0.3284148
v -0.4500000 -0.1033245 0.3141190
v -0.4500000 -0.1350000 0.2944486
v -0.4500000 -0.1643656 0.2697401
v -0.4500000 -0.1909188 0.2404163
v -0.4500000 -0.2142054 0.2069789
v -0.4500000 -0.2338269 0.1700000
v -0.4500000 -0.2494475 0.1301124
v -0.4500000 -0.2608000 0.0879985
v -0.4500000 -0.2676901 0.0443789
v -0.4500000 -0.2700000 0.0000000
v -0.4500000 -0.2676901 -0.0443789
v -0.4500000 -0.2608000 -0.0879985
v -0.4500000 -0.2494475 -0.1301124
v -0.4500000 -0.2338269 -0.1700000
v -0.4500000 -0.2142054 -0.2069789
v -0.4500000 -0.1909188 -0.2404163
v -0.4500000 -0.1643656 -0.2697401
v -0.4500000 -0.1350000 -0.2944486
v -0.4500000 -0.1033245 -0.3141190
v -0.4500000 -0.0698811 -0.3284148
v -0.4500000 -0.0352421 -0.3370913
v -0.4500000 -0.0000000 -0.3400000
v -0.4500000 0.0352421 -0.3370913
v -0.4500000 0.0698811 -0.3284148
v -0.4500000 0.1033245 -0.3141190
v -0.4500000 0.1350000 -0.2944486
v -0.4500000 0.1643656 -0.2697401
v -0.4500000 0.1909188 -0.2404163
v -0.4500000 0.2142054 -0.2069789
v -0.4500000 0.2338269 -0.1700000
v -0.4500000 0.2494475 -0.1301124
v -0.4500000 0.2608000 -0.0879985
v -0.4500000 0.2676901 -0.0443789
v -0.4500000 0.2700000 -0.0000000
v -0.1800000 0.3000000 0.0000000
v -0.1800000 0.2974335 0.0496000
v -0.1800000 0.2897777 0.0983512
v -0.1800000 0.2771639 0.1454197
v -0.1800000 0.2598076 0.1900000
v -0.1800000 0.2380060 0.2313293
v -0.1800000 0.2121320 0.2687006
v -0.1800000 0.1826284 0.3014743
v -0.1800000 0.1500000 0.3290897
v -0.1800000 0.1148050 0.3510742
v -0.1800000 0.0776457 0.3670518
v -0.1800000 0.0391579 0.3767490
v -0.1800000 0.0000000 0.3800000
v -0.1800000 -0.0391579 0.3767490
v -0.1800000 -0.0776457 0.3670518
v -0.1800000 -0.1148050 0.3510742
v -0.1800000 -0.1500000 0.3290897
v -0.1800000 -0.1826284 0.3014743
v -0.1800000 -0.2121320 0.2687006
v -0.1800000 -0.2380060 0.2313293
v -0.1800000 -0.2598076 0.1900000
v -0.1800000 -0.2771639 0.1454197
v -0.1800000 -0.2897777 0.0983512
v -0.1800000 -0.2974335 0.0496000
v -0.1800000 -0.3000000 0.0000000
v -0.1800000 -0.2974335 -0.0496000
v -0.1800000 -0.2897777 -0.0983512
v -0.1800000 -0.2771639 -0.1454197
v -0.1800000 -0.2598076 -0.1900000
v -0.1800000 -0.2380060 -0.2313293
v -0.1800000 -0.2121320 -0.2687006
v -0.1800000 -0.1826284 -0.3014743
v -0.1800000 -0.1500000 -0.3290897
v -0.1800000 -0.1148050 -0.3510742
v -0.1800000 -0.0776457 -0.3670518
v -0.1800000 -0.0391579 -0.3767490
v -0.1800000 -0.0000000 -0.3800000
v -0.1800000 0.0391579 -0.3767490
v -0.1800000 0.0776457 -0.3670518
v -0.1800000 0.1148050 -0.3510742
v -0.1800000 0.1500000 -0.3290897
v -0.1800000 0.1826284 -0.3014743
v -0.1800000 0.2121320 -0.2687006
v -0.1800000 0.2380060 -0.2313293
v -0.1800000 0.2598076 -0.1900000
v -0.1800000 0.2771639 -0.1454197
v -0.1800000 0.2897777 -0.0983512
v -0.1800000 0.2974335 -0.0496000
v -0.1800000 0.3000000 -0.0000000
v 0.1600000 0.2900000 0.0000000
v 0.1600000 0.2875190 0.0482947
v 0.1600000 0.2801185 0.0957630
v 0.1600000 0.2679251 0.1415929
v 0.1600000 0.2511474 0.1850000
v 0.1600000 0.2300725 0.2252417
v 0.1600000 0.2050610 0.2616295
v 0.1600000 0.1765408 0.2935407
v 0.1600000 0.1450000 0.3204294
v 0.1600000 0.1109782 0.3418354
v 0.1600000 0.0750575 0.3573926
v 0.1600000 0.0378526 0.3668346
v 0.1600000 0.0000000 0.3700000
v 0.1600000 -0.0378526 0.3668346
v 0.1600000 -0.0750575 0.3573926
v 0.1600000 -0.1109782 0.3418354
v 0.1600000 -0.1450000 0.3204294
v 0.1600000 -0.1765408 0.2935407
v 0.1600000 -0.2050610 0.2616295
v 0.1600000 -0.2300725 0.2252417
v 0.1600000 -0.2511474 0.1850000
v 0.1600000 -0.2679251 0.1415929
v 0.1600000 -0.2801185 0.0957630
v 0.1600000 -0.2875190 0.0482947
v 0.1600000 -0.2900000 0.0000000
v 0.1600000 -0.2875190 -0.0482947
v 0.1600000 -0.2801185 -0.0957630
v 0.1600000 -0.2679251 -0.1415929
v 0.1600000 -0.2511474 -0.1850000
v 0.1600000 -0.2300725 -0.2252417
v 0.1600000 -0.2050610 -0.2616295
v 0.1600000 -0.1765408 -0.2935407
v 0.1600000 -0.1450000 -0.3204294
v 0.1600000 -0.1109782 -0.3418354
v 0.1600000 -0.0750575 -0.3573926
v 0.1600000 -0.0378526 -0.3668346
v 0.1600000 -0.0000000 -0.3700000
v 0.1600000 0.0378526 -0.3668346
v 0.1600000 0.0750575 -0.3573926
v 0.1600000 0.1109782 -0.3418354
v 0.1600000 0.1450000 -0.3204294
v 0.1600000 0.1765408 -0.2935407
v 0.1600000 0.2050610 -0.2616295
v 0.1600000 0.2300725 -0.2252417
v 0.1600000 0.2511474 -0.1850000
v 0.1600000 0.2679251 -0.1415929
v 0.1600000 0.2801185 -0.0957630
v 0.1600000 0.2875190 -0.0482947
v 0.1600000 0.2900000 -0.0000000
v 0.4300000 0.2500000 0.0000000
v 0.4300000 0.2478612 0.0443789
v 0.4300000 0.2414815 0.0879985
v 0.4300000 0.2309699 0.1301124
v 0.4300000 0.2165064 0.1700000
v 0.4300000 0.1983383 0.2069789
v 0.4300000 0.1767767 0.2404163
v 0.4300000 0.1521904 0.2697401
v 0.4300000 0.1250000 0.2944486
v 0.4300000 0.0956709 0.3141190
v 0.4300000 0.0647048 0.3284148
v 0.4300000 0.0326315 0.3370913
v 0.4300000 0.0000000 0.3400000
v 0.4300000 -0.0326315 0.3370913
v 0.4300000 -0.0647048 0.3284148
v 0.4300000 -0.0956709 0.3141190
v 0.4300000 -0.1250000 0.2944486
v 0.4300000 -0.1521904 0.2697401
v 0.4300000 -0.1767767 0.2404163
v 0.4300000 -0.1983383 0.2069789
v 0.4300000 -0.2165064 0.1700000
v 0.4300000 -0.2309699 0.1301124
v 0.4300000 -0.2414815 0.0879985
v 0.4300000 -0.2478612 0.0443789
v 0.4300000 -0.2500000 0.0000000
v 0.4300000 -0.2478612 -0.0443789
v 0.4300000 -0.2414815 -0.0879985
v 0.4300000 -0.2309699 -0.1301124
v 0.4300000 -0.2165064 -0.1700000
v 0.4300000 -0.1983383 -0.2069789
v 0.4300000 -0.1767767 -0.2404163
v 0.4300000 -0.1521904 -0.2697401
v 0.4300000 -0.1250000 -0.2944486
v 0.4300000 -0.0956709 -0.3141190
v 0.4300000 -0.0647048 -0.3284148
v 0.4300000 -0.0326315 -0.3370913
v 0.4300000 -0.0000000 -0.3400000
v 0.4300000 0.0326315 -0.3370913
v 0.4300000 0.0647048 -0.3284148
v 0.4300000 0.0956709 -0.3141190
v 0.4300000 0.1250000 -0.2944486
v 0.4300000 0.1521904 -0.2697401
v 0.4300000 0.1767767 -0.2404163
v 0.4300000 0.1983383 -0.2069789
v 0.4300000 0.2165064 -0.1700000
v 0.4300000 0.2309699 -0.1301124
v 0.4300000 0.2414815 -0.0879985
v 0.4300000 0.2478612 -0.0443789
v 0.4300000 0.2500000 -0.0000000
v 0.6200000 0.1800000 0.0000000
v 0.6200000 0.1784601 0.0352421
v 0.6200000 0.1738666 0.0698811
v 0.6200000 0.1662983 0.1033245
v 0.6200000 0.1558846 0.1350000
v 0.6200000 0.1428036 0.1643656
v 0.6200000 0.1272792 0.1909188
v 0.6200000 0.1095771 0.2142054
v 0.6200000 0.0900000 0.2338269
v 0.6200000 0.0688830 0.2494475
v 0.6200000 0.0465874 0.2608000
v 0.6200000 0.0234947 0.2676901
v 0.6200000 0.0000000 0.2700000
v 0.6200000 -0.0234947 0.2676901
v 0.6200000 -0.0465874 0.2608000
v 0.6200000 -0.0688830 0.2494475
v 0.6200000 -0.0900000 0.2338269
v 0.6200000 -0.1095771 0.2142054
v 0.6200000 -0.1272792 0.1909188
v 0.6200000 -0.1428036 0.1643656
v 0.6200000 -0.1558846 0.1350000
v 0.6200000 -0.1662983 0.1033245
v 0.6200000 -0.1738666 0.0698811
v 0.6200000 -0.1784601 0.0352421
v 0.6200000 -0.1800000 0.0000000
v 0.6200000 -0.1784601 -0.0352421
v 0.6200000 -0.1738666 -0.0698811
v 0.6200000 -0.1662983 -0.1033245
v 0.6200000 -0.1558846 -0.1350000
v 0.6200000 -0.1428036 -0.1643656
v 0.6200000 -0.1272792 -0.1909188
v 0.6200000 -0.1095771 -0.2142054
v 0.6200000 -0.0900000 -0.2338269
v 0.6200000 -0.0688830 -0.2494475
v 0.6200000 -0.0465874 -0.2608000
v 0.6200000 -0.0234947 -0.2676901
v 0.6200000 -0.0000000 -0.2700000
v 0.6200000 0.0234947 -0.2676901
v 0.6200000 0.0465874 -0.2608000
v 0.6200000 0.0688830 -0.2494475
v 0.6200000 0.0900000 -0.2338269
v 0.6200000 0.1095771 -0.2142054
v 0.6200000 0.1272792 -0.1909188
v 0.6200000 0.1428036 -0.1643656
v 0.6200000 0.1558846 -0.1350000
v 0.6200000 0.1662983 -0.1033245
v 0.6200000 0.1738666 -0.0698811
v 0.6200000 0.1784601 -0.0352421
v 0.6200000 0.1800000 -0.0000000
v 0.7200000 0.0250000 0.0000000
v 0.7200000 0.0247861 0.0052210
v 0.7200000 0.0241481 0.0103528
v 0.7200000 0.0230970 0.0153073
v 0.7200000 0.0216506 0.0200000
v 0.7200000 0.0198338 0.0243505
v 0.7200000 0.0176777 0.0282843
v 0.7200000 0.0152190 0.0317341
v 0.7200000 0.0125000 0.0346410
v 0.7200000 0.0095671 0.0369552
v 0.7200000 0.0064705 0.0386370
v 0.7200000 0.0032632 0.0396578
v 0.7200000 0.0000000 0.0400000
v 0.7200000 -0.0032632 0.0396578
v 0.7200000 -0.0064705 0.0386370
v 0.7200000 -0.0095671 0.0369552
v 0.7200000 -0.0125000 0.0346410
v 0.7200000 -0.0152190 0.0317341
v 0.7200000 -0.0176777 0.0282843
v 0.7200000 -0.0198338 0.0243505
v 0.7200000 -0.0216506 0.0200000
v 0.7200000 -0.0230970 0.0153073
v 0.7200000 -0.0241481 0.0103528
v 0.7200000 -0.0247861 0.0052210
v 0.7200000 -0.0250000 0.0000000
v 0.7200000 -0.0247861 -0.0052210
v 0.7200000 -0.0241481 -0.0103528
v 0.7200000 -0.0230970 -0.0153073
v 0.7200000 -0.0216506 -0.0200000
v 0.7200000 -0.0198338 -0.0243505
v 0.7200000 -0.0176777 -0.0282843
v 0.7200000 -0.0152190 -0.0317341
v 0.7200000 -0.0125000 -0.0346410
v 0.7200000 -0.0095671 -0.0369552
v 0.7200000 -0.0064705 -0.0386370
v 0.7200000 -0.0032632 -0.0396578
v 0.7200000 -0.0000000 -0.0400000
v 0.7200000 0.0032632 -0.0396578
v 0.7200000 0.0064705 -0.0386370
v 0.7200000 0.0095671 -0.0369552
v 0.7200000 0.0125000 -0.0346410
v 0.7200000 0.0152190 -0.0317341
v 0.7200000 0.0176777 -0.0282843
v 0.7200000 0.0198338 -0.0243505
v 0.7200000 0.0216506 -0.0200000
v 0.7200000 0.0230970 -0.0153073
v 0.7200000 0.0241481 -0.0103528
v 0.7200000 0.0247861 -0.0052210
v 0.7200000 0.0250000 -0.0000000
vt 0.0000000 0.0000000
vt 0.0000000 0.0208333
vt 0.0000000 0.0416667
vt 0.0000000 0.0625000
vt 0.0000000 0.0833333
vt 0.0000000 0.1041667
vt 0.0000000 0.1250000
vt 0.0000000 0.1458333
vt 0.0000000 0.1666667
vt 0.0000000 0.1875000
vt 0.0000000 0.2083333
vt 0.0000000 0.2291667
vt 0.0000000 0.2500000
vt 0.0000000 0.2708333
vt 0.0000000 0.2916667
vt 0.0000000 0.3125000
vt 0.0000000 0.3333333
vt 0.0000000 0.3541667
vt 0.0000000 0.3750000
vt 0.0000000 0.3958333
vt 0.0000000 0.4166667
vt 0.0000000 0.4375000
vt 0.0000000 0.4583333
vt 0.0000000 0.4791667
vt 0.0000000 0.5000000
vt 0.0000000 0.5208333
vt 0.0000000 0.5416667
vt 0.0000000 0.5625000
vt 0.0000000 0.5833333
vt 0.0000000 0.6041667
vt 0.0000000 0.6250000
vt 0.0000000 0.6458333
vt 0.0000000 0.6666667
vt 0.0000000 0.6875000
vt 0.0000000 0.7083333
vt 0.0000000 0.7291667
vt 0.0000000 0.7500000
vt 0.0000000 0.7708333
vt 0.0000000 0.7916667
vt 0.0000000 0.8125000
vt 0.0000000 0.8333333
vt 0.0000000 0.8541667
vt 0.0000000 0.8750000
vt 0.0000000 0.8958333
vt 0.0000000 0.9166667
vt 0.0000000 0.9375000
vt 0.0000000 0.9583333
vt 0.0000000 0.9791667
vt 0.0000000 1.0000000
vt 0.1428571 0.0000000
vt 0.1428571 0.0208333
vt 0.1428571 0.0416667
vt 0.1428571 0.0625000
vt 0.1428571 0.0833333
vt 0.1428571 0.1041667
vt 0.1428571 0.1250000
vt 0.1428571 0.1458333
vt 0.1428571 0.1666667
vt 0.1428571 0.1875000
vt 0.1428571 0.2083333
vt 0.1428571 0.2291667
vt 0.1428571 0.2500000
vt 0.1428571 0.2708333
vt 0.1428571 0.2916667
vt 0.1428571 0.3125000
vt 0.1428571 0.3333333
vt 0.1428571 0.3541667
vt 0.1428571 0.3750000
vt 0.1428571 0.3958333
vt 0.1428571 0.4166667
vt 0.1428571 0.4375000
vt 0.1428571 0.4583333
vt 0.1428571 0.4791667
vt 0.1428571 0.5000000
vt 0.1428571 0.5208333
vt 0.1428571 0.5416667
vt 0.1428571 0.5625000
vt 0.1428571 0.5833333
vt 0.1428571 0.6041667
vt 0.1428571 0.6250000
vt 0.1428571 0.6458333
vt 0.1428571 0.6666667
vt 0.1428571 0.6875000
vt 0.1428571 0.7083333
vt 0.1428571 0.7291667
vt 0.1428571 0.7500000
vt 0.1428571 0.7708333
vt 0.1428571 0.7916667
vt 0.1428571 0.8125000
vt 0.1428571 0.8333333
vt 0.1428571 0.8541667
vt 0.1428571 0.8750000
vt 0.1428571 0.8958333
vt 0.1428571 0.9166667
vt 0.1428571 0.9375000
vt 0.1428571 0.9583333
vt 0.1428571 0.9791667
vt 0.1428571 1.0000000
vt 0.2857143 0.0000000
vt 0.2857143 0.0208333
vt 0.2857143 0.0416667
vt 0.2857143 0.0625000
vt 0.2857143 0.0833333
vt 0.2857143 0.1041667
vt 0.2857143 0.1250000
vt 0.2857143 0.1458333
vt 0.2857143 0.1666667
vt 0.2857143 0.1875000
vt 0.2857143 0.2083333
vt 0.2857143 0.2291667
vt 0.2857143 0.2500000
vt 0.2857143 0.2708333
vt 0.2857143 0.2916667
vt 0.2857143 0.3125000
vt 0.2857143 0.3333333
vt 0.2857143 0.3541667
vt 0.2857143 0.3750000
vt 0.2857143 0.3958333
vt 0.2857143 0.4166667
vt 0.2857143 0.4375000
vt 0.2857143 0.4583333
vt 0.2857143 0.4791667
vt 0.2857143 0.5000000
vt 0.2857143 0.5208333
vt 0.2857143 0.5416667
vt 0.2857143 0.5625000
vt 0.2857143 0.5833333
vt 0.2857143 0.6041667
vt 0.2857143 0.6250000
vt 0.2857143 0.6458333
vt 0.2857143 0.6666667
vt 0.2857143 0.6875000
vt 0.2857143 0.7083333
vt 0.2857143 0.7291667
vt 0.2857143 0.7500000
vt 0.2857143 0.7708333
vt 0.2857143 0.7916667
vt 0.2857143 0.8125000
vt 0.2857143 0.8333333
vt 0.2857143 0.8541667
vt 0.2857143 0.8750000
vt 0.2857143 0.8958333
vt 0.2857143 0.9166667
vt 0.2857143 0.9375000
vt 0.2857143 0.9583333
vt 0.2857143 0.9791667
vt 0.2857143 1.0000000
vt 0.4285714 0.0000000
vt 0.4285714 0.0208333
vt 0.4285714 0.0416667
vt 0.4285714 0.0625000
vt 0.4285714 0.0833333
vt 0.4285714 0.1041667
vt 0.4285714 0.1250000
vt 0.4285714 0.1458333
vt 0.4285714 0.1666667
vt 0.4285714 0.1875000
vt 0.4285714 0.2083333
vt 0.4285714 0.2291667
vt 0.4285714 0.2500000
vt 0.4285714 0.2708333
vt 0.4285714 0.2916667
vt 0.4285714 0.3125000
vt 0.4285714 0.3333333
vt 0.4285714 0.3541667
vt 0.4285714 0.3750000
vt 0.4285714 0.3958333
vt 0.4285714 0.4166667
vt 0.4285714 0.4375000
vt 0.4285714 0.4583333
vt 0.4285714 0.4791667
vt 0.4285714 0.5000000
vt 0.4285714 0.5208333
vt 0.4285714 0.5416667
vt 0.4285714 0.5625000
vt 0.4285714 0.5833333
vt 0.4285714 0.6041667
vt 0.4285714 0.6250000
vt 0.4285714 0.6458333
vt 0.4285714 0.6666667
vt 0.4285714 0.6875000
vt 0.4285714 0.7083333
vt 0.4285714 0.7291667
vt 0.4285714 0.7500000
vt 0.4285714 0.7708333
vt 0.4285714 0.7916667
vt 0.4285714 0.8125000
vt 0.4285714 0.8333333
vt 0.4285714 0.8541667
vt 0.4285714 0.8750000
vt 0.4285714 0.8958333
vt 0.4285714 0.9166667
vt 0.4285714 0.9375000
vt 0.4285714 0.9583333
vt 0.4285714 0.9791667
vt 0.4285714 1.0000000
vt 0.5714286 0.0000000
vt 0.5714286 0.0208333
vt 0.5714286 0.0416667
vt 0.5714286 0.0625000
vt 0.5714286 0.0833333
vt 0.5714286 0.1041667
vt 0.5714286 0.1250000
vt 0.5714286 0.1458333
vt 0.5714286 0.1666667
vt 0.5714286 0.1875000
vt 0.5714286 0.2083333
vt 0.5714286 0.2291667
vt 0.5714286 0.2500000
vt 0.5714286 0.2708333
vt 0.5714286 0.2916667
vt 0.5714286 0.3125000
vt 0.5714286 0.3333333
vt 0.5714286 0.3541667
vt 0.5714286 0.3750000
vt 0.5714286 0.3958333
vt 0.5714286 0.4166667
vt 0.5714286 0.4375000
vt 0.5714286 0.4583333
vt 0.5714286 0.4791667
vt 0.5714286 0.5000000
vt 0.5714286 0.5208333
vt 0.5714286 0.5416667
vt 0.5714286 0.5625000
vt 0.5714286 0.5833333
vt 0.5714286 0.6041667
vt 0.5714286 0.6250000
vt 0.5714286 0.6458333
vt 0.5714286 0.6666667
vt 0.5714286 0.6875000
vt 0.5714286 0.7083333
vt 0.5714286 0.7291667
vt 0.5714286 0.7500000
vt 0.5714286 0.7708333
vt 0.5714286 0.7916667
vt 0.5714286 0.8125000
vt 0.5714286 0.8333333
vt 0.5714286 0.8541667
vt 0.5714286 0.8750000
vt 0.5714286 0.8958333
vt 0.5714286 0.9166667
vt 0.5714286 0.9375000
vt 0.5714286 0.9583333
vt 0.5714286 0.9791667
vt 0.5714286 1.0000000
vt 0.7142857 0.0000000
vt 0.7142857 0.0208333
vt 0.7142857 0.0416667
vt 0.7142857 0.0625000
vt 0.7142857 0.0833333
vt 0.7142857 0.1041667
vt 0.7142857 0.1250000
vt 0.7142857 0.1458333
vt 0.7142857 0.1666667
vt 0.7142857 0.1875000
vt 0.7142857 0.2083333
vt 0.7142857 0.2291667
vt 0.7142857 0.2500000
vt 0.7142857 0.2708333
vt 0.7142857 0.2916667
vt 0.7142857 0.3125000
vt 0.7142857 0.3333333
vt 0.7142857 0.3541667
vt 0.7142857 0.3750000
vt 0.7142857 0.3958333
vt 0.7142857 0.4166667
vt 0.7142857 0.4375000
vt 0.7142857 0.4583333
vt 0.7142857 0.4791667
vt 0.7142857 0.5000000
vt 0.7142857 0.5208333
vt 0.7142857 0.5416667
vt 0.7142857 0.5625000
vt 0.7142857 0.5833333
vt 0.7142857 0.6041667
vt 0.7142857 0.6250000
vt 0.7142857 0.6458333
vt 0.7142857 0.6666667
vt 0.7142857 0.6875000
vt 0.7142857 0.7083333
vt 0.7142857 0.7291667
vt 0.7142857 0.7500000
vt 0.7142857 0.7708333
vt 0.7142857 0.7916667
vt 0.7142857 0.8125000
vt 0.7142857 0.8333333
vt 0.7142857 0.8541667
vt 0.7142857 0.8750000
vt 0.7142857 0.8958333
vt 0.7142857 0.9166667
vt 0.7142857 0.9375000
vt 0.7142857 0.9583333
vt 0.7142857 0.9791667
vt 0.7142857 1.0000000
vt 0.8571429 0.0000000
vt 0.8571429 0.0208333
vt 0.8571429 0.0416667
vt 0.8571429 0.0625000
vt 0.8571429 0.0833333
vt 0.8571429 0.1041667
vt 0.8571429 0.1250000
vt 0.8571429 0.1458333
vt 0.8571429 0.1666667
vt 0.8571429 0.1875000
vt 0.8571429 0.2083333
vt 0.8571429 0.2291667
vt 0.8571429 0.2500000
vt 0.8571429 0.2708333
vt 0.8571429 0.2916667
vt 0.8571429 0.3125000
vt 0.8571429 0.3333333
vt 0.8571429 0.3541667
vt 0.8571429 0.3750000
vt 0.8571429 0.3958333
vt 0.8571429 0.4166667
vt 0.8571429 0.4375000
vt 0.8571429 0.4583333
vt 0.8571429 0.4791667
vt 0.8571429 0.5000000
vt 0.8571429 0.5208333
vt 0.8571429 0.5416667
vt 0.8571429 0.5625000
vt 0.8571429 0.5833333
vt 0.8571429 0.6041667
vt 0.8571429 0.6250000
vt 0.8571429 0.6458333
vt 0.8571429 0.6666667
vt 0.8571429 0.6875000
vt 0.8571429 0.7083333
vt 0.8571429 0.7291667
vt 0.8571429 0.7500000
vt 0.8571429 0.7708333
vt 0.8571429 0.7916667
vt 0.8571429 0.8125000
vt 0.8571429 0.8333333
vt 0.8571429 0.8541667
vt 0.8571429 0.8750000
vt 0.8571429 0.8958333
vt 0.8571429 0.9166667
vt 0.8571429 0.9375000
vt 0.8571429 0.9583333
vt 0.8571429 0.9791667
vt 0.8571429 1.0000000
vt 1.0000000 0.0000000
vt 1.0000000 0.0208333
vt 1.0000000 0.0416667
vt 1.0000000 0.0625000
vt 1.0000000 0.0833333
vt 1.0000000 0.1041667
vt 1.0000000 0.1250000
vt 1.0000000 0.1458333
vt 1.0000000 0.1666667
vt 1.0000000 0.1875000
vt 1.0000000 0.2083333
vt 1.0000000 0.2291667
vt 1.0000000 0.2500000
vt 1.0000000 0.2708333
vt 1.0000000 0.2916667
vt 1.0000000 0.3125000
vt 1.0000000 0.3333333
vt 1.0000000 0.3541667
vt 1.0000000 0.3750000
vt 1.0000000 0.3958333
vt 1.0000000 0.4166667
vt 1.0000000 0.4375000
vt 1.0000000 0.4583333
vt 1.0000000 0.4791667
vt 1.0000000 0.5000000
vt 1.0000000 0.5208333
vt 1.0000000 0.5416667
vt 1.0000000 0.5625000
vt 1.0000000 0.5833333
vt 1.0000000 0.6041667
vt 1.0000000 0.6250000
vt 1.0000000 0.6458333
vt 1.0000000 0.6666667
vt 1.0000000 0.6875000
vt 1.0000000 0.7083333
vt 1.0000000 0.7291667
vt 1.0000000 0.7500000
vt 1.0000000 0.7708333
vt 1.0000000 0.7916667
vt 1.0000000 0.8125000
vt 1.0000000 0.8333333
vt 1.0000000 0.8541667
vt 1.0000000 0.8750000
vt 1.0000000 0.8958333
vt 1.0000000 0.9166667
vt 1.0000000 0.9375000
vt 1.0000000 0.9583333
vt 1.0000000 0.9791667
vt 1.0000000 1.0000000
vn 0.8776750 -0.4787318 -0.0224127
vn 0.8778659 -0.4780632 -0.0284076
vn 0.8793413 -0.4702222 -0.0751661
vn 0.8820890 -0.4552408 -0.1211395
vn 0.8859770 -0.4330854 -0.1657764
vn 0.8908047 -0.4037501 -0.2084533
vn 0.8963016 -0.3673024 -0.2484601
vn 0.9021295 -0.3239404 -0.2850001
vn 0.9078945 -0.2740549 -0.3172089
vn 0.9131703 -0.2182859 -0.3441965
vn 0.9175343 -0.1575598 -0.3651105
vn 0.9206129 -0.0930932 -0.3792170
vn 0.9221297 -0.0263527 -0.3859822
vn 0.9219452 0.0410308 -0.3851410
vn 0.9200776 0.1073792 -0.3767318
vn 0.9167004 0.1710947 -0.3610915
vn 0.9121149 0.2307700 -0.3388092
vn 0.9067083 0.2852624 -0.3106530
vn 0.9009057 0.3337212 -0.2774871
vn 0.8951262 0.3755737 -0.2401945
vn 0.8897510 0.4104816 -0.1996197
vn 0.8851027 0.4382815 -0.1565330
vn 0.8814366 0.4589238 -0.1116173
vn 0.8789392 0.4724186 -0.0654725
vn 0.8777301 0.4787929 -0.0186329
vn 0.8778659 0.4780632 0.0284076
vn 0.8793413 0.4702222 0.0751661
vn 0.8820890 0.4552408 0.1211395
vn 0.8859770 0.4330854 0.1657764
vn 0.8908047 0.4037501 0.2084533
vn 0.8963016 0.3673024 0.2484601
vn 0.9021295 0.3239404 0.2850001
vn 0.9078945 0.2740549 0.3172089
vn 0.9131703 0.2182859 0.3441965
vn 0.9175343 0.1575598 0.3651105
vn 0.9206129 0.0930932 0.3792170
vn 0.9221297 0.0263527 0.3859822
vn 0.9219452 -0.0410308 0.3851410
vn 0.9200776 -0.1073792 0.3767318
vn 0.9167004 -0.1710947 0.3610915
vn 0.9121149 -0.2307700 0.3388092
vn 0.9067083 -0.2852624 0.3106530
vn 0.9009057 -0.3337212 0.2774871
vn 0.8951262 -0.3755737 0.2401945
vn 0.8897510 -0.4104816 0.1996197
vn 0.8851027 -0.4382815 0.1565330
vn 0.8814366 -0.4589238 0.1116173
vn 0.8789392 -0.4724186 0.0654725
vn 0.8776349 -0.4787448 0.0236716
vn 0.6877850 -0.7250203 -0.0360186
vn 0.6155817 -0.7851826 -0.0674352
vn 0.6181153 -0.7722654 -0.1467638
vn 0.6224324 -0.7494130 -0.2257389
vn 0.6284437 -0.7160130 -0.3039471
vn 0.6359824 -0.6712725 -0.3806831
vn 0.6447657 -0.6143288 -0.4548377
vn 0.6543543 -0.5444306 -0.5248007
vn 0.6641243 -0.4612009 -0.5884155
vn 0.6732744 -0.3649659 -0.6430408
vn 0.6808931 -0.2570858 -0.6857781
vn 0.6860947 -0.1401631 -0.7138826
vn 0.6882050 -0.0179837 -0.7252934
vn 0.6869317 0.1048878 -0.7191129
vn 0.6824474 0.2237791 -0.6958365
vn 0.6753411 0.3346209 -0.6572239
vn 0.6664644 0.4344453 -0.6058733
vn 0.6567426 0.5215420 -0.5446862
vn 0.6470196 0.5953148 -0.4764094
vn 0.6379719 0.6559708 -0.4033537
vn 0.6300871 0.7041824 -0.3272879
vn 0.6236849 0.7408016 -0.2494598
vn 0.6189559 0.7666558 -0.1706822
vn 0.6160030 0.7824183 -0.0914433
vn 0.6148737 0.7885341 -0.0120166
vn 0.6155817 0.7851826 0.0674352
vn 0.6181153 0.7722654 0.1467638
vn 0.6224324 0.7494130 0.2257389
vn 0.6284437 0.7160130 0.3039471
vn 0.6359824 0.6712725 0.3806831
vn 0.6447657 0.6143288 0.4548377
vn 0.6543543 0.5444306 0.5248007
vn 0.6641243 0.4612009 0.5884155
vn 0.6732744 0.3649659 0.6430408
vn 0.6808931 0.2570858 0.6857781
vn 0.6860947 0.1401631 0.7138826
vn 0.6882050 0.0179837 0.7252934
vn 0.6869317 -0.1048878 0.7191129
vn 0.6824474 -0.2237791 0.6958365
vn 0.6753411 -0.3346209 0.6572239
vn 0.6664644 -0.4344453 0.6058733
vn 0.6567426 -0.5215420 0.5446862
vn 0.6470196 -0.5953148 0.4764094
vn 0.6379719 -0.6559708 0.4033537
vn 0.6300871 -0.7041824 0.3272879
vn 0.6236849 -0.7408016 0.2494598
vn 0.6189559 -0.7666558 0.1706822
vn 0.6160030 -0.7824183 0.0914433
vn 0.5657878 -0.8234858 0.0418960
vn 0.2779835 -0.9593125 -0.0494439
vn 0.2281101 -0.9690781 -0.0940925
vn 0.2292271 -0.9536596 -0.1949057
vn 0.2312715 -0.9268090 -0.2958692
vn 0.2342294 -0.8875424 -0.3967430
vn 0.2380526 -0.8345381 -0.4968673
vn 0.2426324 -0.7662550 -0.5949646
vn 0.2477696 -0.6811643 -0.6889306
vn 0.2531459 -0.5781417 -0.7756735
vn 0.2583146 -0.4570289 -0.8511158
vn 0.2627300 -0.3192777 -0.9105134
vn 0.2658325 -0.1684389 -0.9491899
vn 0.2671797 -0.0101559 -0.9635932
vn 0.2665761 0.1485584 -0.9522960
vn 0.2641341 0.3006115 -0.9164420
vn 0.2602325 0.4401557 -0.8593847
vn 0.2553968 0.5633902 -0.7857251
vn 0.2501666 0.6686418 -0.7002391
vn 0.2450022 0.7559146 -0.6070972
vn 0.2402454 0.8262498 -0.5095031
vn 0.2361232 0.8811480 -0.4096633
vn 0.2327714 0.9221582 -0.3089365
vn 0.2302643 0.9506300 -0.2080409
vn 0.2286397 0.9675848 -0.1072544
vn 0.2279174 0.9736582 -0.0065843
vn 0.2281101 0.9690781 0.0940925
vn 0.2292271 0.9536596 0.1949057
vn 0.2312715 0.9268090 0.2958692
vn 0.2342294 0.8875424 0.3967430
vn 0.2380526 0.8345381 0.4968673
vn 0.2426324 0.7662550 0.5949646
vn 0.2477696 0.6811643 0.6889306
vn 0.2531459 0.5781417 0.7756735
vn 0.2583146 0.4570289 0.8511158
vn 0.2627300 0.3192777 0.9105134
vn 0.2658325 0.1684389 0.9491899
vn 0.2671797 0.0101559 0.9635932
vn 0.2665761 -0.1485584 0.9522960
vn 0.2641341 -0.3006115 0.9164420
vn 0.2602325 -0.4401557 0.8593847
vn 0.2553968 -0.5633902 0.7857251
vn 0.2501666 -0.6686418 0.7002391
vn 0.2450022 -0.7559146 0.6070972
vn 0.2402454 -0.8262498 0.5095031
vn 0.2361232 -0.8811480 0.4096633
vn 0.2327714 -0.9221582 0.3089365
vn 0.2302643 -0.9506300 0.2080409
vn 0.2286397 -0.9675848 0.1072544
vn 0.1873114 -0.9809789 0.0509393
vn 0.0548655 -0.9971552 -0.0516837
vn 0.0320513 -0.9943908 -0.1007952
vn 0.0326566 -0.9783730 -0.2042541
vn 0.0336592 -0.9507958 -0.3079846
vn 0.0350328 -0.9106001 -0.4118012
vn 0.0367344 -0.8563561 -0.5150774
vn 0.0386967 -0.7863796 -0.6165304
vn 0.0408207 -0.6989704 -0.7139847
vn 0.0429692 -0.5928294 -0.8041810
vn 0.0449666 -0.4676730 -0.8827570
vn 0.0466118 -0.3249545 -0.9445803
vn 0.0477082 -0.1684248 -0.9845593
vn 0.0481076 -0.0041412 -0.9988336
vn 0.0477527 0.1603442 -0.9859054
vn 0.0466948 0.3174375 -0.9471288
vn 0.0450776 0.4609758 -0.8862671
vn 0.0430962 0.5870813 -0.8083800
vn 0.0409523 0.6941921 -0.7186239
vn 0.0388233 0.7825198 -0.6214141
vn 0.0368486 0.8533282 -0.5200703
vn 0.0351292 0.9083097 -0.4168206
vn 0.0337341 0.9491575 -0.3129888
vn 0.0327078 0.9773193 -0.2092298
vn 0.0320772 0.9938755 -0.1057472
vn 0.0318569 0.9994894 -0.0024715
vn 0.0320513 0.9943908 0.1007952
vn 0.0326566 0.9783730 0.2042541
vn 0.0336592 0.9507958 0.3079846
vn 0.0350328 0.9106001 0.4118012
vn 0.0367344 0.8563561 0.5150774
vn 0.0386967 0.7863796 0.6165304
vn 0.0408207 0.6989704 0.7139847
vn 0.0429692 0.5928294 0.8041810
vn 0.0449666 0.4676730 0.8827570
vn 0.0466118 0.3249545 0.9445803
vn 0.0477082 0.1684248 0.9845593
vn 0.0481076 0.0041412 0.9988336
vn 0.0477527 -0.1603442 0.9859054
vn 0.0466948 -0.3174375 0.9471288
vn 0.0450776 -0.4609758 0.8862671
vn 0.0430962 -0.5870813 0.8083800
vn 0.0409523 -0.6941921 0.7186239
vn 0.0388233 -0.7825198 0.6214141
vn 0.0368486 -0.8533282 0.5200703
vn 0.0351292 -0.9083097 0.4168206
vn 0.0337341 -0.9491575 0.3129888
vn 0.0327078 -0.9773193 0.2092298
vn 0.0320772 -0.9938755 0.1057472
vn 0.0109100 -0.9986112 0.0515420
vn -0.0626091 -0.9967168 -0.0513386
vn -0.0805142 -0.9912136 -0.1049430
vn -0.0799814 -0.9751037 -0.2068229
vn -0.0789819 -0.9477226 -0.3091662
vn -0.0775672 -0.9079315 -0.4118783
vn -0.0758132 -0.8541854 -0.5144120
vn -0.0738193 -0.7846433 -0.6155369
vn -0.0717067 -0.6974094 -0.7130767
vn -0.0696147 -0.5909728 -0.8036821
vn -0.0676936 -0.4648783 -0.8827829
vn -0.0660946 -0.3205354 -0.9449278
vn -0.0649542 -0.1618658 -0.9846727
vn -0.0643773 0.0046746 -0.9979147
vn -0.0644197 0.1710173 -0.9831598
vn -0.0650785 0.3291322 -0.9420386
vn -0.0662917 0.4726604 -0.8787477
vn -0.0679491 0.5977960 -0.7987633
vn -0.0699098 0.7032282 -0.7075187
vn -0.0720202 0.7894776 -0.6095393
vn -0.0741291 0.8580880 -0.5081238
vn -0.0760985 0.9109646 -0.4054041
vn -0.0778095 0.9499437 -0.3025767
vn -0.0791662 0.9765585 -0.2001654
vn -0.0800965 0.9919332 -0.0982500
vn -0.0805533 0.9967447 0.0033520
vn -0.0805142 0.9912136 0.1049430
vn -0.0799814 0.9751037 0.2068229
vn -0.0789819 0.9477226 0.3091662
vn -0.0775672 0.9079315 0.4118783
vn -0.0758132 0.8541854 0.5144120
vn -0.0738193 0.7846433 0.6155369
vn -0.0717067 0.6974094 0.7130767
vn -0.0696147 0.5909728 0.8036821
vn -0.0676936 0.4648783 0.8827829
vn -0.0660946 0.3205354 0.9449278
vn -0.0649542 0.1618658 0.9846727
vn -0.0643773 -0.0046746 0.9979147
vn -0.0644197 -0.1710173 0.9831598
vn -0.0650785 -0.3291322 0.9420386
vn -0.0662917 -0.4726604 0.8787477
vn -0.0679491 -0.5977960 0.7987633
vn -0.0699098 -0.7032282 0.7075187
vn -0.0720202 -0.7894776 0.6095393
vn -0.0741291 -0.8580880 0.5081238
vn -0.0760985 -0.9109646 0.4054041
vn -0.0778095 -0.9499437 0.3025767
vn -0.0791662 -0.9765585 0.2001654
vn -0.0800965 -0.9919332 0.0982500
vn -0.1003014 -0.9936932 0.0501348
vn -0.1991454 -0.9787748 -0.0483833
vn -0.2271347 -0.9686886 -0.1002610
vn -0.2259805 -0.9544004 -0.1950710
vn -0.2240967 -0.9301067 -0.2910020
vn -0.2216163 -0.8944830 -0.3883123
vn -0.2187195 -0.8456747 -0.4868225
vn -0.2156227 -0.7813608 -0.5856468
vn -0.2125613 -0.6989594 -0.6828422
vn -0.2097636 -0.5960892 -0.7750335
vn -0.2074204 -0.4713923 -0.8571850
vn -0.2056597 -0.3256753 -0.9228433
vn -0.2045428 -0.1629896 -0.9651925
vn -0.2040880 0.0091043 -0.9789102
vn -0.2043073 0.1807402 -0.9620767
vn -0.2052201 0.3421600 -0.9169576
vn -0.2068295 0.4860679 -0.8490934
vn -0.2090828 0.6087098 -0.7653475
vn -0.2118496 0.7095112 -0.6720964
vn -0.2149310 0.7899653 -0.5742469
vn -0.2180888 0.8525069 -0.4750466
vn -0.2210782 0.8997196 -0.3763363
vn -0.2236744 0.9338995 -0.2789292
vn -0.2256904 0.9568650 -0.1829570
vn -0.2269871 0.9699018 -0.0881323
vn -0.2274787 0.9737642 0.0060660
vn -0.2271347 0.9686886 0.1002610
vn -0.2259805 0.9544004 0.1950710
vn -0.2240967 0.9301067 0.2910020
vn -0.2216163 0.8944830 0.3883123
vn -0.2187195 0.8456747 0.4868225
vn -0.2156227 0.7813608 0.5856468
vn -0.2125613 0.6989594 0.6828422
vn -0.2097636 0.5960892 0.7750335
vn -0.2074204 0.4713923 0.8571850
vn -0.2056597 0.3256753 0.9228433
vn -0.2045428 0.1629896 0.9651925
vn -0.2040880 -0.0091043 0.9789102
vn -0.2043073 -0.1807402 0.9620767
vn -0.2052201 -0.3421600 0.9169576
vn -0.2068295 -0.4860679 0.8490934
vn -0.2090828 -0.6087098 0.7653475
vn -0.2118496 -0.7095112 0.6720964
vn -0.2149310 -0.7899653 0.5742469
vn -0.2180888 -0.8525069 0.4750466
vn -0.2210782 -0.8997196 0.3763363
vn -0.2236744 -0.9338995 0.2789292
vn -0.2256904 -0.9568650 0.1829570
vn -0.2269871 -0.9699018 0.0881323
vn -0.2611201 -0.9642382 0.0453990
vn -0.5085819 -0.8601148 -0.0393322
vn -0.5589306 -0.8248000 -0.0854495
vn -0.5616380 -0.8116665 -0.1604997
vn -0.5661967 -0.7896653 -0.2363259
vn -0.5726849 -0.7576604 -0.3130219
vn -0.5811336 -0.7140994 -0.3903150
vn -0.5914434 -0.6570919 -0.4673595
vn -0.6032733 -0.5846139 -0.5424831
vn -0.6159179 -0.4949256 -0.6129387
vn -0.6282274 -0.3872598 -0.6748038
vn -0.6386639 -0.2627087 -0.7232514
vn -0.6455821 -0.1249730 -0.7533960
vn -0.6477181 0.0195929 -0.7616281
vn -0.6446685 0.1630393 -0.7468739
vn -0.6370572 0.2976903 -0.7110124
vn -0.6262684 0.4178661 -0.6581609
vn -0.6139394 0.5206311 -0.5933141
vn -0.6015144 0.6054970 -0.5211083
vn -0.5900260 0.6735841 -0.4451447
vn -0.5800824 0.7267683 -0.3678481
vn -0.5719630 0.7670677 -0.2906293
vn -0.5657391 0.7962920 -0.2141455
vn -0.5613776 0.8158803 -0.1385445
vn -0.5588146 0.8268459 -0.0636562
vn -0.5580019 0.8297685 0.0108675
vn -0.5589306 0.8248000 0.0854495
vn -0.5616380 0.8116665 0.1604997
vn -0.5661967 0.7896653 0.2363259
vn -0.5726849 0.7576604 0.3130219
vn -0.5811336 0.7140994 0.3903150
vn -0.5914434 0.6570919 0.4673595
vn -0.6032733 0.5846139 0.5424831
vn -0.6159179 0.4949256 0.6129387
vn -0.6282274 0.3872598 0.6748038
vn -0.6386639 0.2627087 0.7232514
vn -0.6455821 0.1249730 0.7533960
vn -0.6477181 -0.0195929 0.7616281
vn -0.6446685 -0.1630393 0.7468739
vn -0.6370572 -0.2976903 0.7110124
vn -0.6262684 -0.4178661 0.6581609
vn -0.6139394 -0.5206311 0.5933141
vn -0.6015144 -0.6054970 0.5211083
vn -0.5900260 -0.6735841 0.4451447
vn -0.5800824 -0.7267683 0.3678481
vn -0.5719630 -0.7670677 0.2906293
vn -0.5657391 -0.7962920 0.2141455
vn -0.5613776 -0.8158803 0.1385445
vn -0.5588146 -0.8268459 0.0636562
vn -0.6306720 -0.7753142 0.0337749
vn -0.8400450 -0.5420079 -0.0234924
vn -0.8420915 -0.5354275 -0.0648018
vn -0.8461575 -0.5212750 -0.1108597
vn -0.8521806 -0.4994368 -0.1560487
vn -0.8599060 -0.4696951 -0.1998702
vn -0.8689637 -0.4318437 -0.2416879
vn -0.8788543 -0.3857723 -0.2807042
vn -0.8889477 -0.3315748 -0.3159589
vn -0.8985048 -0.2696700 -0.3463628
vn -0.9067312 -0.2009110 -0.3707738
vn -0.9128662 -0.1266509 -0.3881170
vn -0.9162935 -0.0487258 -0.3975323
vn -0.9166494 0.0306626 -0.3985142
vn -0.9138934 0.1091558 -0.3910036
vn -0.9083168 0.1844884 -0.3753993
vn -0.9004861 0.2547132 -0.3524853
vn -0.8911413 0.3183466 -0.3232995
vn -0.8810816 0.3744105 -0.2889842
vn -0.8710695 0.4223855 -0.2506561
vn -0.8617666 0.4621087 -0.2093175
vn -0.8537051 0.4936535 -0.1658124
vn -0.8472840 0.5172160 -0.1208201
vn -0.8427812 0.5330233 -0.0748736
vn -0.8403709 0.5412676 -0.0283934
vn -0.8401388 0.5420635 0.0182719
vn -0.8420915 0.5354275 0.0648018
vn -0.8461575 0.5212750 0.1108597
vn -0.8521806 0.4994368 0.1560487
vn -0.8599060 0.4696951 0.1998702
vn -0.8689637 0.4318437 0.2416879
vn -0.8788543 0.3857723 0.2807042
vn -0.8889477 0.3315748 0.3159589
vn -0.8985048 0.2696700 0.3463628
vn -0.9067312 0.2009110 0.3707738
vn -0.9128662 0.1266509 0.3881170
vn -0.9162935 0.0487258 0.3975323
vn -0.9166494 -0.0306626 0.3985142
vn -0.9138934 -0.1091558 0.3910036
vn -0.9083168 -0.1844884 0.3753993
vn -0.9004861 -0.2547132 0.3524853
vn -0.8911413 -0.3183466 0.3232995
vn -0.8810816 -0.3744105 0.2889842
vn -0.8710695 -0.4223855 0.2506561
vn -0.8617666 -0.4621087 0.2093175
vn -0.8537051 -0.4936535 0.1658124
vn -0.8472840 -0.5172160 0.1208201
vn -0.8427812 -0.5330233 0.0748736
vn -0.8403709 -0.5412676 0.0283934
vn -0.8400895 -0.5419932 0.0222026
f 1/1/1 50/50/50 2/2/2
f 2/2/2 50/50/50 51/51/51
f 2/2/2 51/51/51 3/3/3
f 3/3/3 51/51/51 52/52/52
f 3/3/3 52/52/52 4/4/4
f 4/4/4 52/52/52 53/53/53
f 4/4/4 53/53/53 5/5/5
f 5/5/5 53/53/53 54/54/54
f 5/5/5 54/54/54 6/6/6
f 6/6/6 54/54/54 55/55/55
f 6/6/6 55/55/55 7/7/7
f 7/7/7 55/55/55 56/56/56
f 7/7/7 56/56/56 8/8/8
f 8/8/8 56/56/56 57/57/57
f 8/8/8 57/57/57 9/9/9
f 9/9/9 57/57/57 58/58/58
f 9/9/9 58/58/58 10/10/10
f 10/10/10 58/58/58 59/59/59
f 10/10/10 59/59/59 11/11/11
f 11/11/11 59/59/59 60/60/60
f 11/11/11 60/60/60 12/12/12
f 12/12/12 60/60/60 61/61/61
f 12/12/12 61/61/61 13/13/13
f 13/13/13 61/61/61 62/62/62
f 13/13/13 62/62/62 14/14/14
f 14/14/14 62/62/62 63/63/63
f 14/14/14 63/63/63 15/15/15
f 15/15/15 63/63/63 64/64/64
f 15/15/15 64/64/64 16/16/16
f 16/16/16 64/64/64 65/65/65
f 16/16/16 65/65/65 17/17/17
f 17/17/17 65/65/65 66/66/66
f 17/17/17 66/66/66 18/18/18
f 18/18/18 66/66/66 67/67/67
f 18/18/18 67/67/67 19/19/19
f 19/19/19 67/67/67 68/68/68
f 19/19/19 68/68/68 20/20/20
f 20/20/20 68/68/68 69/69/69
f 20/20/20 69/69/69 21/21/21
f 21/21/21 69/69/69 70/70/70
f 21/21/21 70/70/70 22/22/22
f 22/22/22 70/70/70 71/71/71
f 22/22/22 71/71/71 23/23/23
f 23/23/23 71/71/71 72/72/72
f 23/23/23 72/72/72 24/24/24
f 24/24/24 72/72/72 73/73/73
f 24/24/24 73/73/73 25/25/25
f 25/25/25 73/73/73 74/74/74
f 25/25/25 74/74/74 26/26/26
f 26/26/26 74/74/74 75/75/75
f 26/26/26 75/75/75 27/27/27
f 27/27/27 75/75/75 76/76/76
f 27/27/27 76/76/76 28/28/28
f 28/28/28 76/76/76 77/77/77
f 28/28/28 77/77/77 29/29/29
f 29/29/29 77/77/77 78/78/78
f 29/29/29 78/78/78 30/30/30
f 30/30/30 78/78/78 79/79/79
f 30/30/30 79/79/79 31/31/31
f 31/31/31 79/79/79 80/80/80
f 31/31/31 80/80/80 32/32/32
f 32/32/32 80/80/80 81/81/81
f 32/32/32 81/81/81 33/33/33
f 33/33/33 81/81/81 82/82/82
f 33/33/33 82/82/82 34/34/34
f 34/34/34 82/82/82 83/83/83
f 34/34/34 83/83/83 35/35/35
f 35/35/35 83/83/83 84/84/84
f 35/35/35 84/84/84 36/36/36
f 36/36/36 84/84/84 85/85/85
f 36/36/36 85/85/85 37/37/37
f 37/37/37 85/85/85 86/86/86
f 37/37/37 86/86/86 38/38/38
f 38/38/38 86/86/86 87/87/87
f 38/38/38 87/87/87 39/39/39
f 39/39/39 87/87/87 88/88/88
f 39/39/39 88/88/88 40/40/40
f 40/40/40 88/88/88 89/89/89
f 40/40/40 89/89/89 41/41/41
f 41/41/41 89/89/89 90/90/90
f 41/41/41 90/90/90 42/42/42
f 42/42/42 90/90/90 91/91/91
f 42/42/42 91/91/91 43/43/43
f 43/43/43 91/91/91 92/92/92
f 43/43/43 92/92/92 44/44/44
f 44/44/44 92/92/92 93/93/93
f 44/44/44 93/93/93 45/45/45
f 45/45/45 93/93/93 94/94/94
f 45/45/45 94/94/94 46/46/46
f 46/46/46 94/94/94 95/95/95
f 46/46/46 95/95/95 47/47/47
f 47/47/47 95/95/95 96/96/96
f 47/47/47 96/96/96 48/48/48
f 48/48/48 96/96/96 97/97/97
f 48/48/48 97/97/97 49/49/49
f 49/49/49 97/97/97 98/98/98
f 50/50/50 99/99/99 51/51/51
f 51/51/51 99/99/99 100/100/100
f 51/51/51 100/100/100 52/52/52
f 52/52/52 100/100/100 101/101/101
f 52/52/52 101/101/101 53/53/53
f 53/53/53 101/101/101 102/102/102
f 53/53/53 102/102/102 54/54/54
f 54/54/54 102/102/102 103/103/103
f 54/54/54 103/103/103 55/55/55
f 55/55/55 103/103/103 104/104/104
f 55/55/55 104/104/104 56/56/56
f 56/56/56 104/104/104 105/105/105
f 56/56/56 105/105/105 57/57/57
f 57/57/57 105/105/105 106/106/106
f 57/57/57 106/106/106 58/58/58
f 58/58/58 106/106/106 107/107/107
f 58/58/58 107/107/107 59/59/59
f 59/59/59 107/107/107 108/108/108
f 59/59/59 108/108/108 60/60/60
f 60/60/60 108/108/108 109/109/109
f 60/60/60 109/109/109 61/61/61
f 61/61/61 109/109/109 110/110/110
f 61/61/61 110/110/110 62/62/62
f 62/62/62 110/110/110 111/111/111
f 62/62/62 111/111/111 63/63/63
f 63/63/63 111/111/111 112/112/112
f 63/63/63 112/112/112 64/64/64
f 64/64/64 112/112/112 113/113/113
f 64/64/64 113/113/113 65/65/65
f 65/65/65 113/113/113 114/114/114
f 65/65/65 114/114/114 66/66/66
f 66/66/66 114/114/114 115/115/115
f 66/66/66 115/115/115 67/67/67
f 67/67/67 115/115/115 116/116/116
f 67/67/67 116/116/116 68/68/68
f 68/68/68 116/116/116 117/117/117
f 68/68/68 117/117/117 69/69/69
f 69/69/69 117/117/117 118/118/118
f 69/69/69 118/118/118 70/70/70
f 70/70/70 118/118/118 119/119/119
f 70/70/70 119/119/119 71/71/71
f 71/71/71 119/119/119 120/120/120
f 71/71/71 120/120/120 72/72/72
f 72/72/72 120/120/120 121/121/121
f 72/72/72 121/121/121 73/73/73
f 73/73/73 121/121/121 122/122/122
f 73/73/73 122/122/122 74/74/74
f 74/74/74 122/122/122 123/123/123
f 74/74/74 123/123/123 75/75/75
f 75/75/75 123/123/123 124/124/124
f 75/75/75 124/124/124 76/76/76
f 76/76/76 124/124/124 125/125/125
f 76/76/76 125/125/125 77/77/77
f 77/77/77 125/125/125 126/126/126
f 77/77/77 126/126/126 78/78/78
f 78/78/78 126/126/126 127/127/127
f 78/78/78 127/127/127 79/79/79
f 79/79/79 127/127/127 128/128/128
f 79/79/79 128/128/128 80/80/80
f 80/80/80 128/128/128 129/129/129
f 80/80/80 129/129/129 81/81/81
f 81/81/81 129/129/129 130/130/130
f 81/81/81 130/130/130 82/82/82
f 82/82/82 130/130/130 131/131/131
f 82/82/82 131/131/131 83/83/83
f 83/83/83 131/131/131 132/132/132
f 83/83/83 132/132/132 84/84/84
f 84/84/84 132/132/132 133/133/133
f 84/84/84 133/133/133 85/85/85
f 85/85/85 133/133/133 134/134/134
f 85/85/85 134/134/134 86/86/86
f 86/86/86 134/134/134 135/135/135
f 86/86/86 135/135/135 87/87/87
f 87/87/87 135/135/135 136/136/136
f 87/87/87 136/136/136 88/88/88
f 88/88/88 136/136/136 137/137/137
f 88/88/88 137/137/137 89/89/89
f 89/89/89 137/137/137 138/138/138
f 89/89/89 138/138/138 90/90/90
f 90/90/90 138/138/138 139/139/139
f 90/90/90 139/139/139 91/91/91
f 91/91/91 139/139/139 140/140/140
f 91/91/91 140/140/140 92/92/92
f 92/92/92 140/140/140 141/141/141
f 92/92/92 141/141/141 93/93/93
f 93/93/93 141/141/141 142/142/142
f 93/93/93 142/142/142 94/94/94
f 94/94/94 142/142/142 143/143/143
f 94/94/94 143/143/143 95/95/95
f 95/95/95 143/143/143 144/144/144
f 95/95/95 144/144/144 96/96/96
f 96/96/96 144/144/144 145/145/145
f 96/96/96 145/145/145 97/97/97
f 97/97/97 145/145/145 146/146/146
f 97/97/97 146/146/146 98/98/98
f 98/98/98 146/146/146 147/147/147
f 99/99/99 148/148/148 100/100/100
f 100/100/100 148/148/148 149/149/149
f 100/100/100 149/149/149 101/101/101
f 101/101/101 149/149/149 150/150/150
f 101/101/101 150/150/150 102/102/102
f 102/102/102 150/150/150 151/151/151
f 102/102/102 151/151/151 103/103/103
f 103/103/103 151/151/151 152/152/152
f 103/103/103 152/152/152 104/104/104
f 104/104/104 152/152/152 153/153/153
f 104/104/104 153/153/153 105/105/105
f 105/105/105 153/153/153 154/154/154
f 105/105/105 154/154/154 106/106/106
f 106/106/106 154/154/154 155/155/155
f 106/106/106 155/155/155 107/107/107
f 107/107/107 155/155/155 156/156/156
f 107/107/107 156/156/156 108/108/108
f 108/108/108 156/156/156 157/157/157
f 108/108/108 157/157/157 109/109/109
f 109/109/109 157/157/157 158/158/158
f 109/109/109 158/158/158 110/110/110
f 110/110/110 158/158/158 159/159/159
f 110/110/110 159/159/159 111/111/111
f 111/111/111 159/159/159 160/160/160
f 111/111/111 160/160/160 112/112/112
f 112/112/112 160/160/160 161/161/161
f 112/112/112 161/161/161 113/113/113
f 113/113/113 161/161/161 162/162/162
f 113/113/113 162/162/162 114/114/114
f 114/114/114 162/162/162 163/163/163
f 114/114/114 163/163/163 115/115/115
f 115/115/115 163/163/163 164/164/164
f 115/115/115 164/164/164 116/116/116
f 116/116/116 164/164/164 165/165/165
f 116/116/116 165/165/165 117/117/117
f 117/117/117 165/165/165 166/166/166
f 117/117/117 166/166/166 118/118/118
f 118/118/118 166/166/166 167/167/167
f 118/118/118 167/167/167 119/119/119
f 119/119/119 167/167/167 168/168/168
f 119/119/119 168/168/168 120/120/120
f 120/120/120 168/168/168 169/169/169
f 120/120/120 169/169/169 121/121/121
f 121/121/121 169/169/169 170/170/170
f 121/121/121 170/170/170 122/122/122
f 122/122/122 170/170/170 171/171/171
f 122/122/122 171/171/171 123/123/123
f 123/123/123 171/171/171 172/172/172
f 123/123/123 172/172/172 124/124/124
f 124/124/124 172/172/172 173/173/173
f 124/124/124 173/173/173 125/125/125
f 125/125/125 173/173/173 174/174/174
f 125/125/125 174/174/174 126/126/126
f 126/126/126 174/174/174 175/175/175
f 126/126/126 175/175/175 127/127/127
f 127/127/127 175/175/175 176/176/176
f 127/127/127 176/176/176 128/128/128
f 128/128/128 176/176/176 177/177/177
f 128/128/128 177/177/177 129/129/129
f 129/129/129 177/177/177 178/178/178
f 129/129/129 178/178/178 130/130/130
f 130/130/130 178/178/178 179/179/179
f 130/130/130 179/179/179 131/131/131
f 131/131/131 179/179/179 180/180/180
f 131/131/131 180/180/180 132/132/132
f 132/132/132 180/180/180 181/181/181
f 132/132/132 181/181/181 133/133/133
f 133/133/133 181/181/181 182/182/182
f 133/133/133 182/182/182 134/134/134
f 134/134/134 182/182/182 183/183/183
f 134/134/134 183/183/183 135/135/135
f 135/135/135 183/183/183 184/184/184
f 135/135/135 184/184/184 136/136/136
f 136/136/136 184/184/184 185/185/185
f 136/136/136 185/185/185 137/137/137
f 137/137/137 185/185/185 186/186/186
f 137/137/137 186/186/186 138/138/138
f 138/138/138 186/186/186 187/187/187
f 138/138/138 187/187/187 139/139/139
f 139/139/139 187/187/187 188/188/188
f 139/139/139 188/188/188 140/140/140
f 140/140/140 188/188/188 189/189/189
f 140/140/140 189/189/189 141/141/141
f 141/141/141 189/189/189 190/190/190
f 141/141/141 190/190/190 142/142/142
f 142/142/142 190/190/190 191/191/191
f 142/142/142 191/191/191 143/143/143
f 143/143/143 191/191/191 192/192/192
f 143/143/143 192/192/192 144/144/144
f 144/144/144 192/192/192 193/193/193
f 144/144/144 193/193/193 145/145/145
f 145/145/145 193/193/193 194/194/194
f 145/145/145 194/194/194 146/146/146
f 146/146/146 194/194/194 195/195/195
f 146/146/146 195/195/195 147/147/147
f 147/147/147 195/195/195 196/196/196
f 148/148/148 197/197/197 149/149/149
f 149/149/149 197/197/197 198/198/198
f 149/149/149 198/198/198 150/150/150
f 150/150/150 198/198/198 199/199/199
f 150/150/150 199/199/199 151/151/151
f 151/151/151 199/199/199 200/200/200
f 151/151/151 200/200/200 152/152/152
f 152/152/152 200/200/200 201/201/201
f 152/152/152 201/201/201 153/153/153
f 153/153/153 201/201/201 202/202/202
f 153/153/153 202/202/202 154/154/154
f 154/154/154 202/202/202 203/203/203
f 154/154/154 203/203/203 155/155/155
f 155/155/155 203/203/203 204/204/204
f 155/155/155 204/204/204 156/156/156
f 156/156/156 204/204/204 205/205/205
f 156/156/156 205/205/205 157/157/157
f 157/157/157 205/205/205 206/206/206
f 157/157/157 206/206/206 158/158/158
f 158/158/158 206/206/206 207/207/207
f 158/158/158 207/207/207 159/159/159
f 159/159/159 207/207/207 208/208/208
f 159/159/159 208/208/208 160/160/160
f 160/160/160 208/208/208 209/209/209
f 160/160/160 209/209/209 161/161/161
f 161/161/161 209/209/209 210/210/210
f 161/161/161 210/210/210 162/162/162
f 162/162/162 210/210/210 211/211/211
f 162/162/162 211/211/211 163/163/163
f 163/163/163 211/211/211 212/212/212
f 163/163/163 212/212/212 164/164/164
f 164/164/164 212/212/212 213/213/213
f 164/164/164 213/213/213 165/165/165
f 165/165/165 213/213/213 214/214/214
f 165/165/165 214/214/214 166/166/166
f 166/166/166 214/214/214 215/215/215
f 166/166/166 215/215/215 167/167/167
f 167/167/167 215/215/215 216/216/216
f 167/167/167 216/216/216 168/168/168
f 168/168/168 216/216/216 217/217/217
f 168/168/168 217/217/217 169/169/169
f 169/169/169 217/217/217 218/218/218
f 169/169/169 218/218/218 170/170/170
f 170/170/170 218/218/218 219/219/219
f 170/170/170 219/219/219 171/171/171
f 171/171/171 219/219/219 220/220/220
f 171/171/171 220/220/220 172/172/172
f 172/172/172 220/220/220 221/221/221
f 172/172/172 221/221/221 173/173/173
f 173/173/173 221/221/221 222/222/222
f 173/173/173 222/222/222 174/174/174
f 174/174/174 222/222/222 223/223/223
f 174/174/174 223/223/223 175/175/175
f 175/175/175 223/223/223 224/224/224
f 175/175/175 224/224/224 176/176/176
f 176/176/176 224/224/224 225/225/225
f 176/176/176 225/225/225 177/177/177
f 177/177/177 225/225/225 226/226/226
f 177/177/177 226/226/226 178/178/178
f 178/178/178 226/226/226 227/227/227
f 178/178/178 227/227/227 179/179/179
f 179/179/179 227/227/227 228/228/228
f 179/179/179 228/228/228 180/180/180
f 180/180/180 228/228/228 229/229/229
f 180/180/180 229/229/229 181/181/181
f 181/181/181 229/229/229 230/230/230
f 181/181/181 230/230/230 182/182/182
f 182/182/182 230/230/230 231/231/231
f 182/182/182 231/231/231 183/183/183
f 183/183/183 231/231/231 232/232/232
f 183/183/183 232/232/232 184/184/184
f 184/184/184 232/232/232 233/233/233
f 184/184/184 233/233/233 185/185/185
f 185/185/185 233/233/233 234/234/234
f 185/185/185 234/234/234 186/186/186
f 186/186/186 234/234/234 235/235/235
f 186/186/186 235/235/235 187/187/187
f 187/187/187 235/235/235 236/236/236
f 187/187/187 236/236/236 188/188/188
f 188/188/188 236/236/236 237/237/237
f 188/188/188 237/237/237 189/189/189
f 189/189/189 237/237/237 238/238/238
f 189/189/189 238/238/238 190/190/190
f 190/190/190 238/238/238 239/239/239
f 190/190/190 239/239/239 191/191/191
f 191/191/191 239/239/239 240/240/240
f 191/191/191 240/240/240 192/192/192
f 192/192/192 240/240/240 241/241/241
f 192/192/192 241/241/241 193/193/193
f 193/193/193 241/241/241 242/242/242
f 193/193/193 242/242/242 194/194/194
f 194/194/194 242/242/242 243/243/243
f 194/194/194 243/243/243 195/195/195
f 195/195/195 243/243/243 244/244/244
f 195/195/195 244/244/244 196/196/196
f 196/196/196 244/244/244 245/245/245
f 197/197/197 246/246/246 198/198/198
f 198/198/198 246/246/246 247/247/247
f 198/198/198 247/247/247 199/199/199
f 199/199/199 247/247/247 248/248/248
f 199/199/199 248/248/248 200/200/200
f 200/200/200 248/248/248 249/249/249
f 200/200/200 249/249/249 201/201/201
f 201/201/201 249/249/249 250/250/250
f 201/201/201 250/250/250 202/202/202
f 202/202/202 250/250/250 251/251/251
f 202/202/202 251/251/251 203/203/203
f 203/203/203 251/251/251 252/252/252
f 203/203/203 252/252/252 204/204/204
f 204/204/204 252/252/252 253/253/253
f 204/204/204 253/253/253 205/205/205
f 205/205/205 253/253/253 254/254/254
f 205/205/205 254/254/254 206/206/206
f 206/206/206 254/254/254 255/255/255
f 206/206/206 255/255/255 207/207/207
f 207/207/207 255/255/255 256/256/256
f 207/207/207 256/256/256 208/208/208
f 208/208/208 256/256/256 257/257/257
f 208/208/208 257/257/257 209/209/209
f 209/209/209 257/257/257 258/258/258
f 209/209/209 258/258/258 210/210/210
f 210/210/210 258/258/258 259/259/259
f 210/210/210 259/259/259 211/211/211
f 211/211/211 259/259/259 260/260/260
f 211/211/211 260/260/260 212/212/212
f 212/212/212 260/260/260 261/261/261
f 212/212/212 261/261/261 213/213/213
f 213/213/213 261/261/261 262/262/262
f 213/213/213 262/262/262 214/214/214
f 214/214/214 262/262/262 263/263/263
f 214/214/214 263/263/263 215/215/215
f 215/215/215 263/263/263 264/264/264
f 215/215/215 264/264/264 216/216/216
f 216/216/216 264/264/264 265/265/265
f 216/216/216 265/265/265 217/217/217
f 217/217/217 265/265/265 266/266/266
f 217/217/217 266/266/266 218/218/218
f 218/218/218 266/266/266 267/267/267
f 218/218/218 267/267/267 219/219/219
f 219/219/219 267/267/267 268/268/268
f 219/219/219 268/268/268 220/220/220
f 220/220/220 268/268/268 269/269/269
f 220/220/220 269/269/269 221/221/221
f 221/221/221 269/269/269 270/270/270
f 221/221/221 270/270/270 222/222/222
f 222/222/222 270/270/270 271/271/271
f 222/222/222 271/271/271 223/223/223
f 223/223/223 271/271/271 272/272/272
f 223/223/223 272/272/272 224/224/224
f 224/224/224 272/272/272 273/273/273
f 224/224/224 273/273/273 225/225/225
f 225/225/225 273/273/273 274/274/274
f 225/225/225 274/274/274 226/226/226
f 226/226/226 274/274/274 275/275/275
f 226/226/226 275/275/275 227/227/227
f 227/227/227 275/275/275 276/276/276
f 227/227/227 276/276/276 228/228/228
f 228/228/228 276/276/276 277/277/277
f 228/228/228 277/277/277 229/229/229
f 229/229/229 277/277/277 278/278/278
f 229/229/229 278/278/278 230/230/230
f 230/230/230 278/278/278 279/279/279
f 230/230/230 279/279/279 231/231/231
f 231/231/231 279/279/279 280/280/280
f 231/231/231 280/280/280 232/232/232
f 232/232/232 280/280/280 281/281/281
f 232/232/232 281/281/281 233/233/233
f 233/233/233 281/281/281 282/282/282
f 233/233/233 282/282/282 234/234/234
f 234/234/234 282/282/282 283/283/283
f 234/234/234 283/283/283 235/235/235
f 235/235/235 283/283/283 284/284/284
f 235/235/235 284/284/284 236/236/236
f 236/236/236 284/284/284 285/285/285
f 236/236/236 285/285/285 237/237/237
f 237/237/237 285/285/285 286/286/286
f 237/237/237 286/286/286 238/238/238
f 238/238/238 286/286/286 287/287/287
f 238/238/238 287/287/287 239/239/239
f 239/239/239 287/287/287 288/288/288
f 239/239/239 288/288/288 240/240/240
f 240/240/240 288/288/288 289/289/289
f 240/240/240 289/289/289 241/241/241
f 241/241/241 289/289/289 290/290/290
f 241/241/241 290/290/290 242/242/242
f 242/242/242 290/290/290 291/291/291
f 242/242/242 291/291/291 243/243/243
f 243/243/243 291/291/291 292/292/292
f 243/243/243 292/292/292 244/244/244
f 244/244/244 292/292/292 293/293/293
f 244/244/244 293/293/293 245/245/245
f 245/245/245 293/293/293 294/294/294
f 246/246/246 295/295/295 247/247/247
f 247/247/247 295/295/295 296/296/296
f 247/247/247 296/296/296 248/248/248
f 248/248/248 296/296/296 297/297/297
f 248/248/248 297/297/297 249/249/249
f 249/249/249 297/297/297 298/298/298
f 249/249/249 298/298/298 250/250/250
f 250/250/250 298/298/298 299/299/299
f 250/250/250 299/299/299 251/251/251
f 251/251/251 299/299/299 300/300/300
f 251/251/251 300/300/300 252/252/252
f 252/252/252 300/300/300 301/301/301
f 252/252/252 301/301/301 253/253/253
f 253/253/253 301/301/301 302/302/302
f 253/253/253 302/302/302 254/254/254
f 254/254/254 302/302/302 303/303/303
f 254/254/254 303/303/303 255/255/255
f 255/255/255 303/303/303 304/304/304
f 255/255/255 304/304/304 256/256/256
f 256/256/256 304/304/304 305/305/305
f 256/256/256 305/305/305 257/257/257
f 257/257/257 305/305/305 306/306/306
f 257/257/257 306/306/306 258/258/258
f 258/258/258 306/306/306 307/307/307
f 258/258/258 307/307/307 259/259/259
f 259/259/259 307/307/307 308/308/308
f 259/259/259 308/308/308 260/260/260
f 260/260/260 308/308/308 309/309/309
f 260/260/260 309/309/309 261/261/261
f 261/261/261 309/309/309 310/310/310
f 261/261/261 310/310/310 262/262/262
f 262/262/262 310/310/310 311/311/311
f 262/262/262 311/311/311 263/263/263
f 263/263/263 311/311/311 312/312/312
f 263/263/263 312/312/312 264/264/264
f 264/264/264 312/312/312 313/313/313
f 264/264/264 313/313/313 265/265/265
f 265/265/265 313/313/313 314/314/314
f 265/265/265 314/314/314 266/266/266
f 266/266/266 314/314/314 315/315/315
f 266/266/266 315/315/315 267/267/267
f 267/267/267 315/315/315 316/316/316
f 267/267/267 316/316/316 268/268/268
f 268/268/268 316/316/316 317/317/317
f 268/268/268 317/317/317 269/269/269
f 269/269/269 317/317/317 318/318/318
f 269/269/269 318/318/318 270/270/270
f 270/270/270 318/318/318 319/319/319
f 270/270/270 319/319/319 271/271/271
f 271/271/271 319/319/319 320/320/320
f 271/271/271 320/320/320 272/272/272
f 272/272/272 320/320/320 321/321/321
f 272/272/272 321/321/321 273/273/273
f 273/273/273 321/321/321 322/322/322
f 273/273/273 322/322/322 274/274/274
f 274/274/274 322/322/322 323/323/323
f 274/274/274 323/323/323 275/275/275
f 275/275/275 323/323/323 324/324/324
f 275/275/275 324/324/324 276/276/276
f 276/276/276 324/324/324 325/325/325
f 276/276/276 325/325/325 277/277/277
f 277/277/277 325/325/325 326/326/326
f 277/277/277 326/326/326 278/278/278
f 278/278/278 326/326/326 327/327/327
f 278/278/278 327/327/327 279/279/279
f 279/279/279 327/327/327 328/328/328
f 279/279/279 328/328/328 280/280/280
f 280/280/280 328/328/328 329/329/329
f 280/280/280 329/329/329 281/281/281
f 281/281/281 329/329/329 330/330/330
f 281/281/281 330/330/330 282/282/282
f 282/282/282 330/330/330 331/331/331
f 282/282/282 331/331/331 283/283/283
f 283/283/283 331/331/331 332/332/332
f 283/283/283 332/332/332 284/284/284
f 284/284/284 332/332/332 333/333/333
f 284/284/284 333/333/333 285/285/285
f 285/285/285 333/333/333 334/334/334
f 285/285/285 334/334/334 286/286/286
f 286/286/286 334/334/334 335/335/335
f 286/286/286 335/335/335 287/287/287
f 287/287/287 335/335/335 336/336/336
f 287/287/287 336/336/336 288/288/288
f 288/288/288 336/336/336 337/337/337
f 288/288/288 337/337/337 289/289/289
f 289/289/289 337/337/337 338/338/338
f 289/289/289 338/338/338 290/290/290
f 290/290/290 338/338/338 339/339/339
f 290/290/290 339/339/339 291/291/291
f 291/291/291 339/339/339 340/340/340
f 291/291/291 340/340/340 292/292/292
f 292/292/292 340/340/340 341/341/341
f 292/292/292 341/341/341 293/293/293
f 293/293/293 341/341/341 342/342/342
f 293/293/293 342/342/342 294/294/294
f 294/294/294 342/342/342 343/343/343
f 295/295/295 344/344/344 296/296/296
f 296/296/296 344/344/344 345/345/345
f 296/296/296 345/345/345 297/297/297
f 297/297/297 345/345/345 346/346/346
f 297/297/297 346/346/346 298/298/298
f 298/298/298 346/346/346 347/347/347
f 298/298/298 347/347/347 299/299/299
f 299/299/299 347/347/347 348/348/348
f 299/299/299 348/348/348 300/300/300
f 300/300/300 348/348/348 349/349/349
f 300/300/300 349/349/349 301/301/301
f 301/301/301 349/349/349 350/350/350
f 301/301/301 350/350/350 302/302/302
f 302/302/302 350/350/350 351/351/351
f 302/302/302 351/351/351 303/303/303
f 303/303/303 351/351/351 352/352/352
f 303/303/303 352/352/352 304/304/304
f 304/304/304 352/352/352 353/353/353
f 304/304/304 353/353/353 305/305/305
f 305/305/305 353/353/353 354/354/354
f 305/305/305 354/354/354 306/306/306
f 306/306/306 354/354/354 355/355/355
f 306/306/306 355/355/355 307/307/307
f 307/307/307 355/355/355 356/356/356
f 307/307/307 356/356/356 308/308/308
f 308/308/308 356/356/356 357/357/357
f 308/308/308 357/357/357 309/309/309
f 309/309/309 357/357/357 358/358/358
f 309/309/309 358/358/358 310/310/310
f 310/310/310 358/358/358 359/359/359
f 310/310/310 359/359/359 311/311/311
f 311/311/311 359/359/359 360/360/360
f 311/311/311 360/360/360 312/312/312
f 312/312/312 360/360/360 361/361/361
f 312/312/312 361/361/361 313/313/313
f 313/313/313 361/361/361 362/362/362
f 313/313/313 362/362/362 314/314/314
f 314/314/314 362/362/362 363/363/363
f 314/314/314 363/363/363 315/315/315
f 315/315/315 363/363/363 364/364/364
f 315/315/315 364/364/364 316/316/316
f 316/316/316 364/364/364 365/365/365
f 316/316/316 365/365/365 317/317/317
f 317/317/317 365/365/365 366/366/366
f 317/317/317 366/366/366 318/318/318
f 318/318/318 366/366/366 367/367/367
f 318/318/318 367/367/367 319/319/319
f 319/319/319 367/367/367 368/368/368
f 319/319/319 368/368/368 320/320/320
f 320/320/320 368/368/368 369/369/369
f 320/320/320 369/369/369 321/321/321
f 321/321/321 369/369/369 370/370/370
f 321/321/321 370/370/370 322/322/322
f 322/322/322 370/370/370 371/371/371
f 322/322/322 371/371/371 323/323/323
f 323/323/323 371/371/371 372/372/372
f 323/323/323 372/372/372 324/324/324
f 324/324/324 372/372/372 373/373/373
f 324/324/324 373/373/373 325/325/325
f 325/325/325 373/373/373 374/374/374
f 325/325/325 374/374/374 326/326/326
f 326/326/326 374/374/374 375/375/375
f 326/326/326 375/375/375 327/327/327
f 327/327/327 375/375/375 376/376/376
f 327/327/327 376/376/376 328/328/328
f 328/328/328 376/376/376 377/377/377
f 328/328/328 377/377/377 329/329/329
f 329/329/329 377/377/377 378/378/378
f 329/329/329 378/378/378 330/330/330
f 330/330/330 378/378/378 379/379/379
f 330/330/330 379/379/379 331/331/331
f 331/331/331 379/379/379 380/380/380
f 331/331/331 380/380/380 332/332/332
f 332/332/332 380/380/380 381/381/381
f 332/332/332 381/381/381 333/333/333
f 333/333/333 381/381/381 382/382/382
f 333/333/333 382/382/382 334/334/334
f 334/334/334 382/382/382 383/383/383
f 334/334/334 383/383/383 335/335/335
f 335/335/335 383/383/383 384/384/384
f 335/335/335 384/384/384 336/336/336
f 336/336/336 384/384/384 385/385/385
f 336/336/336 385/385/385 337/337/337
f 337/337/337 385/385/385 386/386/386
f 337/337/337 386/386/386 338/338/338
f 338/338/338 386/386/386 387/387/387
f 338/338/338 387/387/387 339/339/339
f 339/339/339 387/387/387 388/388/388
f 339/339/339 388/388/388 340/340/340
f 340/340/340 388/388/388 389/389/389
f 340/340/340 389/389/389 341/341/341
f 341/341/341 389/389/389 390/390/390
f 341/341/341 390/390/390 342/342/342
f 342/342/342 390/390/390 391/391/391
f 342/342/342 391/391/391 343/343/343
f 343/343/343 391/391/391 392/392/392
